<svg width="226" height="40" viewBox="0 0 226 40" fill="none" xmlns="http://www.w3.org/2000/svg">
<path d="M129.016 10.3564H123.439V29.2149H129.016V10.3564Z" fill="#282828"/>
<path d="M122.916 6.20825C122.916 5.20905 123.229 4.43055 123.857 3.87275C124.484 3.31505 125.228 3.02455 126.088 3.00135C126.994 2.97805 127.784 3.25695 128.458 3.83795C129.155 4.39565 129.504 5.18575 129.504 6.20825C129.504 7.16105 129.19 7.90475 128.563 8.43925C127.935 8.97375 127.192 9.25265 126.332 9.27585C125.425 9.29905 124.624 9.04345 123.927 8.50895C123.253 7.95125 122.916 7.18435 122.916 6.20825Z" fill="#282828"/>
<path d="M117.73 29.5288C118.567 29.5288 119.566 29.4358 120.728 29.2499L120.553 24.7183C120.019 24.8345 119.496 24.8926 118.985 24.8926C117.288 24.8926 116.44 24.1606 116.44 22.6965V15.2717H120.379V10.5658H116.44V6.4873L110.967 6.9753V10.5658H108.492V15.2717H110.967V22.6965C110.967 25.0901 111.548 26.8331 112.71 27.9253C113.872 29.0175 115.545 29.552 117.73 29.5288Z" fill="#282828"/>
<path fill-rule="evenodd" clip-rule="evenodd" d="M85.7475 19.8034C85.7475 21.9414 85.447 23.8005 84.4477 25.3807C83.4717 26.9377 82.2283 28.0648 80.7178 28.762C79.2306 29.4592 77.6154 29.8078 75.8726 29.8078C74.1528 29.8078 72.5378 29.4592 71.0272 28.762C69.5399 28.0416 68.2966 26.9029 67.2974 25.3459C66.3213 23.7889 65.8333 21.9414 65.8333 19.8034C65.8333 18.1766 66.1237 16.7126 66.7048 15.4112C67.2857 14.0866 68.0409 13.0292 68.9706 12.2391C69.9233 11.4257 70.9924 10.7982 72.1775 10.3567C73.386 9.91519 74.6176 9.70599 75.8726 9.72929C77.1507 9.72929 78.3823 9.94999 79.5676 10.3916C80.7759 10.8099 81.845 11.4257 82.7745 12.2391C83.7272 13.0524 84.4941 14.1098 85.0751 15.4112C85.6562 16.7126 85.7475 18.1766 85.7475 19.8034ZM71.3409 19.8034C71.3409 21.0118 71.6546 22.0227 72.2821 22.8361C72.9096 23.6494 73.6647 24.1607 74.5479 24.3698C75.431 24.5557 76.314 24.5557 77.1972 24.3698C78.1035 24.1839 78.8703 23.6843 79.4977 22.8709C80.1253 22.0343 80.4389 21.0118 80.4389 19.8034C80.4389 18.9203 80.2647 18.1418 79.9161 17.4678C79.5908 16.7707 79.1609 16.2478 78.6264 15.8992C78.0919 15.5274 77.4993 15.2601 76.8485 15.0975C76.1978 14.9348 75.5472 14.9348 74.8965 15.0975C74.2691 15.2601 73.688 15.5274 73.1535 15.8992C72.619 16.2478 72.1775 16.7707 71.8289 17.4678C71.5035 18.1418 71.3409 18.9203 71.3409 19.8034Z" fill="#282828"/>
<path fill-rule="evenodd" clip-rule="evenodd" d="M98.2783 29.5285C96.2333 29.5285 94.6063 28.8429 93.3983 27.4718V34.7224H87.9603V10.3563H93.3983V12.2387C94.5363 10.8211 96.1863 10.1123 98.3483 10.1123C101.206 10.1123 103.437 11.0883 105.04 13.0404C106.644 14.9925 107.434 17.3512 107.411 20.1167C107.364 22.8589 106.563 25.1131 105.006 26.8792C103.449 28.6454 101.206 29.5285 98.2783 29.5285ZM97.6853 15.3759C96.5003 15.3759 95.4893 15.8175 94.6533 16.7006C93.8163 17.5836 93.3983 18.6526 93.3983 19.9075C93.3983 21.1624 93.8163 22.2431 94.6533 23.1494C95.4893 24.0325 96.5003 24.474 97.6853 24.474C99.0103 24.474 100.032 24.0325 100.753 23.1494C101.497 22.2663 101.88 21.2089 101.903 19.9773C101.926 18.7456 101.555 17.6766 100.788 16.7703C100.044 15.8407 99.0103 15.3759 97.6853 15.3759Z" fill="#282828"/>
<path d="M137.676 10.3562H132.134V29.2147H137.955V18.548C137.955 17.5719 138.281 16.8167 138.931 16.2822C139.605 15.7244 140.326 15.4572 141.093 15.4804C142.65 15.5269 143.428 16.5726 143.428 18.6177V29.2147H148.971V18.4782C148.994 17.5254 149.366 16.7818 150.086 16.2473C150.83 15.7128 151.597 15.4572 152.387 15.4804C153.944 15.5269 154.722 16.5726 154.722 18.6177V29.2147H160.265V18.5828C160.288 15.7709 159.719 13.6794 158.557 12.3083C157.395 10.9139 155.849 10.1819 153.92 10.1122C152.735 10.0657 151.55 10.2633 150.365 10.7048C149.18 11.1231 148.285 11.7505 147.681 12.5872C146.728 11.0069 145.252 10.1703 143.254 10.0773C140.721 10.0309 138.862 10.7513 137.676 12.2386V10.3562Z" fill="#282828"/>
<path fill-rule="evenodd" clip-rule="evenodd" d="M171.666 10.043C173.735 10.043 175.361 10.7982 176.547 12.3088V10.3567H182.019V29.2152H176.547V27.3328C175.408 28.7504 173.758 29.4592 171.597 29.4592C168.738 29.4592 166.507 28.4831 164.904 26.5311C163.3 24.579 162.51 22.2202 162.534 19.4548C162.58 16.7126 163.382 14.4584 164.939 12.6922C166.496 10.9261 168.738 10.043 171.666 10.043ZM172.259 24.1955C173.444 24.1955 174.455 23.754 175.292 22.8709C176.128 21.9878 176.547 20.9188 176.547 19.6639C176.547 18.409 176.128 17.34 175.292 16.4569C174.455 15.5506 173.444 15.0975 172.259 15.0975C170.934 15.0975 169.9 15.539 169.157 16.4221C168.436 17.3052 168.064 18.3625 168.041 19.5942C168.018 20.8259 168.378 21.9065 169.122 22.8361C169.889 23.7424 170.934 24.1955 172.259 24.1955Z" fill="#282828"/>
<path d="M190.531 10.3568V30.017C190.531 32.7592 189.602 34.6997 187.743 35.8384C185.883 37.0003 183.583 37.2908 180.841 36.7098L181.05 32.1782C182.095 32.4106 183.025 32.3525 183.838 32.0039C184.652 31.6554 185.058 30.9582 185.058 29.9124V10.3568H190.531Z" fill="#282828"/>
<path d="M185.512 3.87309C184.861 4.43089 184.536 5.23259 184.536 6.27839C184.536 7.30089 184.873 8.09099 185.546 8.64869C186.22 9.18319 187.011 9.43889 187.917 9.41559C188.8 9.39239 189.544 9.11349 190.148 8.57899C190.775 8.04449 191.089 7.27759 191.089 6.27839C191.089 5.27909 190.764 4.50059 190.113 3.94279C189.485 3.36189 188.742 3.05979 187.882 3.03649C186.976 3.01329 186.186 3.29219 185.512 3.87309Z" fill="#282828"/>
<path fill-rule="evenodd" clip-rule="evenodd" d="M212.301 19.7329C212.301 20.4766 212.231 21.197 212.092 21.8942H198.567C198.892 22.7308 199.427 23.3815 200.17 23.8462C200.914 24.2878 201.727 24.5203 202.61 24.5434C203.935 24.5434 204.992 24.1136 205.782 23.2537H211.743C211.046 25.2523 209.826 26.7977 208.083 27.8899C206.34 28.9589 204.423 29.4701 202.331 29.4236C199.729 29.3771 197.486 28.5058 195.604 26.8092C193.745 25.0896 192.815 22.7308 192.815 19.7329C192.815 18.1759 193.094 16.7701 193.652 15.5152C194.209 14.2369 194.953 13.2144 195.883 12.4475C196.835 11.6806 197.881 11.0997 199.02 10.7046C200.182 10.2863 201.39 10.0771 202.645 10.0771C205.271 10.1004 207.537 10.9602 209.443 12.6567C211.348 14.3531 212.301 16.7119 212.301 19.7329ZM198.776 17.6066H206.305C206.05 16.7003 205.573 16.0147 204.876 15.5499C204.202 15.0851 203.4 14.8528 202.471 14.8528C201.611 14.8528 200.844 15.0968 200.17 15.5848C199.52 16.0496 199.055 16.7235 198.776 17.6066Z" fill="#282828"/>
<path d="M222.835 29.6996C223.672 29.6996 224.671 29.6067 225.833 29.4208L225.659 24.8891C225.124 25.0053 224.601 25.0634 224.09 25.0634C222.394 25.0634 221.545 24.3314 221.545 22.8674V15.4425H225.484V10.7366H221.545V6.6582L216.073 7.1462V10.7366H213.598V15.4425H216.073V22.8674C216.073 25.261 216.654 27.0039 217.816 28.0961C218.978 29.1884 220.651 29.7229 222.835 29.6996Z" fill="#282828"/>
<path d="M20.8333 40C31.8789 40 40.8333 31.0457 40.8333 20C40.8333 8.9543 31.8789 0 20.8333 0C9.78756 0 0.833252 8.9543 0.833252 20C0.833252 31.0457 9.78756 40 20.8333 40Z" fill="url(#paint0_linear_2340_51)"/>
<path d="M25.8333 15C25.8333 6.7158 32.549 0 40.8333 0V20C40.8333 31.0457 31.879 40 20.8333 40C9.78755 40 0.833252 31.0457 0.833252 20C0.833252 26.9036 6.42965 32.5 13.3333 32.5C20.2369 32.5 25.8333 26.9036 25.8333 20V15Z" fill="#4286F4"/>
<defs>
<linearGradient id="paint0_linear_2340_51" x1="10.0333" y1="5.4" x2="35.1833" y2="22.35" gradientUnits="userSpaceOnUse">
<stop stop-color="#4286F4"/>
<stop offset="1" stop-color="#373B44"/>
</linearGradient>
</defs>
</svg>
