<svg width="184" height="34" viewBox="0 0 184 34" fill="none" xmlns="http://www.w3.org/2000/svg">
<path d="M17.8839 26.246C17.7 26.292 17.6081 26.43 17.5161 26.568C15.4473 28.868 13.3325 31.168 11.2637 33.468C11.0338 33.744 10.8039 33.836 10.4361 33.836C7.12599 33.836 3.81585 33.836 0.505715 33.836C0.367793 33.836 0.183897 33.882 -6.85066e-10 33.79C12.1372 24.36 24.2743 14.93 36.4115 5.5C36.4115 5.684 36.2736 5.776 36.2276 5.868C34.4806 7.8 32.7336 9.732 30.9866 11.71C28.9637 13.964 26.9408 16.218 24.872 18.472C24.7801 18.564 24.6421 18.656 24.6421 18.794C24.4582 18.886 24.3663 19.024 24.2284 19.162C23.3549 20.128 22.4814 21.14 21.6078 22.106C20.4125 23.394 19.2632 24.728 18.0678 26.016C18.0219 26.016 17.9299 26.108 17.8839 26.246Z" fill="#0294DD"/>
<path d="M0.0933112 30.6623C0.0150529 30.5057 0.103311 30.3824 0.188017 30.2641C0.202827 30.2434 0.217551 30.2228 0.231234 30.2023C0.897858 28.8913 1.55299 27.5688 2.20812 26.2463C2.86325 24.9238 3.51838 23.6013 4.18501 22.2903L15.0809 0.486266C15.1269 0.417266 15.1613 0.348266 15.1958 0.279266C15.2303 0.210266 15.2648 0.141266 15.3108 0.0722656C15.4069 0.0722656 15.436 0.13935 15.4604 0.195565C15.471 0.219976 15.4807 0.242338 15.4946 0.256266L21.977 13.2283C22.04 13.3542 22.0742 13.4227 22.0622 13.4818C22.0479 13.5522 21.968 13.6092 21.7931 13.7343C20.3219 14.8613 18.8622 15.9998 17.4025 17.1383C15.9429 18.2768 14.4832 19.4153 13.012 20.5423C8.73645 23.9463 4.41488 27.3043 0.0933112 30.6623Z" fill="#444B50"/>
<path fill-rule="evenodd" clip-rule="evenodd" d="M135.394 28.5456C135.394 29.0516 135.348 29.5576 135.256 30.0636C135.026 31.1676 134.429 32.0416 133.463 32.5936C132.498 33.1916 131.486 33.5136 130.383 33.6976C129.647 33.8356 128.866 33.8356 128.084 33.8356H121.28C120.269 33.8356 119.257 33.7896 118.292 33.5136C117.924 33.4216 117.556 33.3296 117.234 33.1456C115.625 32.4556 114.798 31.1676 114.66 29.4196V20.2656C114.66 19.7136 114.706 19.1616 114.89 18.6556C115.165 17.7816 115.717 17.1376 116.453 16.5856C117.326 15.9416 118.292 15.6196 119.349 15.4356C120.039 15.3436 120.682 15.2976 121.372 15.2976H130.797C131.164 15.2976 131.164 15.2976 131.164 14.9296V9.8236C131.164 9.7316 131.21 9.6856 131.302 9.6856H134.934L135.001 9.68536L135.05 9.68498C135.224 9.68352 135.311 9.68279 135.354 9.72582C135.397 9.76887 135.396 9.85571 135.395 10.0294L135.394 10.0715L135.394 10.1456V28.5456ZM131.164 23.6696V18.9316C131.164 18.5636 131.164 18.5636 130.843 18.5636H122.245C121.602 18.5636 120.958 18.6556 120.36 18.8856C119.579 19.2076 119.073 19.7136 118.935 20.5416C118.889 20.8176 118.889 21.1396 118.889 21.4156V28.4996C118.935 29.6036 119.395 30.1556 120.452 30.4776C121.05 30.6616 121.694 30.7076 122.337 30.7076H127.395C127.808 30.7076 128.222 30.6616 128.636 30.6156C129.142 30.5696 129.601 30.4316 130.061 30.2016C130.613 29.8796 130.98 29.4196 131.072 28.7756C131.118 28.5456 131.118 28.3616 131.118 28.1316C131.164 26.6136 131.164 25.1416 131.164 23.6696Z" fill="#444B50"/>
<path fill-rule="evenodd" clip-rule="evenodd" d="M86.1554 33.8356H80.5465C79.2592 33.8356 78.0179 33.7896 76.7766 33.4676C76.3169 33.3296 75.8572 33.1916 75.4434 32.9616C73.8803 32.1336 73.0987 30.8456 73.0527 29.0976V20.0816C73.0527 19.6676 73.0987 19.2996 73.1907 18.9316C73.4665 17.7816 74.1101 16.9076 75.1216 16.3556C75.9491 15.8956 76.8226 15.6656 77.7881 15.5276C78.6156 15.3896 79.4431 15.3896 80.2707 15.3896H87.3507C88.4541 15.3896 89.5574 15.4816 90.6149 15.7576C90.9827 15.8496 91.3504 15.9876 91.7182 16.1716C93.0055 16.8616 93.7411 17.9656 93.925 19.3916C94.0112 20.0241 94.0076 20.6566 94.004 21.2891C94.0019 21.6684 93.9997 22.0482 94.0169 22.4276C94.0169 22.624 93.9163 22.6527 93.801 22.6855C93.7813 22.6911 93.7612 22.6969 93.7411 22.7036L90.8447 23.5316C88.6841 24.1755 86.512 24.8195 84.3399 25.4634C82.1675 26.1075 79.995 26.7515 77.834 27.3956L77.7542 27.4219C77.6014 27.472 77.5285 27.4959 77.4942 27.5462C77.4629 27.5921 77.4637 27.66 77.4654 27.7898L77.466 27.85L77.4662 27.9016C77.4662 28.2696 77.4662 28.6376 77.6042 28.9596C77.834 29.6956 78.3398 30.2016 79.0753 30.3856C79.8109 30.5696 80.5925 30.6156 81.3741 30.6156H93.4193C93.6951 30.6156 93.833 30.6156 93.902 30.6845C93.971 30.7535 93.971 30.8915 93.971 31.1676V33.3756C93.971 33.7896 93.971 33.7896 93.5572 33.7896H91.0746C89.3736 33.8356 87.7645 33.8356 86.1554 33.8356ZM77.3283 24.4056C77.4663 24.4516 77.5582 24.4056 77.6501 24.3596C78.7765 24.0376 79.8914 23.7041 81.0063 23.3706C82.1211 23.0371 83.236 22.7036 84.3624 22.3816C85.1669 22.1516 85.9715 21.9101 86.776 21.6686C87.5804 21.4271 88.3853 21.1855 89.1897 20.9556C89.3529 20.9089 89.4333 20.8859 89.4729 20.8326C89.5115 20.7808 89.5115 20.7003 89.5115 20.5416C89.4655 19.7596 89.0977 19.2076 88.3621 18.8856C87.8564 18.6556 87.3507 18.5636 86.799 18.5176C84.6842 18.4716 82.5694 18.4716 80.4546 18.5176C79.8109 18.5176 79.1673 18.6556 78.5696 18.9316C77.7881 19.2996 77.3283 19.9436 77.3283 20.8636V24.4056Z" fill="#444B50"/>
<path fill-rule="evenodd" clip-rule="evenodd" d="M146.336 33.8366H151.99C154.427 33.8366 156.91 33.8366 159.3 33.9286C159.668 33.9286 159.668 33.9286 159.668 33.6066V31.3526C159.668 30.7546 159.668 30.7546 159.116 30.7546H147.117C146.336 30.7546 145.6 30.7086 144.818 30.5246C144.083 30.2946 143.577 29.8346 143.347 29.0986C143.209 28.7766 143.209 28.4086 143.209 28.0406C143.209 27.8376 143.209 27.7341 143.258 27.6651C143.309 27.5934 143.412 27.5589 143.623 27.4886C145.828 26.8452 148.044 26.1903 150.26 25.5355L150.263 25.5347L150.27 25.5325L150.273 25.5317C152.489 24.8768 154.705 24.222 156.91 23.5786C157.783 23.3486 158.611 23.1186 159.484 22.8426C159.508 22.8346 159.533 22.8281 159.558 22.8215C159.68 22.7897 159.806 22.7569 159.806 22.5666C159.789 22.1819 159.797 21.7971 159.804 21.4124C159.818 20.7391 159.831 20.0659 159.714 19.3926C159.53 18.0126 158.794 16.9546 157.507 16.2646C157.139 16.0806 156.818 15.9426 156.45 15.8506C155.346 15.5286 154.243 15.4366 153.14 15.4366H146.06C145.232 15.4366 144.405 15.4366 143.577 15.5746C142.612 15.7126 141.738 15.9426 140.911 16.4026C139.899 16.9546 139.255 17.8286 138.98 18.9786C138.888 19.3466 138.842 19.7606 138.842 20.1746V26.5226C138.842 26.7953 138.837 27.0729 138.832 27.3539C138.821 27.9261 138.811 28.5126 138.842 29.0986C138.888 30.8926 139.761 32.2266 141.416 33.0546C141.83 33.2386 142.198 33.3766 142.612 33.4686C143.853 33.7906 145.094 33.8366 146.336 33.8366ZM143.669 24.3606C143.531 24.4066 143.393 24.4526 143.163 24.4526V20.9566C143.163 19.9906 143.623 19.3466 144.497 18.9786C145.094 18.7026 145.692 18.6106 146.336 18.5646C146.749 18.5186 147.209 18.5186 147.623 18.5186H152.266C152.91 18.5186 153.553 18.6106 154.197 18.8866C154.887 19.1626 155.3 19.7606 155.346 20.5426C155.346 20.8646 155.346 20.8646 155.025 20.9566C154.175 21.2094 153.336 21.4623 152.498 21.7151L152.496 21.7155C151.657 21.9685 150.818 22.2216 149.967 22.4746C148.91 22.7966 147.864 23.1071 146.818 23.4176C145.773 23.728 144.726 24.0387 143.669 24.3606Z" fill="#444B50"/>
<path d="M183.943 33.3768V26.8448C183.943 25.6488 183.943 24.4068 183.989 23.1648C183.989 22.9254 183.992 22.6833 183.994 22.439C184.003 21.6973 184.012 20.936 183.943 20.1748C183.805 17.9208 182.518 16.3568 180.403 15.7128C179.391 15.3908 178.38 15.2988 177.322 15.2988H169.875C169.369 15.2988 168.863 15.3448 168.358 15.3908C167.622 15.4828 166.84 15.6208 166.151 15.9428C164.772 16.5408 163.898 17.5528 163.484 19.0248C163.3 19.6688 163.254 20.3588 163.254 21.0488V33.4688C163.254 33.7908 163.3 33.7908 163.576 33.7908H167.254C167.53 33.7908 167.53 33.7908 167.53 33.4688V22.4288C167.53 22.3424 167.54 22.246 167.551 22.1441L167.551 22.1424C167.563 22.0278 167.576 21.9062 167.576 21.7848C167.668 20.5428 168.266 19.8528 169.461 19.4848C170.059 19.3008 170.702 19.2548 171.346 19.2548H175.759C176.311 19.2548 176.817 19.3008 177.368 19.3928C178.84 19.7148 179.575 20.5888 179.621 22.1068V33.4228C179.621 33.6298 179.621 33.7333 179.673 33.785C179.725 33.8368 179.828 33.8368 180.035 33.8368H183.483C183.521 33.8368 183.556 33.8371 183.589 33.8374C183.75 33.8388 183.838 33.8396 183.886 33.7963C183.943 33.7445 183.943 33.6294 183.943 33.3768Z" fill="#444B50"/>
<path d="M45.3765 15.39C45.5144 15.344 45.6063 15.344 45.7443 15.344H49.1923C49.5141 15.344 49.6521 15.436 49.79 15.712C51.0543 17.966 52.3071 20.2085 53.5599 22.451C54.8127 24.6935 56.0655 26.936 57.3297 29.19C57.3604 29.236 57.3859 29.282 57.4115 29.328C57.4626 29.42 57.5136 29.512 57.6056 29.604C57.6516 29.535 57.6861 29.4774 57.7205 29.4199C57.755 29.3624 57.7895 29.305 57.8355 29.236C60.3181 24.774 62.8007 20.266 65.2833 15.758C65.4672 15.436 65.6511 15.344 65.9729 15.344C66.7102 15.3747 67.4679 15.3644 68.2188 15.3541C68.5917 15.349 68.9629 15.344 69.329 15.344C69.3635 15.344 69.398 15.3411 69.4324 15.3382C69.5359 15.3296 69.6393 15.321 69.7428 15.39C69.7788 15.498 69.7302 15.5779 69.6854 15.6516C69.6729 15.672 69.6608 15.692 69.6508 15.712L60.41 32.272C59.7204 33.514 58.617 33.882 57.2838 33.836C57.0539 33.836 56.824 33.79 56.6401 33.744C55.7206 33.56 55.077 33.054 54.6632 32.226C53.9966 31.007 53.3185 29.788 52.6404 28.569C51.9623 27.35 51.2841 26.131 50.6175 24.912C48.9165 21.876 47.2154 18.794 45.5604 15.758C45.4684 15.666 45.3765 15.574 45.3765 15.39Z" fill="#444B50"/>
<path d="M18.0677 25.9241C17.9757 26.0161 17.8838 26.1081 17.8838 26.2461C19.1251 28.6841 20.3204 31.1681 21.4698 33.5601C21.5617 33.7441 21.6996 33.7901 21.9295 33.7901H31.814C31.8565 33.7901 31.8946 33.7988 31.9298 33.8069C32.0086 33.825 32.0722 33.8395 32.1358 33.7441C32.1128 33.6751 32.0783 33.6061 32.0438 33.5371C32.0094 33.4681 31.9749 33.3991 31.9519 33.3301C31.1874 31.8002 30.4178 30.2652 29.6464 28.7268C28.0987 25.6398 26.5439 22.5388 25.0098 19.4381C24.9178 19.2081 24.7799 18.9321 24.642 18.7021C24.5051 18.7706 24.4191 18.8646 24.3272 18.9651C24.2957 18.9996 24.2635 19.0348 24.2282 19.0701C23.7915 19.553 23.3549 20.0474 22.9182 20.5418C22.4815 21.0363 22.0444 21.5312 21.6077 22.0141C20.4583 23.3021 19.263 24.6361 18.0677 25.9241Z" fill="#444B50"/>
<path d="M41.8365 5.45471V33.5607C41.8365 33.73 41.8365 33.8103 41.7964 33.8484C41.7602 33.8827 41.6915 33.8827 41.5606 33.8827H37.7908C37.5609 33.8827 37.4689 33.7907 37.5149 33.6067V10.6067C37.5149 10.2847 37.6069 10.0547 37.7908 9.82471C39.032 8.44476 40.2734 7.06466 41.5606 5.68471C41.5836 5.63871 41.6181 5.60421 41.6526 5.56971C41.6871 5.53521 41.7215 5.50071 41.7445 5.45471H41.8365Z" fill="#444B50"/>
<path d="M97.3732 20.3583V33.4223C97.3732 33.6754 97.3617 33.7904 97.4134 33.8421C97.4651 33.8938 97.5801 33.8823 97.8329 33.8823H101.281C101.558 33.8823 101.684 33.9055 101.741 33.8531C101.798 33.801 101.787 33.6744 101.787 33.3763V21.4623C101.787 21.1403 101.833 20.8183 101.879 20.4963C102.063 19.4843 102.844 18.7483 103.856 18.6563C104.683 18.595 105.511 18.5745 106.338 18.5541C106.752 18.5439 107.166 18.5337 107.579 18.5183H110.798C111.119 18.5183 111.119 18.5183 111.119 18.1963V15.6663C111.119 15.4823 111.073 15.3443 110.844 15.3903H104.545C103.718 15.3903 102.936 15.3903 102.108 15.5283C101.189 15.6663 100.316 15.8963 99.488 16.3563C98.5685 16.8623 97.9249 17.6443 97.603 18.6563C97.4191 19.2083 97.3732 19.8063 97.3732 20.3583Z" fill="#444B50"/>
</svg>
