<svg width="181" height="40" viewBox="0 0 181 40" fill="none" xmlns="http://www.w3.org/2000/svg">
<path d="M58.7628 7.28101C58.7628 9.17526 57.1778 10.7603 55.2836 10.7603C53.3893 10.7603 51.8043 9.17526 51.8043 7.28101C51.8043 5.38675 53.3893 3.80176 55.2836 3.80176C57.1778 3.80176 58.7628 5.38675 58.7628 7.28101Z" fill="#1A2033"/>
<path d="M58.1829 12.4612V31.7904H52.3842V12.4612H58.1829Z" fill="#1A2033"/>
<path d="M168.73 4.18927V9.75607C166.565 9.56277 165.134 10.22 165.134 12.4621L170.886 12.462V8.78943L176.685 7.0498V12.462H180.667V18.0288H176.685V24.8713C176.685 26.5336 178.115 26.6882 180.667 26.5336V31.7911C173.09 32.5643 170.886 30.2834 170.886 24.8713V18.0288L165.134 18.0289V31.7913H159.336V18.0289H156.745V12.4621H159.336C159.336 7.04999 162.312 3.80269 168.73 4.18927Z" fill="#1A2033"/>
<path fill-rule="evenodd" clip-rule="evenodd" d="M145.535 32.3315C151.218 32.3315 155.779 27.8858 155.779 22.1257C155.779 16.3656 151.218 11.9199 145.535 11.9199C139.852 11.9199 135.29 16.3656 135.29 22.1257C135.29 27.8858 139.852 32.3315 145.535 32.3315ZM145.535 26.6874C143.022 26.6874 141.089 24.8704 141.089 22.1257C141.089 19.381 143.022 17.564 145.535 17.564C148.048 17.564 149.981 19.381 149.981 22.1257C149.981 24.8704 148.048 26.6874 145.535 26.6874Z" fill="#1A2033"/>
<path d="M125.989 17.0228C124.984 17.0228 124.366 17.4094 124.366 18.1052C124.366 18.8918 125.577 19.2104 127.136 19.6202C129.943 20.3584 133.876 21.3925 133.876 25.9915C133.876 30.4372 130.01 32.3315 125.835 32.3315C121.969 32.3315 119.031 30.8625 117.523 27.7312L122.549 24.8705C123.051 26.3395 124.134 27.1513 125.835 27.1513C127.226 27.1513 127.922 26.726 127.922 25.9529C127.922 25.1863 126.686 24.8418 125.105 24.4013C122.301 23.62 118.412 22.5365 118.412 18.2599C118.412 14.0461 121.969 11.9199 125.989 11.9199C129.121 11.9199 131.904 13.3116 133.528 16.0564L128.579 18.7238C128.038 17.7187 127.265 17.0228 125.989 17.0228Z" fill="#1A2033"/>
<path fill-rule="evenodd" clip-rule="evenodd" d="M106.506 32.3315C112.188 32.3315 116.75 27.8858 116.75 22.1257C116.75 16.3656 112.188 11.9199 106.506 11.9199C100.823 11.9199 96.2611 16.3656 96.2611 22.1257C96.2611 27.8858 100.823 32.3315 106.506 32.3315ZM106.506 26.6874C103.993 26.6874 102.06 24.8704 102.06 22.1257C102.06 19.381 103.993 17.564 106.506 17.564C109.018 17.564 110.951 19.381 110.951 22.1257C110.951 24.8704 109.018 26.6874 106.506 26.6874Z" fill="#1A2033"/>
<path d="M94.7542 12.462V18.0288H90.7724V24.8713C90.7724 26.5336 92.2027 26.6882 94.7542 26.5336V31.7911C87.1772 32.5643 84.9736 30.2834 84.9736 24.8713V18.0288H81.881V12.462H84.9736V8.78943L90.7724 7.0498V12.462H94.7542Z" fill="#1A2033"/>
<path d="M73.1178 11.9199C70.5663 11.9199 68.6334 12.8477 67.5896 14.2781V12.4611H61.7909V31.7903H67.5896V21.2366C67.5896 18.4918 69.0587 17.2548 71.1849 17.2548C73.0405 17.2548 74.5481 18.3759 74.5481 20.7727V31.7903H80.3469V19.9222C80.3469 14.7033 77.0223 11.9199 73.1178 11.9199Z" fill="#1A2033"/>
<path fill-rule="evenodd" clip-rule="evenodd" d="M11.5507 6.47588C11.1337 4.39092 12.1142 2.21673 14.1412 1.57454C20.8024 -0.5359 28.3812 1.04998 33.6634 6.33219C41.2119 13.8807 41.2119 26.1192 33.6634 33.6677C26.1149 41.2162 13.8764 41.2162 6.32788 33.6677C1.21395 28.5538 -0.435414 21.2873 1.37979 14.7848C1.96547 12.6867 4.1867 11.6441 6.32269 12.0713L9.38042 12.6828C11.071 13.0209 12.5616 11.5304 12.2235 9.83974L11.5507 6.47588ZM14.8702 25.1254C17.7009 27.9561 22.2904 27.9561 25.1211 25.1254C27.9518 22.2947 27.9518 17.7052 25.1211 14.8745C22.2904 12.0439 17.7009 12.0439 14.8702 14.8745C12.0395 17.7052 12.0395 22.2947 14.8702 25.1254Z" fill="#0F49FF"/>
</svg>
