<svg width="190" height="42" viewBox="0 0 190 42" fill="none" xmlns="http://www.w3.org/2000/svg">
<path d="M1.66675 35.3006C3.17271 34.8331 5.07586 34.2422 6.21658 33.6006C3.41658 30.1006 1.81658 25.6006 1.81658 20.9006C1.81658 9.40059 11.1166 0.100586 22.6166 0.100586C28.7166 0.100586 34.2166 2.60059 38.0166 6.70059C26.3166 3.60059 9.11658 5.40059 8.21658 13.3006C7.70513 17.2217 11.3353 19.4716 15.2671 21.9084C15.9479 22.3303 16.6377 22.7578 17.3166 23.2006C20.6166 25.2006 23.5166 27.2006 23.4166 30.7006C23.2166 37.8006 5.61658 36.4006 0.116577 35.8006C0.518453 35.6571 1.06041 35.4888 1.66675 35.3006Z" fill="#5176B9"/>
<path d="M30.4167 8.30011C35.9167 8.00011 42.2167 8.90011 47.0167 10.2001C45.7167 10.3001 42.3167 11.2001 41.4167 12.1001C42.7167 14.8001 43.4167 17.8001 43.4167 21.1001C43.4167 32.6001 34.1167 41.9001 22.6167 41.9001C18.6167 41.9001 14.9167 40.7001 11.7167 38.8001C23.9167 39.4001 33.3167 34.9001 33.4167 30.6001C33.4912 26.5025 27.7375 23.5704 22.6482 20.977C20.9064 20.0894 19.2425 19.2415 17.9167 18.4001C15.9167 17.2001 14.6167 15.9001 15.0167 14.5001C16.0167 10.8001 22.7167 8.50011 30.4167 8.30011Z" fill="#5176B9"/>
<path fill-rule="evenodd" clip-rule="evenodd" d="M64.8165 30.8004C62.1165 30.8004 59.8165 29.9004 57.8165 28.1004L59.6165 26.0004C61.3165 27.5004 63.0165 28.2004 64.9165 28.2004C65.8165 28.2004 66.5165 28.0004 67.1165 27.6004C67.6165 27.2004 67.9165 26.7004 67.9165 26.0004C67.9165 25.4004 67.6165 24.9004 67.1165 24.5004C66.6165 24.1004 65.6165 23.8004 64.1165 23.4004C62.1165 22.9004 60.7165 22.3004 59.8165 21.6004C58.9165 20.9004 58.5165 19.8004 58.5165 18.3004C58.5165 16.9004 59.0165 15.7004 60.1165 14.8004C61.2165 13.9004 62.5165 13.4004 64.2165 13.4004C66.5165 13.4004 68.5165 14.1004 70.3165 15.5004L68.7165 17.7004C67.1165 16.5004 65.6165 16.0004 64.1165 16.0004C63.3165 16.0004 62.6165 16.2004 62.1165 16.6004C61.6165 17.0004 61.4165 17.5004 61.4165 18.1004C61.4165 18.8004 61.7165 19.3004 62.2165 19.6004C62.7165 20.0004 63.8165 20.3004 65.4165 20.7004C67.3165 21.1004 68.6165 21.7004 69.5165 22.5004C70.4165 23.3004 70.8165 24.3004 70.8165 25.7004C70.8165 27.3004 70.2165 28.5004 69.1165 29.4004C68.0165 30.4004 66.6165 30.8004 64.8165 30.8004ZM75.7165 30.6004V13.8004H78.8165L83.9165 21.7004L89.0165 13.8004H92.1165V30.6004H89.1165V18.6004L83.8165 26.5004H83.7165L78.4165 18.6004V30.6004H75.7165ZM96.5165 30.6004L103.917 13.7004H106.617L114.017 30.6004H110.917L109.217 26.5004H101.317L99.6165 30.6004H96.5165ZM102.417 23.9004H108.217L105.317 17.2004L102.417 23.9004ZM118.317 30.6004V13.8004H125.817C127.817 13.8004 129.317 14.3004 130.417 15.3004C131.517 16.3004 132.117 17.6004 132.117 19.2004C132.117 20.5004 131.717 21.6004 131.017 22.5004C130.317 23.4004 129.317 24.0004 128.117 24.3004L132.617 30.7004H129.117L124.917 24.8004H121.317V30.7004H118.317V30.6004ZM121.317 22.1004H125.617C126.717 22.1004 127.517 21.8004 128.117 21.3004C128.717 20.8004 129.017 20.1004 129.017 19.2004C129.017 18.3004 128.717 17.6004 128.117 17.1004C127.517 16.6004 126.617 16.4004 125.517 16.4004H121.217V22.1004H121.317ZM141.317 30.6004V16.5004H136.017V13.8004H149.617V16.5004H144.317V30.6004H141.317ZM159.117 30.6004V24.0004L152.417 13.8004H155.917L160.617 21.2004L165.417 13.8004H168.817L162.117 23.9004V30.6004H159.117ZM172.817 30.6004V13.8004H175.917L181.017 21.7004L186.117 13.8004H189.217V30.6004H186.217V18.6004L180.917 26.5004H180.817L175.517 18.6004V30.6004H172.817Z" fill="black"/>
</svg>
