<svg width="231" height="36" viewBox="0 0 231 36" fill="none" xmlns="http://www.w3.org/2000/svg">
<path d="M27.1067 11.0306C22.8391 11.0306 19.5598 14.0019 19.5598 17.9782C19.5598 21.9544 22.7493 25.0131 26.9719 25.0131C29.0383 25.0131 31.1946 24.0518 32.677 22.5662L30.7903 20.5999C29.7571 21.6049 28.3645 22.2166 27.1067 22.2166C24.6809 22.2166 22.7942 20.3814 22.7942 17.9782C22.7942 15.5749 24.6809 13.7397 27.1067 13.7397C28.4094 13.7397 29.802 14.4388 30.7903 15.5312L32.6321 13.3465C31.2844 11.9045 29.1282 11.0306 27.1067 11.0306ZM0.333252 0.5H230.333V35.5H0.333252V0.5ZM228.851 1.94194H1.81567V34.058H228.806V1.94194H228.851ZM53.4309 11.118H50.2414V19.1142C50.2414 21.0805 48.9836 22.304 47.0969 22.304C45.2102 22.304 43.8626 21.1242 43.8626 19.1142V11.118H40.6731V19.1142C40.6731 22.7409 43.1887 25.0131 47.0969 25.0131C51.0051 25.0131 53.4309 22.7409 53.4309 19.1142V11.118ZM67.8059 10.9869C64.5266 10.9869 62.3254 12.5599 62.3254 15.0506C62.3254 19.9444 69.8723 18.4151 69.8723 20.9931C69.8723 21.8234 69.0637 22.304 67.761 22.304C66.2786 22.304 64.2122 21.5175 62.7297 20.2503L61.4719 22.7846C63.0891 24.0955 65.3801 24.9694 67.7161 24.9694C70.8606 24.9694 73.2414 23.5275 73.2414 20.8184C73.2414 15.8808 65.7395 17.279 65.7395 14.7447C65.7395 14.0019 66.4582 13.6086 67.5364 13.6086C68.6594 13.6086 70.4563 14.1767 71.9387 15.0069L73.1516 12.4288C71.759 11.5986 69.7825 10.9869 67.8059 10.9869ZM92.2434 13.7397V11.118H80.4289V13.7397H84.7415V24.882H87.9309V13.7397H92.2434ZM106.124 11.0306C101.812 11.0306 98.5325 14.0019 98.5325 18.0218C98.5325 21.9981 101.812 25.0568 106.124 25.0568C110.437 25.0568 113.716 21.9981 113.716 18.0218C113.716 14.0019 110.437 11.0306 106.124 11.0306ZM106.169 13.7397C108.55 13.7397 110.437 15.5749 110.437 18.0218C110.437 20.4251 108.505 22.3477 106.169 22.3477C103.788 22.3477 101.812 20.4688 101.812 18.0218C101.812 15.5749 103.788 13.7397 106.169 13.7397ZM137.525 24.882V11.118H133.976L129.888 19.5512L125.755 11.118H122.161V24.882H125.036V15.6186L128.81 23.4838H130.876L134.65 15.6186V24.882H137.525ZM156.347 22.2166L157.47 24.882H160.884L154.82 11.118H151.54L145.386 24.882H148.665L149.788 22.2166H156.347ZM155.314 19.726H150.866L153.113 14.3951L155.314 19.726ZM177.64 13.7397V11.118H165.825V13.7397H170.138V24.882H173.327V13.7397H177.64ZM188.87 24.882V11.118H185.681V24.882H188.87ZM205.986 17.716L210.702 11.118H206.929L203.964 15.3127L200.999 11.118H197.271L201.988 17.8471L196.911 24.882H200.64L203.919 20.294L207.243 24.882H211.062L205.986 17.716Z" fill="#11181F"/>
</svg>
