<svg width="68" height="56" viewBox="0 0 68 56" fill="none" xmlns="http://www.w3.org/2000/svg">
<path d="M44.4208 30.5028C46.7783 28.4644 49.8514 27.2314 53.2125 27.2314C60.6401 27.2314 66.6613 33.2527 66.6613 40.6802C66.6613 48.1078 60.6401 54.129 53.2125 54.129C45.785 54.129 39.7637 48.1078 39.7637 40.6802L39.7637 39.5V29.1503C39.7637 25.967 37.1832 23.3889 34 23.3889C30.8167 23.3889 28.2362 25.9694 28.2362 29.1527V39.5V40.6802C28.2362 48.1078 22.215 54.129 14.7874 54.129C7.35985 54.129 1.33862 48.1078 1.33862 40.6802C1.33862 33.2527 7.35985 27.2314 14.7874 27.2314C18.1485 27.2314 21.2217 28.4644 23.5792 30.5028" stroke="white" stroke-width="2"/>
<path d="M60.5132 24.9259L54.3652 8.40312C52.8282 4.17636 50.5402 1.87085 46.2959 1.87085C43.6377 1.87085 41.2948 3.22039 39.9149 5.27169C38.514 7.35406 36.5764 9.55587 34.0667 9.55587H33.0667C30.611 9.55587 28.7151 7.40798 27.3704 5.35322C25.9981 3.25623 23.6285 1.87085 20.9353 1.87085C16.691 1.87085 14.403 4.17636 12.866 8.40312L6.71802 24.9259" stroke="white" stroke-width="2"/>
</svg>
