<svg width="226" height="40" viewBox="0 0 226 40" fill="none" xmlns="http://www.w3.org/2000/svg">
<path d="M73.1622 32.4157C69.6885 32.4161 66.3543 31.0479 63.881 28.6072C61.4078 26.1665 59.9943 22.8496 59.9465 19.3742C59.9943 15.8987 61.4078 12.5818 63.881 10.1411C66.3543 7.70047 69.6885 6.33229 73.1622 6.33262C74.8161 6.30637 76.4585 6.61097 77.993 7.22852C79.5276 7.84607 80.9234 8.76414 82.0986 9.92883L79.6512 12.4336C77.9304 10.7716 75.6236 9.85637 73.2322 9.88685C71.9947 9.88674 70.7695 10.1326 69.6279 10.6102C68.4862 11.0878 67.4507 11.7876 66.5816 12.669C65.7124 13.5504 65.0269 14.5957 64.5649 15.7444C64.1029 16.8931 63.8736 18.1221 63.8903 19.3602C63.8736 20.5983 64.1029 21.8273 64.5649 22.976C65.0269 24.1246 65.7124 25.17 66.5816 26.0513C67.4507 26.9327 68.4862 27.6325 69.6279 28.1101C70.7695 28.5877 71.9947 28.8336 73.2322 28.8335C74.4509 28.8844 75.6668 28.6791 76.8013 28.2308C77.9359 27.7825 78.9639 27.1012 79.819 26.2308C80.9526 24.9999 81.6375 23.4221 81.7629 21.753H73.1622V18.1988H85.1473C85.2843 18.9323 85.3498 19.6775 85.3431 20.4237C85.4615 23.5183 84.3561 26.535 82.2664 28.8195C81.0899 30.0298 79.6699 30.9762 78.1004 31.5962C76.5309 32.2162 74.8477 32.4955 73.1622 32.4157Z" fill="#B2CFDB"/>
<path fill-rule="evenodd" clip-rule="evenodd" d="M201.655 32.415C200.655 32.4125 199.666 32.1951 198.756 31.7775C197.847 31.3599 197.037 30.7517 196.383 29.9942C194.892 28.3627 194.095 26.2148 194.159 24.0052C194.095 21.7956 194.892 19.6477 196.383 18.0162C197.039 17.2612 197.849 16.6558 198.758 16.2406C199.668 15.8254 200.656 15.6102 201.655 15.6094C202.78 15.5906 203.891 15.8552 204.886 16.379C205.759 16.8197 206.498 17.4865 207.025 18.3101H207.151L207.025 16.1271V8.86475H209.99V31.8973H207.193V29.7144H207.067C206.54 30.5379 205.801 31.2047 204.928 31.6454C203.92 32.1755 202.794 32.4404 201.655 32.415ZM202.145 29.7144C202.812 29.724 203.474 29.5918 204.086 29.3265C204.698 29.0611 205.247 28.6687 205.697 28.1751C206.7 27.0161 207.203 25.5065 207.095 23.9772C207.203 22.4479 206.7 20.9383 205.697 19.7793C205.245 19.2896 204.697 18.8988 204.087 18.6316C203.477 18.3643 202.818 18.2263 202.152 18.2263C201.486 18.2263 200.827 18.3643 200.217 18.6316C199.607 18.8988 199.058 19.2896 198.607 19.7793C198.094 20.3457 197.699 21.0086 197.444 21.7293C197.19 22.45 197.081 23.2141 197.124 23.9772C197.081 24.7403 197.19 25.5044 197.444 26.2251C197.699 26.9458 198.094 27.6087 198.607 28.1751C199.054 28.6669 199.601 29.0583 200.211 29.3236C200.821 29.5889 201.48 29.7221 202.145 29.7144Z" fill="#B2CFDB"/>
<path fill-rule="evenodd" clip-rule="evenodd" d="M172.679 31.8983L181.364 8.86572H184.706L193.391 31.9123H190.132L187.895 25.6574H178.217L175.965 31.8983H172.679ZM179.196 22.8588H186.846L183.14 12.4899H183.014L179.196 22.8588Z" fill="#B2CFDB"/>
<path d="M214.801 31.1282C216.074 32.0261 217.608 32.4786 219.164 32.4155C220.795 32.4995 222.402 31.9983 223.695 31.0022C224.233 30.5766 224.664 30.0309 224.953 29.4088C225.242 28.7868 225.381 28.1056 225.36 27.42C225.355 26.3893 224.977 25.3953 224.297 24.6214C223.421 23.6929 222.268 23.0742 221.01 22.8583L217.892 22.1166C216.493 21.8274 215.794 21.2164 215.794 20.2836C215.793 19.9779 215.876 19.6779 216.033 19.4163C216.191 19.1546 216.418 18.9415 216.689 18.8003C217.365 18.4156 218.135 18.2267 218.913 18.2546C219.66 18.1698 220.414 18.3282 221.064 18.7062C221.714 19.0843 222.225 19.662 222.521 20.3535L225.094 19.29C224.641 18.1715 223.822 17.2394 222.772 16.6454C221.635 16.0006 220.346 15.672 219.038 15.6938C217.474 15.6539 215.937 16.1093 214.647 16.9952C214.075 17.3576 213.606 17.8602 213.283 18.4553C212.96 19.0504 212.794 19.7183 212.801 20.3955C212.786 20.957 212.905 21.5141 213.148 22.0204C213.391 22.5266 213.752 22.9674 214.2 23.3061C215.024 23.9626 215.977 24.4393 216.997 24.7054L220.185 25.475C221.621 25.8388 222.339 26.5338 222.339 27.5599C222.342 27.8812 222.263 28.1979 222.109 28.4797C221.954 28.7615 221.73 28.9989 221.458 29.1691C220.784 29.6022 219.993 29.8172 219.192 29.7848C218.255 29.8161 217.333 29.5445 216.562 29.0101C215.791 28.4758 215.213 27.7072 214.913 26.8183L212.27 27.9098C212.804 29.1934 213.68 30.3064 214.801 31.1282Z" fill="#B2CFDB"/>
<path fill-rule="evenodd" clip-rule="evenodd" d="M101.45 29.8722C103.001 28.32 103.873 26.2148 103.873 24.0196C103.873 21.8244 103.001 19.7191 101.45 18.1669C99.8989 16.6147 97.7949 15.7427 95.6009 15.7427C93.407 15.7427 91.303 16.6147 89.7517 18.1669C88.2004 19.7191 87.3289 21.8244 87.3289 24.0196C87.3289 26.2148 88.2004 28.32 89.7517 29.8722C91.303 31.4245 93.407 32.2965 95.6009 32.2965C97.7949 32.2965 99.8989 31.4245 101.45 29.8722ZM100.032 22.0999C100.238 22.7176 100.312 23.3714 100.251 24.0196C100.312 24.6677 100.238 25.3216 100.032 25.9393C99.8268 26.557 99.4944 27.1248 99.0566 27.6065C98.6189 28.0882 98.0853 28.473 97.4902 28.7364C96.8951 28.9997 96.2516 29.1357 95.6009 29.1357C94.9502 29.1357 94.3067 28.9997 93.7117 28.7364C93.1166 28.473 92.583 28.0882 92.1453 27.6065C91.7075 27.1248 91.3751 26.557 91.1694 25.9393C90.9638 25.3216 90.8894 24.6677 90.951 24.0196C90.8894 23.3714 90.9638 22.7176 91.1694 22.0999C91.3751 21.4822 91.7075 20.9143 92.1453 20.4326C92.583 19.951 93.1166 19.5661 93.7117 19.3028C94.3067 19.0395 94.9502 18.9034 95.6009 18.9034C96.2516 18.9034 96.8951 19.0395 97.4902 19.3028C98.0853 19.5661 98.6189 19.951 99.0566 20.4326C99.4944 20.9143 99.8268 21.4822 100.032 22.0999Z" fill="#B2CFDB"/>
<path fill-rule="evenodd" clip-rule="evenodd" d="M122.417 24.0196C122.417 26.2148 121.545 28.32 119.994 29.8722C118.443 31.4245 116.339 32.2965 114.145 32.2965C111.951 32.2965 109.847 31.4245 108.296 29.8722C106.744 28.32 105.873 26.2148 105.873 24.0196C105.873 21.8244 106.744 19.7191 108.296 18.1669C109.847 16.6147 111.951 15.7427 114.145 15.7427C116.339 15.7427 118.443 16.6147 119.994 18.1669C121.545 19.7191 122.417 21.8244 122.417 24.0196ZM118.795 24.0196C118.856 23.3714 118.782 22.7176 118.576 22.0999C118.371 21.4822 118.038 20.9143 117.601 20.4326C117.163 19.951 116.629 19.5661 116.034 19.3028C115.439 19.0395 114.796 18.9034 114.145 18.9034C113.494 18.9034 112.851 19.0395 112.256 19.3028C111.661 19.5661 111.127 19.951 110.689 20.4326C110.251 20.9143 109.919 21.4822 109.713 22.0999C109.508 22.7176 109.433 23.3714 109.495 24.0196C109.433 24.6677 109.508 25.3216 109.713 25.9393C109.919 26.557 110.251 27.1248 110.689 27.6065C111.127 28.0882 111.661 28.473 112.256 28.7364C112.851 28.9997 113.494 29.1357 114.145 29.1357C114.796 29.1357 115.439 28.9997 116.034 28.7364C116.629 28.473 117.163 28.0882 117.601 27.6065C118.038 27.1248 118.371 26.557 118.576 25.9393C118.782 25.3216 118.856 24.6677 118.795 24.0196Z" fill="#B2CFDB"/>
<path fill-rule="evenodd" clip-rule="evenodd" d="M140.485 31.2543V16.1278L136.989 16.0859V17.4852H136.849C136.288 16.876 135.604 16.3937 134.842 16.0703C134.08 15.747 133.257 15.5901 132.43 15.6101C130.204 15.6101 128.07 16.4947 126.496 18.0692C124.923 19.6437 124.039 21.7792 124.039 24.0059C124.039 26.2327 124.923 28.3682 126.496 29.9427C128.07 31.5172 130.204 32.4018 132.43 32.4018C133.26 32.4248 134.086 32.2664 134.849 31.9378C135.612 31.6091 136.295 31.118 136.849 30.4987H136.975V31.7021C136.975 34.9065 135.283 36.6277 132.486 36.6277C131.569 36.599 130.681 36.2992 129.935 35.7663C129.188 35.2334 128.616 34.4911 128.29 33.6332L125.074 35.0325C125.678 36.5078 126.709 37.7688 128.035 38.6539C129.361 39.539 130.92 40.0077 132.514 40C136.835 40 140.485 37.4533 140.485 31.2543ZM137.024 22.1816C137.22 22.7829 137.294 23.4176 137.241 24.0479C137.29 24.6739 137.213 25.3034 137.015 25.899C136.816 26.4947 136.5 27.0445 136.086 27.5156C135.671 27.9868 135.166 28.3698 134.6 28.6418C134.035 28.9139 133.42 29.0695 132.793 29.0994C132.153 29.0816 131.523 28.9359 130.939 28.671C130.356 28.4061 129.831 28.0272 129.396 27.5567C128.961 27.0862 128.624 26.5334 128.405 25.9309C128.187 25.3283 128.091 24.6882 128.122 24.0479C128.087 23.4033 128.18 22.758 128.396 22.1498C128.613 21.5416 128.948 20.9827 129.383 20.5059C129.818 20.029 130.344 19.6437 130.929 19.3725C131.515 19.1013 132.149 18.9496 132.793 18.9265C133.425 18.9616 134.042 19.1231 134.61 19.4015C135.178 19.6798 135.684 20.0692 136.099 20.5467C136.513 21.0243 136.828 21.5802 137.024 22.1816Z" fill="#B2CFDB"/>
<path d="M146.947 7.22803V31.8978H143.255V7.22803H146.947Z" fill="#B2CFDB"/>
<path fill-rule="evenodd" clip-rule="evenodd" d="M164.246 28.6935L161.449 26.7905C161.019 27.5057 160.409 28.0961 159.681 28.5035C158.952 28.9109 158.13 29.1211 157.296 29.1133C156.44 29.1465 155.595 28.9213 154.869 28.4671C154.143 28.0129 153.571 27.3507 153.226 26.5666L164.414 21.9209L164.036 20.9694C163.532 19.4478 162.571 18.1185 161.285 17.1622C159.999 16.2059 158.45 15.6688 156.848 15.624C152.513 15.624 149.045 19.0243 149.045 24.0199C149.007 25.1173 149.192 26.211 149.589 27.2347C149.985 28.2585 150.586 29.1911 151.353 29.976C152.12 30.7609 153.039 31.3818 154.053 31.8012C155.068 32.2205 156.156 32.4296 157.254 32.4157C158.635 32.4193 159.997 32.0814 161.216 31.4321C162.436 30.7827 163.477 29.842 164.246 28.6935ZM160.135 20.6475L152.639 23.768C152.599 23.1576 152.681 22.5454 152.881 21.9671C153.08 21.3889 153.393 20.8562 153.8 20.4003C154.208 19.9443 154.702 19.5742 155.254 19.3115C155.806 19.0488 156.405 18.8989 157.016 18.8704C157.653 18.8268 158.289 18.9721 158.843 19.2882C159.398 19.6043 159.847 20.0772 160.135 20.6475Z" fill="#B2CFDB"/>
<path opacity="0.5" d="M14.4287 3.25365L1.35986 25.9028L12.6839 32.4446L25.7528 9.79541L14.4287 3.25365Z" fill="#B2CFDB"/>
<path d="M38.8294 25.895L25.7536 3.2682C24.8875 1.76702 23.461 0.67157 21.7877 0.22283C20.1144 -0.225909 18.3315 0.00882125 16.8312 0.875384C15.3309 1.74195 14.2361 3.16936 13.7876 4.8436C13.3392 6.51785 13.5738 8.30178 14.4398 9.80296L27.5157 32.4577C28.3817 33.9589 29.8083 35.0543 31.4816 35.5031C33.1548 35.9518 34.9377 35.7171 36.438 34.8505C37.9383 33.984 39.0331 32.5566 39.4816 30.8823C39.9301 29.2081 39.6955 27.4241 38.8294 25.923V25.895Z" fill="#B2CFDB"/>
<path d="M7.02778 35.7043C10.6347 35.7043 13.5587 32.7786 13.5587 29.1695C13.5587 25.5605 10.6347 22.6348 7.02778 22.6348C3.42083 22.6348 0.496826 25.5605 0.496826 29.1695C0.496826 32.7786 3.42083 35.7043 7.02778 35.7043Z" fill="#B2CFDB"/>
</svg>
