<svg width="142" height="40" viewBox="0 0 142 40" fill="none" xmlns="http://www.w3.org/2000/svg">
<path d="M15.9732 6.62207V17.9009H5.59483V6.62207H0.667603V33.5456H5.59483V22.6331H15.9732V33.5456H20.9004V6.62207H15.9732Z" fill="#B2CFDB"/>
<path d="M36.6693 24.8419C36.6693 25.9209 36.2399 26.9557 35.4754 27.7187C34.711 28.4816 33.6742 28.9103 32.5931 28.9103C31.5121 28.9103 30.4752 28.4816 29.7108 27.7187C28.9463 26.9557 28.5169 25.9209 28.5169 24.8419V13.3101H23.8431V24.8419C23.8431 27.1558 24.7641 29.375 26.4035 31.0112C28.0428 32.6474 30.2663 33.5666 32.5847 33.5666C34.903 33.5666 37.1265 32.6474 38.7659 31.0112C40.4052 29.375 41.3262 27.1558 41.3262 24.8419V13.3101H36.6693V24.8419Z" fill="#B2CFDB"/>
<path d="M71.2977 14.4982C71.2977 12.1345 72.8645 11.3851 74.5809 11.3851C75.9642 11.3851 77.7917 12.4357 78.9866 13.7103L82.0478 10.1105C80.5196 8.04799 77.4199 6.62158 74.8827 6.62158C69.813 6.62158 66.146 9.58524 66.146 14.4982C66.146 23.6133 77.3088 20.7219 77.3088 25.8227C77.3088 27.3961 75.7783 28.7864 74.0257 28.7864C71.2615 28.7864 70.3659 27.4371 69.096 26.0107L65.6993 29.5358C67.8721 32.1982 70.5517 33.5499 73.7625 33.5499C78.5787 33.5499 82.4533 30.5501 82.4533 25.8613C82.4533 15.7415 71.2905 18.8859 71.2905 14.4982" fill="#B2CFDB"/>
<path d="M140.356 29.2441C137.594 29.2441 136.81 28.0514 136.81 26.225V18.1412H141.102V14.0451H136.81V8.64062L132.071 10.7634V27.2297C132.071 31.4415 134.982 33.5643 138.975 33.5643C139.601 33.5756 140.227 33.5256 140.844 33.4149L142 29.167C141.479 29.2031 140.88 29.2392 140.356 29.2392" fill="#B2CFDB"/>
<path d="M54.4591 13.4449C52.144 13.4449 50.5289 14.1148 48.967 15.6448V6.78271H44.286V23.2081C44.286 29.3571 48.7401 33.5689 53.7446 33.5689C59.297 33.5689 64.1808 29.2824 64.1808 23.5093C64.1808 17.8085 59.6857 13.4473 54.4591 13.4473V13.4449ZM54.4302 28.868C53.3797 28.868 52.3529 28.5571 51.4795 27.9746C50.6061 27.3922 49.9254 26.5643 49.5234 25.5957C49.1214 24.6271 49.0162 23.5613 49.2211 22.533C49.4261 21.5047 49.9319 20.5602 50.6747 19.8189C51.4174 19.0775 52.3638 18.5727 53.394 18.3681C54.4243 18.1636 55.4921 18.2686 56.4626 18.6698C57.4331 19.071 58.2626 19.7504 58.8462 20.6221C59.4297 21.4939 59.7412 22.5187 59.7412 23.5671C59.7412 24.973 59.1817 26.3213 58.1857 27.3154C57.1896 28.3095 55.8387 28.868 54.4302 28.868Z" fill="#B2CFDB"/>
<path d="M105.286 23.2637C105.286 17.4809 100.412 13.2041 94.8498 13.2041C89.8453 13.2041 85.3912 17.4159 85.3912 23.5649V39.9999H90.0722V31.1258C91.6317 32.6534 93.2492 33.3257 95.5619 33.3257C100.789 33.3257 105.284 28.9669 105.284 23.2637H105.286ZM100.854 23.2059C100.854 24.2543 100.542 25.2791 99.9586 26.1508C99.375 27.0226 98.5455 27.702 97.5751 28.1032C96.6046 28.5044 95.5367 28.6094 94.5065 28.4049C93.4762 28.2003 92.5299 27.6955 91.7871 26.9541C91.0444 26.2128 90.5385 25.2683 90.3336 24.24C90.1287 23.2117 90.2339 22.1459 90.6358 21.1773C91.0378 20.2087 91.7186 19.3808 92.592 18.7984C93.4654 18.2159 94.4922 17.905 95.5426 17.905C96.9512 17.905 98.3021 18.4635 99.2981 19.4576C100.294 20.4517 100.854 21.8 100.854 23.2059Z" fill="#B2CFDB"/>
<path opacity="0.5" d="M120.408 12.9775V8.28379C121.03 7.99396 121.556 7.53391 121.926 6.95719C122.295 6.38048 122.493 5.71082 122.496 5.02617V4.91775C122.496 3.9592 122.115 3.03991 121.436 2.36211C120.757 1.68431 119.836 1.30353 118.875 1.30353H118.767C117.806 1.30353 116.885 1.68431 116.206 2.36211C115.527 3.03991 115.145 3.9592 115.145 4.91775V5.02617C115.149 5.71082 115.347 6.38048 115.716 6.95719C116.086 7.53391 116.612 7.99396 117.234 8.28379V12.9775C115.447 13.2502 113.765 13.9891 112.357 15.1195L99.4608 5.09364C99.5521 4.76302 99.6008 4.42215 99.6057 4.07925C99.6071 3.27378 99.3692 2.48598 98.9219 1.81549C98.4747 1.14501 97.8383 0.621958 97.0932 0.312506C96.3481 0.00305533 95.5278 -0.078897 94.7361 0.0770154C93.9443 0.232928 93.2167 0.6197 92.6452 1.18841C92.0737 1.75712 91.684 2.48222 91.5254 3.272C91.3669 4.06177 91.4466 4.88074 91.7544 5.6253C92.0623 6.36987 92.5844 7.0066 93.2549 7.45493C93.9253 7.90327 94.7139 8.14309 95.521 8.14404C96.2267 8.14089 96.9192 7.95314 97.5295 7.5995L110.23 17.4615C109.089 19.1818 108.494 21.2054 108.522 23.2684C108.55 25.3314 109.2 27.3382 110.387 29.027L106.525 32.8822C106.212 32.7826 105.887 32.7298 105.559 32.7256C104.896 32.726 104.249 32.9225 103.698 33.2902C103.148 33.6578 102.718 34.1802 102.465 34.7912C102.212 35.4022 102.146 36.0744 102.275 36.723C102.404 37.3715 102.723 37.9672 103.192 38.4347C103.66 38.9023 104.257 39.2208 104.907 39.3499C105.557 39.479 106.23 39.413 106.843 39.1602C107.455 38.9073 107.978 38.479 108.346 37.9294C108.715 37.3798 108.912 36.7336 108.912 36.0723C108.908 35.7451 108.855 35.4203 108.755 35.1085L112.577 31.2943C113.823 32.2514 115.272 32.9111 116.813 33.223C118.354 33.5349 119.946 33.4906 121.467 33.0935C122.989 32.6964 124.399 31.9572 125.589 30.9323C126.78 29.9074 127.72 28.6241 128.337 27.1806C128.954 25.7372 129.232 24.172 129.15 22.6048C129.067 21.0376 128.626 19.51 127.861 18.1391C127.096 16.7682 126.026 15.5903 124.734 14.6956C123.443 13.8009 121.963 13.2132 120.408 12.9775ZM118.825 28.4126C117.779 28.4116 116.758 28.1014 115.889 27.5211C115.02 26.9408 114.343 26.1165 113.944 25.1524C113.544 24.1882 113.44 23.1275 113.644 22.1043C113.849 21.0811 114.352 20.1413 115.092 19.4037C115.831 18.6662 116.773 18.1639 117.798 17.9604C118.824 17.7569 119.886 17.8613 120.852 18.2605C121.818 18.6597 122.643 19.3356 123.224 20.203C123.805 21.0703 124.116 22.0901 124.116 23.1334C124.116 24.5329 123.559 25.8751 122.568 26.8646C121.576 27.8542 120.232 28.4102 118.829 28.4102" fill="#B2CFDB"/>
</svg>
