<svg width="58" height="65" viewBox="0 0 58 65" fill="none" xmlns="http://www.w3.org/2000/svg">
<path d="M9 25.5H6C3.23858 25.5 1 27.7386 1 30.5V55.5C1 58.2614 3.23858 60.5 6 60.5H8.5C11.2614 60.5 13.5 58.2701 13.5 55.5087C13.5 48.9846 13.5 37.1886 13.5 27.0012C13.5 24.4424 15.4757 22.3649 17.8767 21.48C25.7414 18.5815 30.9248 10.5694 34.128 3.35415C35.1211 1.11709 39.7392 1.56633 40 4V4V19.0403C40 21.3116 41.531 23.2976 43.7275 23.8757L53.0254 26.3225C55.5508 26.987 57.1394 29.4831 56.6723 32.0523L54.5 44L52.1391 55.5094C51.1849 60.1609 47.0914 63.5 42.3431 63.5H27.8249C25.3151 63.5 22.8455 62.8702 20.6421 61.6684L18.5 60.5" stroke="white" stroke-width="2"/>
</svg>
