<svg width="198" height="36" viewBox="0 0 198 36" fill="none" xmlns="http://www.w3.org/2000/svg">
<path d="M7.6708 27.9831C8.6558 20.4818 9.6802 12.9806 10.6652 5.40039C11.9654 5.40039 13.108 5.40039 14.4082 5.40039C15.3538 12.7042 16.2994 19.9291 17.2844 27.1935C17.442 27.1935 17.639 27.1935 17.7966 27.1935C18.7816 19.9686 19.7272 12.7437 20.7122 5.40039C21.8154 5.40039 22.8004 5.40039 24.0612 5.40039C22.7216 15.3889 21.382 25.2589 20.003 35.2869C18.3482 35.2869 16.851 35.2869 15.078 35.2869C14.29 29.7597 13.4626 24.2324 12.6746 18.6657C12.517 18.6263 12.3594 18.6263 12.2018 18.5868C11.3744 24.1535 10.5076 29.6807 9.6408 35.3264C7.9466 35.3264 6.41 35.3264 4.5976 35.3264C3.258 25.4169 1.879 15.5073 0.5 5.40039C1.879 5.40039 2.9428 5.40039 4.2036 5.40039C5.2674 12.9411 6.2918 20.4423 7.3556 27.9436C7.4738 27.9436 7.5526 27.9831 7.6708 27.9831Z" fill="#ED2024"/>
<path d="M42.1852 5.28194C45.1796 5.28194 48.0164 5.04506 50.7744 5.40038C52.1534 5.5583 53.7688 6.50583 54.6356 7.61127C56.9208 10.5328 55.9752 16.7312 53.099 19.3369C57.3148 22.2189 56.448 26.5223 56.0146 30.5887C55.6994 33.4313 53.5718 35.2869 50.7744 35.4053C47.977 35.5238 45.1402 35.4448 42.1852 35.4448C42.1852 25.4168 42.1852 15.5073 42.1852 5.28194ZM45.81 32.0495C48.1346 31.9706 51.0108 32.9576 51.8382 30.4703C52.5868 28.141 52.5868 25.101 51.6806 22.8506C50.8138 20.7187 48.0164 21.2319 45.81 21.5478C45.81 25.0615 45.81 28.4173 45.81 32.0495ZM45.8888 17.9156C48.0558 17.9946 50.5774 18.5473 51.4048 16.4154C52.114 14.5598 52.114 11.9936 51.3654 10.138C50.4986 7.88763 47.9376 8.79568 45.8494 8.7562C45.8888 11.7962 45.8888 14.7177 45.8888 17.9156Z" fill="#ED2024"/>
<path d="M152.111 20.1266C152.111 17.5604 152.072 14.9547 152.111 12.3884C152.229 7.4929 154.751 4.88721 159.203 4.88721C163.616 4.88721 166.295 7.61134 166.335 12.3884C166.413 17.7183 166.413 23.0481 166.335 28.3779C166.295 33.155 163.616 35.8792 159.203 35.8792C154.751 35.8792 152.229 33.2735 152.111 28.3779C152.072 25.6143 152.111 22.8902 152.111 20.1266ZM162.631 20.4819C162.631 17.8367 162.71 15.1521 162.592 12.5069C162.513 9.78275 161.449 8.63783 159.282 8.59835C157.036 8.55887 155.933 9.58535 155.894 12.349C155.775 17.6788 155.775 22.9691 155.894 28.299C155.933 31.1021 157.036 32.1285 159.282 32.0891C161.449 32.0891 162.513 30.9441 162.631 28.1805C162.71 25.6538 162.631 23.0876 162.631 20.4819Z" fill="#ED2024"/>
<path d="M146.359 13.731C146.162 12.4282 146.28 11.3227 145.768 10.6515C145.098 9.78298 143.995 8.79597 143.049 8.75649C142.064 8.71701 140.606 9.5461 140.173 10.4147C138.991 12.665 139.661 14.9154 141.394 16.6525C142.931 18.2317 144.665 19.5346 146.28 21.0348C149.156 23.6405 150.535 26.7595 149.59 30.7075C148.802 33.9449 146.713 35.7215 143.246 35.8794C139.661 36.0373 137.139 34.4976 136.272 31.2207C135.878 29.681 135.918 28.0228 135.721 26.2462C137.06 26.2462 138.006 26.2462 139.149 26.2462C139.267 27.2727 139.346 28.2597 139.503 29.2467C139.779 31.1023 140.685 32.2077 142.773 32.1683C144.822 32.1288 145.65 31.0233 145.925 29.1678C146.319 26.72 145.295 24.9039 143.601 23.3247C142.182 21.9824 140.606 20.8374 139.188 19.4951C136.903 17.3632 135.681 14.797 135.957 11.5596C136.272 7.29573 138.952 4.76899 143.167 4.92691C147.265 5.08483 149.944 8.00637 149.787 12.1518C149.629 14.8759 147.659 13.3362 146.359 13.731Z" fill="#ED2024"/>
<path d="M39.2302 5.47949C39.2302 6.42702 39.2302 7.33506 39.2302 8.55895C36.3146 8.55895 33.399 8.55895 30.3652 8.55895C30.3652 11.9542 30.3652 15.0337 30.3652 18.429C32.7292 18.429 35.1326 18.429 37.6148 18.429C37.6148 19.6134 37.6148 20.5214 37.6148 21.7453C35.2508 21.7453 32.8868 21.7453 30.3652 21.7453C30.3652 25.2986 30.3652 28.5359 30.3652 32.0891C33.2808 32.0891 36.2358 32.0891 39.2302 32.0891C39.2302 33.313 39.2302 34.2211 39.2302 35.287C35.0932 35.287 30.9956 35.287 26.6616 35.287C26.6616 25.4565 26.6616 15.5469 26.6616 5.47949C30.7986 5.47949 34.9356 5.47949 39.2302 5.47949Z" fill="#ED2024"/>
<path d="M91.317 21.8638C88.8742 21.8638 86.6284 21.8638 84.2644 21.8638C84.2644 25.2986 84.2644 28.5754 84.2644 32.0891C87.18 32.0891 90.0562 32.0891 93.0112 32.0891C93.0112 33.2735 93.0112 34.1816 93.0112 35.287C88.8742 35.287 84.6978 35.287 80.4032 35.287C80.4032 25.3775 80.4032 15.5469 80.4032 5.47949C84.5796 5.47949 88.7166 5.47949 93.0112 5.47949C93.0112 6.42702 93.0112 7.33506 93.0112 8.51947C90.2138 8.51947 87.3376 8.51947 84.3038 8.51947C84.3038 11.8753 84.3038 14.9547 84.3038 18.35C86.5102 18.35 88.8348 18.35 91.317 18.35C91.317 19.6134 91.317 20.5609 91.317 21.8638Z" fill="#ED2024"/>
<path d="M173.072 18.9027C175.357 18.9027 177.445 18.9027 179.731 18.9027C179.731 20.0081 179.731 20.9951 179.731 22.1795C177.564 22.1795 175.436 22.1795 172.993 22.1795C172.993 26.6803 172.993 30.9047 172.993 35.287C171.614 35.287 170.59 35.287 169.329 35.287C169.329 25.4169 169.329 15.5074 169.329 5.43994C173.269 5.43994 177.288 5.43994 181.425 5.43994C181.425 6.42695 181.425 7.41395 181.425 8.59836C178.627 8.59836 175.909 8.59836 173.072 8.59836C173.072 12.1121 173.072 15.3495 173.072 18.9027Z" fill="#ED2024"/>
<path d="M188.202 8.55888C186.113 8.55888 184.498 8.55888 182.764 8.55888C182.764 7.45343 182.764 6.54539 182.764 5.43994C187.65 5.43994 192.496 5.43994 197.5 5.43994C197.5 6.42695 197.5 7.33499 197.5 8.55888C195.766 8.55888 193.993 8.55888 192.063 8.55888C192.063 17.5998 192.063 26.325 192.063 35.2475C190.723 35.2475 189.62 35.2475 188.202 35.2475C188.202 26.5224 188.202 17.7183 188.202 8.55888Z" fill="#ED2024"/>
<path d="M77.9604 35.3265C73.8628 35.3265 69.9228 35.3265 65.8252 35.3265C65.8252 25.338 65.8252 15.4679 65.8252 5.43994C66.9678 5.43994 68.1104 5.43994 69.45 5.43994C69.45 14.2045 69.45 22.9692 69.45 31.9706C72.3656 31.9706 75.0448 31.9706 77.921 31.9706C77.9604 33.1945 77.9604 34.1815 77.9604 35.3265Z" fill="#ED2024"/>
<path d="M59.0483 5.36084C60.3091 5.36084 61.2941 5.36084 62.4761 5.36084C62.4761 15.3099 62.4761 25.2194 62.4761 35.2868C61.4123 35.2868 60.3091 35.2868 59.0483 35.2868C59.0483 25.3378 59.0483 15.4678 59.0483 5.36084Z" fill="#ED2024"/>
<path d="M125.162 31.3388C125.162 31.3388 125.162 30.8256 125.162 30.1544V23.956C125.162 23.2848 124.61 22.7716 123.98 22.7716H119.685C119.055 22.7716 118.503 22.6137 118.503 22.3768C118.503 22.1399 119.055 21.982 119.685 21.982H123.98C124.61 21.982 125.162 21.4688 125.162 20.7976V8.91405C125.162 8.28237 125.162 7.72965 125.162 7.72965C125.162 7.72965 125.162 7.17692 125.162 6.54524V6.30836C125.162 5.6372 124.61 5.12395 123.98 5.12395H118.621C117.991 5.12395 117.439 5.6372 117.439 6.30836V15.5467C117.439 16.2179 117.163 16.7311 116.848 16.7311C116.533 16.7311 116.257 16.2179 116.257 15.5467V6.26888C116.257 5.59772 115.745 5.08447 115.075 5.08447H109.875C109.244 5.08447 108.693 5.59772 108.693 6.26888V15.4283C108.693 16.0994 108.693 16.6127 108.693 16.6127C108.693 16.6127 108.693 17.1259 108.693 17.7971V20.4028C108.693 21.0345 108.693 21.5872 108.693 21.5872C108.693 21.5872 108.693 22.1399 108.693 22.7716V34.7736C108.693 35.4447 109.244 35.958 109.875 35.958H123.94C124.571 35.958 125.122 35.4447 125.122 34.7736V32.4442C125.201 31.852 125.201 31.3388 125.162 31.3388Z" fill="#ED2024"/>
<path d="M103.452 34.6946C103.216 34.6946 103.058 34.5367 103.058 34.2998V5.47927C103.058 5.24239 102.861 5.08447 102.664 5.08447H102.152C101.955 5.08447 101.758 5.24239 101.758 5.47927V34.2603C101.758 34.4972 101.758 34.8131 101.758 35.0499C101.758 35.0499 101.719 35.5632 101.955 35.8001C102.191 36.0369 102.664 35.9975 102.664 35.9975C102.861 35.9975 103.216 35.9975 103.452 35.9975H112.554C112.79 35.9975 112.948 35.8395 112.948 35.6027V35.0894C112.948 34.8525 112.79 34.6946 112.554 34.6946H103.452Z" fill="#ED2024"/>
<path d="M108.811 16.4946C108.811 16.4946 109.874 22.4956 108.811 21.9034C105.934 20.3242 103.61 16.4946 103.61 16.4946H108.811Z" fill="#ED2024"/>
<path d="M124.847 16.4946C124.847 16.4946 121.892 21.9824 123.862 22.0219C124.059 22.0219 124.413 22.1403 125.004 21.7455C126.501 20.798 130.047 16.4946 130.047 16.4946H124.847Z" fill="#ED2024"/>
<path d="M111.49 4.21632C111.254 4.4532 110.781 4.33476 110.387 3.93996C109.993 3.54516 109.875 3.0714 110.111 2.83451L112.79 0.149861C113.027 -0.0870202 113.499 0.0314204 113.893 0.426222C114.287 0.821024 114.406 1.29479 114.169 1.53167L111.49 4.21632Z" fill="#ED2024"/>
<path d="M121.97 4.33441C122.207 4.57129 122.719 4.41337 123.152 3.97909C123.586 3.54481 123.704 3.03157 123.507 2.79469L120.828 0.110032C120.591 -0.126849 120.079 0.0310716 119.646 0.465354C119.212 0.899636 119.094 1.41288 119.291 1.64976L121.97 4.33441Z" fill="#ED2024"/>
</svg>
