<svg width="200" height="20" fill="none" xmlns="http://www.w3.org/2000/svg"><path fill-rule="evenodd" clip-rule="evenodd" d="M0 9.972c0-1.865.457-3.56 1.371-5.082a9.766 9.766 0 0 1 3.74-3.59C6.689.435 8.458 0 10.414 0c1.941 0 3.704.434 5.292 1.3 1.588.87 2.84 2.065 3.753 3.59.915 1.523 1.371 3.217 1.371 5.082 0 1.865-.455 3.563-1.371 5.096a9.797 9.797 0 0 1-3.753 3.615C14.118 19.56 12.354 20 10.414 20c-1.938 0-3.701-.439-5.289-1.316-1.589-.877-2.84-2.077-3.754-3.6C.457 13.56 0 11.855 0 9.972zM15.553 6.87a5.942 5.942 0 0 0-2.132-2.23 5.57 5.57 0 0 0-2.95-.817 5.778 5.778 0 0 0-2.991.817 5.947 5.947 0 0 0-2.189 2.23 6.16 6.16 0 0 0-.804 3.102c0 1.144.272 2.188.818 3.13a6.216 6.216 0 0 0 2.187 2.243 5.648 5.648 0 0 0 2.979.831 5.57 5.57 0 0 0 2.95-.817 5.93 5.93 0 0 0 2.132-2.244c.527-.95.79-1.998.79-3.143 0-1.126-.263-2.161-.79-3.102z" fill="#fff"/><path d="m91.26 5.76 1.69-3.627C91.951 1.487 90.805.97 89.512.58A13.633 13.633 0 0 0 85.58 0c-1.496 0-2.807.236-3.933.707-1.126.47-2.004 1.145-2.63 2.022-.63.878-.944 1.898-.944 3.062 0 1.255.305 2.26.916 3.019a5.722 5.722 0 0 0 2.173 1.69c.84.367 1.926.737 3.255 1.106.923.26 1.648.49 2.175.693.527.203.96.466 1.301.79.342.322.513.733.513 1.232 0 .628-.254 1.108-.76 1.44-.51.333-1.216.5-2.12.5-1.053 0-2.217-.269-3.49-.803a11.849 11.849 0 0 1-3.38-2.134l-1.746 3.574c1.108.96 2.42 1.717 3.934 2.271 1.515.553 3.056.831 4.626.831 1.46 0 2.761-.232 3.906-.693 1.145-.46 2.045-1.14 2.7-2.036.656-.896.984-1.963.984-3.199 0-1.275-.306-2.3-.916-3.075a5.8 5.8 0 0 0-2.2-1.745c-.859-.388-1.953-.776-3.283-1.163-1.33-.388-2.314-.763-2.95-1.123-.637-.36-.956-.881-.956-1.565 0-.535.221-.941.665-1.22.444-.276 1.043-.414 1.8-.414.795 0 1.75.18 2.868.54 1.117.36 2.175.845 3.172 1.453zM147.92 19.694h4.82l-1.762-3.2c-2.972-5.397-5.943-10.794-8.917-16.19l-4.573 8.302-.002.003c-2.035 3.695-4.07 7.389-6.104 11.085h4.516l6.012-10.915 6.01 10.915z" fill="#fff"/><path fill-rule="evenodd" clip-rule="evenodd" d="M160.289 19.694V.304h8.421c2.53 0 4.487.587 5.873 1.76 1.384 1.172 2.077 2.83 2.077 4.971 0 1.496-.31 2.775-.929 3.837-.618 1.062-1.519 1.87-2.7 2.423l4.128 6.399H172.2l-3.075-5.54h-4.46v5.54h-4.376zM171.522 4.75c-.657-.545-1.593-.817-2.812-.817h-4.044v6.565h4.044c1.219 0 2.155-.282 2.812-.845.654-.563.983-1.39.983-2.479 0-1.07-.329-1.879-.983-2.424z" fill="#fff"/><path d="M200 .305h-16.205v3.71h5.9v15.679h4.376V4.016H200V.305zM105.846 10.11v9.584h-3.934V.305l10.914 11.91L123.741.305l-.084 19.389h-3.934v-9.493l-6.897 7.527-6.98-7.619zM70.301.305H54.096v3.71h5.9v15.679h4.378V4.016h5.927V.304zM33.415 11.69c0 1.384.392 2.478 1.177 3.281.785.803 1.833 1.206 3.144 1.206 1.275 0 2.29-.398 3.047-1.19.758-.795 1.137-1.895 1.137-3.297V.304h4.376V11.69c0 1.698-.346 3.17-1.04 4.417-.691 1.247-1.684 2.207-2.976 2.881-1.294.674-2.817 1.011-4.571 1.011-1.756 0-3.288-.337-4.6-1.01-1.31-.675-2.317-1.635-3.018-2.882-.701-1.247-1.053-2.719-1.053-4.417V.304h4.376V11.69z" fill="#fff"/></svg>