<svg width="168" height="60" fill="none" xmlns="http://www.w3.org/2000/svg"><path fill-rule="evenodd" clip-rule="evenodd" d="M74.588 22.49c2.284 0 4.207.63 5.649 2.016 1.442 1.387 2.163 3.151 2.163 5.42s-.72 4.034-2.163 5.42c-1.442 1.387-3.365 2.143-5.65 2.143H69.9v-15h4.688Zm93.412 0v2.772h-4.75V37.49h-3V25.262h-4.75V22.49H168Zm-21.05 0v15h-2.5v-15h2.5Zm-21.938 15H122.1v-15h2.912v6.932l5.462-6.933h3.519l-5.582 7.059 6.189 7.941h-3.52l-6.188-7.815v7.815h.12Zm-14.925-14.757h3.413l-6.067 14.756h-1.012l-4.171-9.024-4.171 9.024h-1.011L91 22.733h3.412L97.7 31.27l3.918-8.78h1.012l3.918 8.78 3.539-8.537Zm-37.302 2.53v9.453h1.683c1.442 0 2.644-.378 3.486-1.26.84-.883 1.321-2.017 1.321-3.53 0-2.9-1.922-4.664-4.807-4.664h-1.683Z" fill="#2E2E2E"/><path fill-rule="evenodd" clip-rule="evenodd" d="M0 45V15L26.4 0l26.4 15v30L26.4 60 0 45Zm26.92.429v-15l13.2-7.5v15l-13.2 7.5ZM13.202 22.046l13.2 7.5 13.2-7.5-13.2-7.5-13.2 7.5Zm12.682 23.383v-15l-13.2-7.5v15l13.2 7.5Z" fill="#1362E2"/></svg>