<svg width="90" height="92" fill="none" xmlns="http://www.w3.org/2000/svg"><path d="M7.476 67.812C3.749 63.874.868 58.882.163 53.046-.61 46.507 1.43 40.39 4.875 35.398c11.109-16.032 27-28.687 46.546-34.383C56.765-.533 62.601-.392 68.085 2 73.57 4.32 77.72 8.47 80.25 13.39c9.35 18.07 11.109 38.32 7.171 57.375-1.195 5.976-4.289 11.601-9.562 15.539-4.711 3.516-10.266 4.781-15.75 4.852-18.211.351-41.766-9.915-54.633-23.344Z" fill="#00C3FF"/><path d="M6.984 62.328C3.82 58.108 1.64 53.045 1.64 47.42c0-6.327 2.602-11.952 6.469-16.312C20.554 17.045 37.149 6.71 56.554 3.545c5.274-.843 10.828-.07 15.82 2.813A23.473 23.473 0 0 1 82.71 18.663c6.961 18.351 6.328 37.898.352 55.688-1.828 5.554-5.415 10.617-10.899 13.78-4.921 2.813-10.406 3.376-15.609 2.813-17.437-1.758-38.883-14.273-49.57-28.617v.001Z" fill="#0E0E2B"/><path d="m71.109 52.273 6.117-4.078-.984-1.547-27.423 18.351.985 1.547 19.617-13.078-12.937 13.5 1.335 1.266 4.149-4.43-4.78 10.477 1.616.773 5.344-11.532-1.266-.562 9.21-9.773-.983-.914Z" fill="#00C3FF"/><path d="M62.25 44.96h4.289l1.054-3.867h-4.288l2.11-7.875h-4.36l-4.218 15.68h-9.705c-4.007 0-5.062-2.461-4.43-5.836.634-3.375 3.657-6.117 6.61-6.188 2.39 0 3.586 1.407 3.586 3.024 0 .422-.07.914-.14 1.125h-5.415L46.29 44.89h9.843c.492-1.336.915-3.094.915-4.43 0-4.078-2.673-7.312-7.524-7.312-6.539 0-11.039 5.836-11.039 11.39 0 5.063 3.305 8.227 8.508 8.227h8.858c-.773 2.812.985 5.133 3.727 5.203h3.586l1.054-3.937h-3.093c-.633-.07-1.055-.633-.844-1.266l1.97-7.805ZM36.586 28.015h-4.57l-1.055 3.938h4.359l-4.007 14.835c-.493 1.407-1.618 2.25-3.306 2.11H26.39l-1.054 3.937h1.546c2.11.07 4.5-.14 6.329-1.969l.07-.07c1.055-1.055 1.97-2.39 2.39-4.078l4.993-18.703h-4.078Z" fill="#fff"/></svg>