<svg width="99" height="16" viewBox="0 0 99 16" fill="none" xmlns="http://www.w3.org/2000/svg">
<path fill-rule="evenodd" clip-rule="evenodd" d="M5.58794 0.489258C7.8717 0.489258 9.79447 1.11943 11.2368 2.50602C12.6792 3.89273 13.4005 5.65723 13.4005 7.92637C13.4005 10.195 12.6792 11.9595 11.2368 13.3461C9.79447 14.7327 7.8717 15.4891 5.58794 15.4891H0.900391V0.489258H5.58794ZM98.9997 0.489258V3.26244H94.2498V15.4891H91.2498V3.26244H86.4999V0.489258H98.9997ZM77.9498 0.489258V15.4891H75.4497V0.489258H77.9498ZM56.0124 15.4891H53.0999V0.489258H56.0124V7.42173L61.4738 0.489258H64.993L59.4107 7.54786L65.6001 15.4891H62.0804L55.8915 7.67399V15.4891H56.0124ZM41.0869 0.732998H44.5004L38.4328 15.4891H37.4213L33.2503 6.46466L29.079 15.4891H28.0676L22.0006 0.732998H25.4134L28.6997 9.2695L32.6181 0.489258H33.6296L37.548 9.2695L41.0869 0.732998ZM3.78509 3.26244V12.716H5.4679C6.91025 12.716 8.11215 12.3379 8.95355 11.4554C9.79447 10.5734 10.2754 9.43861 10.2754 7.92637C10.2754 5.02694 8.3526 3.26244 5.4679 3.26244H3.78509Z" fill="#2E2E2E"/>
</svg>
