<svg width="250" height="60" fill="none" xmlns="http://www.w3.org/2000/svg"><path fill-rule="evenodd" clip-rule="evenodd" d="M162.561 38.53v-8.396h10.971v-1.016h-10.971V21.47h11.665v-1.016h-12.842v19.092h12.977V38.53h-11.8v-.002Zm13.807 1.016h1.177V21.898h.053l12.147 17.649h1.391V20.455h-1.177v17.513h-.053l-12.067-17.513h-1.471v19.092-.001Zm26.675-9.358v1.015h7.037c.187 4.68-2.675 7.782-7.224 7.782-5.245 0-7.867-4.011-7.867-8.878 0-4.758 2.703-9.09 7.867-9.09 3.477 0 5.913 2.059 6.796 5.347h1.123c-.669-3.982-4.013-6.363-7.946-6.363-5.753 0-9.017 4.705-9.017 10.106 0 5.482 3.211 9.893 8.99 9.893 3.371 0 6.287-1.737 7.224-4.518h.054v4.064h1.016v-9.358h-8.053Zm11.291 9.358h1.177v-19.09h-1.178v19.09h.001Zm4.548 0h1.178V21.898h.053l12.147 17.648h1.392v-19.09h-1.177v17.512h-.053l-12.067-17.513h-1.472v19.092l-.001-.001Zm19.318-1.017v-8.395h10.97v-1.016H238.2V21.47h11.666v-1.016h-12.843v19.092H250V38.53h-11.8v-.002Z" fill="#7F7F7F"/><path fill-rule="evenodd" clip-rule="evenodd" d="m16.105 30.062-2.284-4.913h-2.91l3.74 8.043 1.454-3.131" fill="#6FB048"/><path fill-rule="evenodd" clip-rule="evenodd" d="M8.83 39.447h2.912L2.91 20.457H0l8.83 18.992" fill="#7F7F7F"/><path fill-rule="evenodd" clip-rule="evenodd" d="M13.196 39.447h2.91l-8.83-18.99h-2.91l8.83 18.992" fill="#6FB048"/><path fill-rule="evenodd" clip-rule="evenodd" d="M16.106 39.447h-2.91l8.831-18.99h2.91l-8.83 18.992" fill="#6FB048"/><path fill-rule="evenodd" clip-rule="evenodd" d="m13.195 30.062 4.468-9.607h2.91l-5.921 12.736-1.456-3.129Zm-4.364 9.385h2.91L2.91 20.457H0l8.83 18.992" fill="#7F7F7F"/><path fill-rule="evenodd" clip-rule="evenodd" d="M33.754 20.001c-5.726 0-9.151 4.545-9.151 9.999 0 5.455 3.425 10 9.15 10 5.726 0 9.15-4.545 9.15-10 0-5.454-3.424-9.999-9.15-9.999Zm0 2.727c4.094 0 5.806 3.609 5.806 7.272 0 3.663-1.712 7.272-5.806 7.272S27.948 33.663 27.948 30c0-3.663 1.712-7.272 5.806-7.272Zm15.545.454h5.43c1.74 0 3.318.482 3.318 2.915 0 2.005-1.151 3.048-3.263 3.048h-5.486v-5.962l.001-.001Zm-3.345 16.365h3.345v-7.862h4.923c3.077 0 3.799 1.55 3.799 5.053 0 .936 0 1.979.508 2.808h3.586c-.723-.775-1.043-2.808-1.043-5.027 0-3.02-1.686-3.877-2.837-4.037v-.054c.616-.214 3.157-1.15 3.157-4.812 0-3.235-2.14-5.16-6.314-5.16h-9.124v19.09Zm18.837 0h3.344V33.13l2.729-2.7 6.261 9.117H81.3l-8.16-11.472 7.625-7.62h-4.12l-8.509 8.69v-8.69h-3.344v19.092Zm18.328 0h3.343V31.07h8.643v-2.729h-8.642v-4.999h9.846v-2.888H83.12v19.092Zm15.866 0h13.057v-2.888h-9.713V20.455h-3.343v19.092h-.001ZM122.477 20c-5.725 0-9.149 4.546-9.149 10 0 5.455 3.424 10 9.149 10 5.726 0 9.152-4.545 9.152-10 0-5.454-3.425-9.999-9.152-9.999V20Zm0 2.728c4.095 0 5.806 3.609 5.806 7.272 0 3.663-1.711 7.272-5.806 7.272-4.093 0-5.805-3.609-5.805-7.272 0-3.663 1.712-7.272 5.805-7.272Zm15.359 16.818h3.451l3.907-14.598h.053l3.827 14.598h3.397l5.272-19.09h-3.399l-3.558 14.598h-.053l-3.747-14.599h-3.425l-3.853 14.599h-.053l-3.452-14.599h-3.398l5.03 19.09h.001Z" fill="#6FB048"/></svg>