<svg width="91" height="92" fill="none" xmlns="http://www.w3.org/2000/svg"><path d="M8.447 68.23C4.72 64.292 1.84 59.3 1.135 53.464.36 46.925 2.4 40.809 5.846 35.816c11.109-16.032 27-28.687 46.546-34.383 5.344-1.548 11.18-1.407 16.665.984 5.484 2.32 9.633 6.47 12.164 11.391 9.351 18.07 11.109 38.32 7.171 57.375-1.195 5.976-4.289 11.601-9.562 15.539-4.71 3.516-10.266 4.781-15.75 4.852-18.21.351-41.766-9.915-54.633-23.344Z" fill="#00C3FF"/><path d="M7.955 62.746c-3.164-4.22-5.344-9.283-5.344-14.908 0-6.327 2.602-11.952 6.47-16.312C21.525 17.463 38.118 7.128 57.525 3.963c5.273-.843 10.827-.07 15.82 2.813A23.473 23.473 0 0 1 83.681 19.08c6.962 18.351 6.329 37.898.353 55.688-1.829 5.554-5.415 10.617-10.9 13.78-4.92 2.813-10.406 3.376-15.608 2.813-17.438-1.758-38.883-14.273-49.57-28.617v.001Z" fill="#0E0E2B"/><path d="m72.08 52.69 6.117-4.077-.984-1.548L49.79 65.417l.984 1.547 19.617-13.078-12.937 13.5 1.336 1.266 4.148-4.43-4.78 10.476 1.616.774L65.12 63.94l-1.266-.562 9.21-9.773-.983-.915Z" fill="#00C3FF"/><path d="M63.221 45.378h4.289l1.054-3.867h-4.287l2.109-7.875h-4.36l-4.218 15.68h-9.704c-4.008 0-5.063-2.461-4.43-5.836.633-3.375 3.656-6.117 6.61-6.188 2.39 0 3.585 1.407 3.585 3.024 0 .422-.07.914-.14 1.125h-5.414l-1.055 3.867h9.844c.492-1.336.914-3.094.914-4.43 0-4.078-2.672-7.312-7.523-7.312-6.54 0-11.04 5.836-11.04 11.39 0 5.063 3.305 8.227 8.508 8.227h8.859c-.774 2.812.984 5.133 3.726 5.203h3.586l1.055-3.937h-3.093c-.633-.07-1.055-.633-.845-1.266l1.97-7.805ZM37.557 28.433h-4.57l-1.055 3.938h4.36l-4.008 14.835c-.493 1.407-1.618 2.25-3.305 2.11h-1.617l-1.055 3.937h1.547c2.11.07 4.5-.14 6.328-1.969l.07-.07c1.055-1.055 1.97-2.39 2.391-4.078l4.992-18.703h-4.078Z" fill="#fff"/></svg>