<svg width="226" height="60" fill="none" xmlns="http://www.w3.org/2000/svg"><path d="M129.016 20.356h-5.577v18.859h5.577V20.356ZM122.916 16.208c0-.999.313-1.777.941-2.335a3.391 3.391 0 0 1 2.231-.872c.906-.023 1.696.256 2.37.837.697.558 1.046 1.348 1.046 2.37 0 .953-.314 1.697-.941 2.231-.628.535-1.371.814-2.231.837-.907.023-1.708-.233-2.405-.767-.674-.558-1.011-1.325-1.011-2.3ZM117.73 39.529c.837 0 1.836-.093 2.998-.28l-.175-4.53a7.365 7.365 0 0 1-1.568.174c-1.697 0-2.545-.732-2.545-2.197v-7.424h3.939v-4.706h-3.939v-4.079l-5.473.488v3.59h-2.475v4.707h2.475v7.425c0 2.393.581 4.136 1.743 5.228 1.162 1.093 2.835 1.627 5.02 1.604Z" fill="#282828"/><path fill-rule="evenodd" clip-rule="evenodd" d="M85.748 29.803c0 2.138-.301 3.997-1.3 5.578-.976 1.557-2.22 2.684-3.73 3.381-1.487.697-3.103 1.046-4.845 1.046-1.72 0-3.335-.349-4.846-1.046-1.487-.72-2.73-1.86-3.73-3.416-.976-1.557-1.464-3.405-1.464-5.543 0-1.626.29-3.09.872-4.392.58-1.324 1.336-2.382 2.266-3.172a10.596 10.596 0 0 1 3.206-1.882c1.209-.442 2.44-.651 3.696-.628 1.278 0 2.51.221 3.695.663a9.572 9.572 0 0 1 3.207 1.847c.952.813 1.72 1.87 2.3 3.172.581 1.302.672 2.766.672 4.392Zm-14.407 0c0 1.209.314 2.22.941 3.033.628.813 1.383 1.325 2.266 1.534a6.362 6.362 0 0 0 2.65 0c.906-.186 1.672-.686 2.3-1.5.627-.836.94-1.858.94-3.067 0-.883-.173-1.661-.522-2.335-.325-.697-.755-1.22-1.29-1.569a5.36 5.36 0 0 0-1.778-.802 3.964 3.964 0 0 0-1.951 0 5.403 5.403 0 0 0-1.744.802c-.534.349-.976.872-1.324 1.569-.325.674-.488 1.452-.488 2.335ZM98.278 39.529c-2.045 0-3.672-.686-4.88-2.057v7.25H87.96V20.356h5.438v1.883c1.138-1.418 2.788-2.127 4.95-2.127 2.858 0 5.089.976 6.692 2.928 1.604 1.953 2.394 4.311 2.371 7.077-.047 2.742-.848 4.996-2.405 6.762-1.557 1.766-3.8 2.65-6.728 2.65Zm-.593-14.153c-1.185 0-2.196.441-3.032 1.325-.837.883-1.255 1.952-1.255 3.206 0 1.255.418 2.336 1.255 3.242.836.883 1.847 1.325 3.032 1.325 1.325 0 2.347-.441 3.068-1.325.744-.883 1.127-1.94 1.15-3.172.023-1.231-.348-2.3-1.115-3.207-.744-.93-1.778-1.394-3.103-1.394Z" fill="#282828"/><path d="M137.676 20.356h-5.542v18.859h5.821V28.548c0-.976.326-1.731.976-2.266.674-.558 1.395-.825 2.162-.802 1.557.047 2.335 1.093 2.335 3.138v10.597h5.543V28.478c.023-.953.395-1.696 1.115-2.23.744-.535 1.511-.79 2.301-.768 1.557.047 2.335 1.093 2.335 3.138v10.597h5.543V28.583c.023-2.812-.546-4.904-1.708-6.275-1.162-1.394-2.708-2.126-4.637-2.196-1.185-.046-2.37.151-3.555.593-1.185.418-2.08 1.046-2.684 1.882-.953-1.58-2.429-2.417-4.427-2.51-2.533-.046-4.392.674-5.578 2.162v-1.883Z" fill="#282828"/><path fill-rule="evenodd" clip-rule="evenodd" d="M171.666 20.043c2.069 0 3.695.755 4.881 2.266v-1.952h5.472v18.858h-5.472v-1.882c-1.139 1.417-2.789 2.126-4.95 2.126-2.859 0-5.09-.976-6.693-2.928-1.604-1.952-2.394-4.31-2.37-7.076.046-2.742.848-4.997 2.405-6.763s3.799-2.649 6.727-2.649Zm.593 14.153c1.185 0 2.196-.442 3.033-1.325.836-.883 1.255-1.952 1.255-3.207s-.419-2.324-1.255-3.207c-.837-.906-1.848-1.36-3.033-1.36-1.325 0-2.359.442-3.102 1.325-.721.883-1.093 1.94-1.116 3.172-.023 1.232.337 2.313 1.081 3.242.767.906 1.812 1.36 3.137 1.36Z" fill="#282828"/><path d="M190.531 20.357v19.66c0 2.742-.929 4.683-2.788 5.821-1.86 1.162-4.16 1.453-6.902.872l.209-4.532c1.045.233 1.975.175 2.788-.174.814-.349 1.22-1.046 1.22-2.092V20.357h5.473ZM185.512 13.873c-.651.558-.976 1.36-.976 2.405 0 1.023.337 1.813 1.01 2.37.674.535 1.465.79 2.371.768.883-.024 1.627-.303 2.231-.837.627-.535.941-1.301.941-2.3 0-1-.325-1.778-.976-2.336a3.314 3.314 0 0 0-2.231-.906c-.906-.024-1.696.255-2.37.836Z" fill="#282828"/><path fill-rule="evenodd" clip-rule="evenodd" d="M212.301 29.733c0 .744-.07 1.464-.209 2.161h-13.525c.325.837.86 1.488 1.603 1.952a4.955 4.955 0 0 0 2.44.697c1.325 0 2.382-.43 3.172-1.29h5.961c-.697 2-1.917 3.545-3.66 4.637-1.743 1.069-3.66 1.58-5.752 1.534-2.602-.047-4.845-.918-6.727-2.615-1.859-1.72-2.789-4.078-2.789-7.076 0-1.557.279-2.963.837-4.218.557-1.278 1.301-2.3 2.231-3.067a10.401 10.401 0 0 1 3.137-1.743 10.62 10.62 0 0 1 3.625-.628c2.626.023 4.892.883 6.798 2.58 1.905 1.696 2.858 4.055 2.858 7.076Zm-13.525-2.126h7.529c-.255-.907-.732-1.592-1.429-2.057-.674-.465-1.476-.697-2.405-.697-.86 0-1.627.244-2.301.732-.65.465-1.115 1.139-1.394 2.022Z" fill="#282828"/><path d="M222.835 39.7c.837 0 1.836-.093 2.998-.28l-.174-4.53a7.38 7.38 0 0 1-1.569.173c-1.696 0-2.545-.732-2.545-2.196v-7.424h3.939v-4.706h-3.939v-4.079l-5.472.488v3.59h-2.475v4.706h2.475v7.425c0 2.394.581 4.137 1.743 5.23 1.162 1.091 2.835 1.626 5.019 1.603Z" fill="#282828"/><path d="M20.833 50c11.046 0 20-8.954 20-20s-8.954-20-20-20c-11.045 0-20 8.954-20 20s8.955 20 20 20Z" fill="url(#a)"/><path d="M25.833 25c0-8.284 6.716-15 15-15v20c0 11.046-8.954 20-20 20-11.045 0-20-8.954-20-20 0 6.904 5.597 12.5 12.5 12.5 6.904 0 12.5-5.596 12.5-12.5v-5Z" fill="#4286F4"/><defs><linearGradient id="a" x1="10.033" y1="15.4" x2="35.183" y2="32.35" gradientUnits="userSpaceOnUse"><stop stop-color="#4286F4"/><stop offset="1" stop-color="#373B44"/></linearGradient></defs></svg>