<svg width="198" height="60" fill="none" xmlns="http://www.w3.org/2000/svg"><path d="M7.67 39.983c.986-7.501 2.01-15.002 2.995-22.583h3.743c.946 7.304 1.891 14.53 2.876 21.794h.513c.985-7.225 1.93-14.45 2.915-21.794h3.35c-1.34 9.989-2.68 19.859-4.059 29.887h-4.925c-.788-5.527-1.615-11.055-2.403-16.621-.158-.04-.316-.04-.473-.08-.828 5.568-1.694 11.095-2.561 16.74H4.598C3.258 37.416 1.879 27.507.5 17.4h3.704c1.063 7.541 2.088 15.042 3.152 22.544.118 0 .197.04.315.04ZM42.185 17.282c2.995 0 5.831-.237 8.59.118 1.378.158 2.994 1.106 3.86 2.211 2.286 2.922 1.34 9.12-1.536 11.726 4.216 2.882 3.349 7.185 2.916 11.252-.316 2.842-2.443 4.698-5.24 4.816-2.798.119-5.635.04-8.59.04V17.282ZM45.81 44.05c2.325-.08 5.2.908 6.028-1.58.749-2.329.749-5.369-.157-7.62-.867-2.131-3.665-1.618-5.871-1.302V44.05Zm.079-14.134c2.167.079 4.688.631 5.516-1.5.709-1.856.709-4.422-.04-6.278-.866-2.25-3.427-1.342-5.516-1.382.04 3.04.04 5.962.04 9.16ZM152.111 32.127c0-2.567-.039-5.172 0-7.739.118-4.895 2.64-7.5 7.092-7.5 4.413 0 7.092 2.723 7.132 7.5.078 5.33.078 10.66 0 15.99-.04 4.777-2.719 7.501-7.132 7.501-4.452 0-6.974-2.605-7.092-7.501-.039-2.764 0-5.488 0-8.251Zm10.52.355c0-2.645.079-5.33-.039-7.975-.079-2.724-1.143-3.87-3.31-3.909-2.246-.04-3.349.987-3.388 3.751a356.35 356.35 0 0 0 0 15.95c.039 2.803 1.142 3.83 3.388 3.79 2.167 0 3.231-1.145 3.349-3.908.079-2.527 0-5.093 0-7.7ZM146.359 25.731c-.197-1.303-.079-2.408-.591-3.08-.67-.868-1.773-1.855-2.719-1.895-.985-.039-2.443.79-2.876 1.659-1.182 2.25-.512 4.5 1.221 6.238 1.537 1.579 3.271 2.882 4.886 4.382 2.876 2.606 4.255 5.725 3.31 9.673-.788 3.237-2.877 5.014-6.344 5.171-3.585.158-6.107-1.381-6.974-4.658-.394-1.54-.354-3.198-.551-4.975h3.428c.118 1.027.197 2.014.354 3 .276 1.856 1.182 2.962 3.27 2.922 2.049-.04 2.877-1.145 3.152-3 .394-2.448-.63-4.264-2.324-5.843-1.419-1.343-2.995-2.488-4.413-3.83-2.285-2.132-3.507-4.698-3.231-7.935.315-4.264 2.995-6.791 7.21-6.633 4.098.158 6.777 3.08 6.62 7.225-.158 2.724-2.128 1.184-3.428 1.579ZM39.23 17.48v3.079h-8.865v9.87h7.25v3.316h-7.25V44.09h8.865v3.198H26.662V17.48H39.23ZM91.317 33.864h-7.053v10.225h8.747v3.198H80.403V17.48h12.608v3.04h-8.707v9.83h7.013v3.514ZM173.072 30.903h6.659v3.276h-6.738v13.108h-3.664V17.44h12.096v3.158h-8.353v10.305ZM188.202 20.559h-5.438v-3.12H197.5v3.12h-5.437v26.689h-3.861v-26.69ZM77.96 47.327H65.825V17.44h3.625v26.53h8.471c.04 1.224.04 2.212.04 3.357ZM59.048 17.36h3.428v29.927h-3.428V17.36ZM125.162 43.339V35.956c0-.671-.552-1.184-1.182-1.184h-4.295c-.63 0-1.182-.158-1.182-.395 0-.237.552-.395 1.182-.395h4.295c.63 0 1.182-.513 1.182-1.184v-14.49c0-.67-.552-1.184-1.182-1.184h-5.359c-.63 0-1.182.513-1.182 1.184v9.239c0 .67-.276 1.184-.591 1.184-.315 0-.591-.513-.591-1.184v-9.278c0-.671-.512-1.184-1.182-1.184h-5.2c-.631 0-1.182.513-1.182 1.184V46.774c0 .67.551 1.184 1.182 1.184h14.065c.631 0 1.182-.513 1.182-1.184v-2.33c.079-.592.079-1.105.04-1.105Z" fill="#ED2024"/><path d="M103.452 46.695c-.236 0-.394-.158-.394-.395V17.48a.395.395 0 0 0-.394-.396h-.512a.395.395 0 0 0-.394.395V47.05s-.039.513.197.75c.236.237.709.198.709.198h9.89c.236 0 .394-.158.394-.395v-.514c0-.236-.158-.394-.394-.394h-9.102Z" fill="#ED2024"/><path d="M108.811 28.495s1.063 6 0 5.408c-2.877-1.579-5.201-5.408-5.201-5.408h5.201ZM124.847 28.495s-2.955 5.487-.985 5.527c.197 0 .551.118 1.142-.276 1.497-.948 5.043-5.251 5.043-5.251h-5.2ZM111.49 16.216c-.236.237-.709.119-1.103-.276s-.512-.869-.276-1.105l2.679-2.685c.237-.237.709-.119 1.103.276s.513.869.276 1.106l-2.679 2.684ZM121.97 16.334c.237.237.749.08 1.182-.355.434-.434.552-.947.355-1.184l-2.679-2.685c-.237-.237-.749-.079-1.182.355-.434.435-.552.948-.355 1.185l2.679 2.684Z" fill="#ED2024"/></svg>