<?xml version="1.0" encoding="utf-8"?>
<svg xmlns="http://www.w3.org/2000/svg" xmlns:xlink="http://www.w3.org/1999/xlink">
  <symbol id="discovery" viewBox="0 0 68 56">
    <path d="M44.4208 30.5028C46.7783 28.4644 49.8514 27.2314 53.2125 27.2314C60.6401 27.2314 66.6613 33.2527 66.6613 40.6802C66.6613 48.1078 60.6401 54.129 53.2125 54.129C45.785 54.129 39.7637 48.1078 39.7637 40.6802L39.7637 39.5V29.1503C39.7637 25.967 37.1832 23.3889 34 23.3889C30.8167 23.3889 28.2362 25.9694 28.2362 29.1527V39.5V40.6802C28.2362 48.1078 22.215 54.129 14.7874 54.129C7.35985 54.129 1.33862 48.1078 1.33862 40.6802C1.33862 33.2527 7.35985 27.2314 14.7874 27.2314C18.1485 27.2314 21.2217 28.4644 23.5792 30.5028"/>
    <path d="M60.5132 24.9259L54.3652 8.40312C52.8282 4.17636 50.5402 1.87085 46.2959 1.87085C43.6377 1.87085 41.2948 3.22039 39.9149 5.27169C38.514 7.35406 36.5764 9.55587 34.0667 9.55587H33.0667C30.611 9.55587 28.7151 7.40798 27.3704 5.35322C25.9981 3.25623 23.6285 1.87085 20.9353 1.87085C16.691 1.87085 14.403 4.17636 12.866 8.40312L6.71802 24.9259"/>
  </symbol>
  <symbol id="audit" viewBox="0 0 62 62">
    <path d="M46.7532 38.9535C49.1072 35.1494 50.4667 30.6595 50.4667 25.8505C50.4667 12.1259 39.3932 1 25.7334 1C12.0735 1 1 12.1259 1 25.8505C1 39.5751 12.0735 50.701 25.7334 50.701C30.8954 50.701 35.6882 49.1121 39.6535 46.3945C41.9987 44.7873 45.2614 44.7235 47.2378 46.7674L61 61"/>
  </symbol>
  <symbol id="delivery" viewBox="0 0 71 58">
    <path d="M5.2 40.1999H33.9355C36.6969 40.1999 38.9355 42.4385 38.9355 45.1999V53.5435C38.9355 56.2087 42.1514 57.5506 44.0458 55.6758L68.8454 31.1322C70.0317 29.9582 70.0317 28.0417 68.8454 26.8676L44.0458 2.3241C42.1514 0.449317 38.9355 1.79119 38.9355 4.4564V12.7999C38.9355 15.5614 36.6969 17.7999 33.9355 17.7999H6C3.23858 17.7999 1 20.0385 1 22.7999V34.5999"/>
  </symbol>
  <symbol id="support" viewBox="0 0 58 65">
    <path d="M9 25.5H6C3.23858 25.5 1 27.7386 1 30.5V55.5C1 58.2614 3.23858 60.5 6 60.5H8.5C11.2614 60.5 13.5 58.2701 13.5 55.5087C13.5 48.9846 13.5 37.1886 13.5 27.0012C13.5 24.4424 15.4757 22.3649 17.8767 21.48C25.7414 18.5815 30.9248 10.5694 34.128 3.35415C35.1211 1.11709 39.7392 1.56633 40 4V4V19.0403C40 21.3116 41.531 23.2976 43.7275 23.8757L53.0254 26.3225C55.5508 26.987 57.1394 29.4831 56.6723 32.0523L54.5 44L52.1391 55.5094C51.1849 60.1609 47.0914 63.5 42.3431 63.5H27.8249C25.3151 63.5 22.8455 62.8702 20.6421 61.6684L18.5 60.5"/>
  </symbol>
</svg>
