<svg width="68" height="56" fill="none" xmlns="http://www.w3.org/2000/svg"><path d="M44.42 30.503a13.396 13.396 0 0 1 8.792-3.272c7.428 0 13.45 6.022 13.45 13.45 0 7.427-6.022 13.448-13.45 13.448-7.427 0-13.448-6.021-13.448-13.449V29.15a5.764 5.764 0 0 0-11.527.002V40.68c0 7.428-6.022 13.449-13.45 13.449-7.427 0-13.448-6.021-13.448-13.449 0-7.427 6.02-13.449 13.448-13.449 3.361 0 6.435 1.233 8.792 3.272" stroke="#fff" stroke-width="2"/><path d="M60.513 24.926 54.365 8.403c-1.537-4.227-3.825-6.532-8.07-6.532a7.677 7.677 0 0 0-6.38 3.4c-1.401 2.083-3.339 4.285-5.848 4.285h-1c-2.456 0-4.352-2.148-5.697-4.203a7.678 7.678 0 0 0-6.435-3.482c-4.244 0-6.532 2.305-8.069 6.532L6.718 24.926" stroke="#fff" stroke-width="2"/></svg>