<svg width="68" height="34" viewBox="0 0 68 34" fill="none" xmlns="http://www.w3.org/2000/svg">
<path d="M44.4208 8.50277C46.7783 6.46443 49.8514 5.23145 53.2125 5.23145C60.6401 5.23145 66.6613 11.2527 66.6613 18.6802C66.6613 26.1078 60.6401 32.129 53.2125 32.129C45.785 32.129 39.7637 26.1078 39.7637 18.6802L39.7637 17.5V7.15029C39.7637 3.96705 37.1832 1.38892 34 1.38892C30.8167 1.38892 28.2362 3.96944 28.2362 7.15268V17.5V18.6802C28.2362 26.1078 22.215 32.129 14.7874 32.129C7.35985 32.129 1.33862 26.1078 1.33862 18.6802C1.33862 11.2527 7.35985 5.23145 14.7874 5.23145C18.1485 5.23145 21.2217 6.46443 23.5792 8.50277" stroke="white" stroke-width="2"/>
</svg>
