<svg width="184" height="60" fill="none" xmlns="http://www.w3.org/2000/svg"><path d="M17.884 39.246c-.184.046-.276.184-.368.322-2.069 2.3-4.183 4.6-6.252 6.9-.23.276-.46.368-.828.368H.506c-.138 0-.322.046-.506-.046L36.411 18.5c0 .184-.137.276-.183.368-1.747 1.932-3.494 3.864-5.241 5.842-2.023 2.254-4.046 4.508-6.115 6.762-.092.092-.23.184-.23.322-.184.092-.276.23-.414.368-.873.966-1.747 1.978-2.62 2.944-1.195 1.288-2.345 2.622-3.54 3.91-.046 0-.138.092-.184.23Z" fill="#0294DD"/><path d="M.093 43.662c-.078-.156.01-.28.095-.398.015-.02.03-.041.043-.062a422.723 422.723 0 0 0 1.977-3.956c.655-1.322 1.31-2.645 1.977-3.956l10.896-21.804c.046-.069.08-.138.115-.207.034-.069.069-.138.115-.207.096 0 .125.067.15.124.01.024.02.046.034.06l6.482 12.972c.063.126.097.195.085.254-.014.07-.094.127-.269.252-1.471 1.127-2.93 2.266-4.39 3.404a635.215 635.215 0 0 1-4.391 3.404C8.736 36.946 4.415 40.304.093 43.662Z" fill="#444B50"/><path fill-rule="evenodd" clip-rule="evenodd" d="M135.394 41.546a8.47 8.47 0 0 1-.138 1.518c-.23 1.104-.827 1.978-1.793 2.53-.965.598-1.977.92-3.08 1.104-.736.138-1.517.138-2.299.138h-6.804c-1.011 0-2.023-.046-2.988-.322-.368-.092-.736-.184-1.058-.368-1.609-.69-2.436-1.978-2.574-3.726v-9.154c0-.552.046-1.104.23-1.61.275-.874.827-1.518 1.563-2.07.873-.644 1.839-.966 2.896-1.15.69-.092 1.333-.138 2.023-.138h9.425c.367 0 .367 0 .367-.368v-5.106c0-.092.046-.138.138-.138H135.001l.049-.001c.174-.002.261-.002.304.04.043.044.042.13.041.304l-.001.043v18.474Zm-4.23-4.876v-4.738c0-.368 0-.368-.321-.368h-8.598c-.643 0-1.287.092-1.885.322-.781.322-1.287.828-1.425 1.656-.046.276-.046.598-.046.874V41.5c.046 1.104.506 1.656 1.563 1.978.598.184 1.242.23 1.885.23h5.058c.413 0 .827-.046 1.241-.092a3.908 3.908 0 0 0 1.425-.414c.552-.322.919-.782 1.011-1.426.046-.23.046-.414.046-.644.046-1.518.046-2.99.046-4.462ZM86.155 46.836h-5.609c-1.287 0-2.528-.046-3.77-.368-.46-.138-.919-.276-1.333-.506-1.563-.828-2.344-2.116-2.39-3.864v-9.016c0-.414.046-.782.138-1.15.275-1.15.92-2.024 1.93-2.576.828-.46 1.702-.69 2.667-.828.828-.138 1.655-.138 2.483-.138h7.08c1.103 0 2.206.092 3.264.368.368.092.735.23 1.103.414 1.287.69 2.023 1.794 2.207 3.22.086.632.083 1.265.079 1.897-.002.38-.004.76.013 1.139 0 .196-.1.225-.216.258-.02.005-.04.01-.06.018l-2.896.828c-2.16.644-4.333 1.288-6.505 1.931-2.172.645-4.345 1.288-6.506 1.933l-.08.026c-.153.05-.226.074-.26.124-.031.046-.03.114-.029.244l.001.06v.052c0 .368 0 .736.138 1.058.23.736.736 1.242 1.471 1.426.736.184 1.517.23 2.3.23h12.044c.276 0 .414 0 .483.069s.069.206.069.483v2.208c0 .414 0 .414-.414.414h-2.482c-1.701.046-3.31.046-4.92.046Zm-8.827-9.43c.138.046.23 0 .322-.046 1.126-.322 2.241-.656 3.356-.99 1.115-.333 2.23-.666 3.356-.988.805-.23 1.61-.472 2.414-.713.804-.242 1.61-.483 2.414-.713.163-.047.243-.07.283-.123.038-.052.038-.133.038-.291-.045-.782-.413-1.334-1.149-1.656-.506-.23-1.011-.322-1.563-.368-2.115-.046-4.23-.046-6.344 0-.644 0-1.288.138-1.885.414-.782.368-1.242 1.012-1.242 1.932v3.542ZM146.336 46.837h5.654c2.437 0 4.92 0 7.31.092.368 0 .368 0 .368-.322v-2.254c0-.598 0-.598-.552-.598h-11.999c-.781 0-1.517-.046-2.299-.23-.735-.23-1.241-.69-1.471-1.426-.138-.322-.138-.69-.138-1.058 0-.203 0-.307.049-.376.051-.072.154-.106.365-.176 2.205-.644 4.421-1.299 6.637-1.953l.003-.001.007-.002.003-.001c2.216-.655 4.432-1.31 6.637-1.953.873-.23 1.701-.46 2.574-.736l.074-.022c.122-.031.248-.064.248-.254-.017-.385-.009-.77-.002-1.155.014-.673.027-1.346-.09-2.02-.184-1.38-.92-2.437-2.207-3.127a5.028 5.028 0 0 0-1.057-.414c-1.104-.322-2.207-.414-3.31-.414h-7.08c-.828 0-1.655 0-2.483.138-.965.138-1.839.368-2.666.828-1.012.552-1.656 1.426-1.931 2.576a5.014 5.014 0 0 0-.138 1.196v6.348c0 .272-.005.55-.01.83-.011.573-.021 1.16.01 1.746.046 1.794.919 3.128 2.574 3.956.414.184.782.322 1.196.414 1.241.322 2.482.368 3.724.368Zm-2.667-9.476c-.138.046-.276.092-.506.092v-3.496c0-.966.46-1.61 1.334-1.978.597-.276 1.195-.368 1.839-.414.413-.046.873-.046 1.287-.046h4.643c.644 0 1.287.092 1.931.368.69.276 1.103.874 1.149 1.656 0 .322 0 .322-.321.414-.85.252-1.689.505-2.527.758h-.002c-.839.253-1.678.507-2.529.76-1.057.322-2.103.632-3.149.943-1.045.31-2.092.62-3.149.943Z" fill="#444B50"/><path d="M183.943 46.377v-6.532c0-1.196 0-2.438.046-3.68 0-.24.003-.482.005-.726.009-.742.018-1.503-.051-2.264-.138-2.254-1.425-3.818-3.54-4.462-1.012-.322-2.023-.414-3.081-.414h-7.447c-.506 0-1.012.046-1.517.092-.736.092-1.518.23-2.207.552-1.379.598-2.253 1.61-2.667 3.082-.184.644-.23 1.334-.23 2.024v12.42c0 .322.046.322.322.322h3.678c.276 0 .276 0 .276-.322v-11.04c0-.087.01-.183.021-.285v-.002c.012-.114.025-.236.025-.357.092-1.242.69-1.932 1.885-2.3.598-.184 1.241-.23 1.885-.23h4.413c.552 0 1.058.046 1.609.138 1.472.322 2.207 1.196 2.253 2.714v11.316c0 .207 0 .31.052.362.052.052.155.052.362.052h3.554c.161.002.249.003.297-.04.057-.052.057-.168.057-.42ZM45.377 28.39c.137-.046.23-.046.367-.046h3.448c.322 0 .46.092.598.368 1.264 2.254 2.517 4.497 3.77 6.739 1.253 2.242 2.505 4.485 3.77 6.739.03.046.056.092.081.138.052.092.103.184.195.276.046-.069.08-.127.114-.184a4.28 4.28 0 0 1 .116-.184c2.482-4.462 4.965-8.97 7.447-13.478.184-.322.368-.414.69-.414.737.03 1.495.02 2.246.01.373-.005.744-.01 1.11-.01.035 0 .069-.003.103-.006.104-.008.207-.017.31.052.037.108-.012.188-.057.262a.82.82 0 0 0-.034.06l-9.241 16.56c-.69 1.242-1.793 1.61-3.126 1.564-.23 0-.46-.046-.644-.092-.92-.184-1.563-.69-1.977-1.518a578.527 578.527 0 0 0-2.023-3.657c-.678-1.219-1.356-2.438-2.023-3.657a905.44 905.44 0 0 1-5.057-9.154c-.092-.092-.184-.184-.184-.368ZM18.068 38.924c-.092.092-.184.184-.184.322 1.241 2.438 2.436 4.922 3.586 7.314.092.184.23.23.46.23h9.884c.043 0 .08.009.116.017.079.018.142.032.206-.063a1.63 1.63 0 0 0-.092-.207c-.035-.069-.07-.138-.092-.207-.765-1.53-1.534-3.065-2.306-4.603-1.547-3.087-3.102-6.188-4.636-9.289a5.502 5.502 0 0 0-.368-.736 1.06 1.06 0 0 0-.315.263c-.031.035-.064.07-.099.105-.437.483-.873.977-1.31 1.472-.436.494-.874.99-1.31 1.472a272.533 272.533 0 0 1-3.54 3.91ZM41.837 18.455V46.56c0 .169 0 .25-.04.287-.037.035-.105.035-.236.035h-3.77c-.23 0-.322-.092-.276-.276v-23c0-.322.092-.552.276-.782 1.241-1.38 2.482-2.76 3.77-4.14a.45.45 0 0 1 .092-.115.45.45 0 0 0 .092-.115h.092ZM97.373 33.358v13.064c0 .253-.011.368.04.42.052.052.167.04.42.04h3.448c.277 0 .403.024.46-.029.057-.052.046-.179.046-.477V34.462c0-.322.046-.644.092-.966.184-1.012.965-1.748 1.977-1.84a50.342 50.342 0 0 1 2.482-.102c.414-.01.828-.02 1.241-.036h3.219c.321 0 .321 0 .321-.322v-2.53c0-.184-.046-.322-.275-.276h-6.299c-.827 0-1.609 0-2.437.138-.919.138-1.792.368-2.62.828a3.912 3.912 0 0 0-1.885 2.3c-.184.552-.23 1.15-.23 1.702Z" fill="#444B50"/></svg>