<svg width="188" height="40" viewBox="0 0 188 40" fill="none" xmlns="http://www.w3.org/2000/svg">
<path d="M19.0416 0H0V19.0285H19.0404C19.041 15.8571 19.041 12.6856 19.041 9.51423C19.041 6.34281 19.041 3.1714 19.0416 0Z" fill="#B2CFDB"/>
<path d="M40.0274 0H20.9859L20.9857 4.75908C20.9855 9.51554 20.9853 14.272 20.987 19.0285L27.3332 19.0282C31.5643 19.028 35.7955 19.0277 40.0262 19.0285C40.0279 14.2246 40.0277 9.42078 40.0275 4.61694L40.0274 0Z" fill="#B2CFDB"/>
<path d="M171.711 7.25036C173.466 6.10863 175.734 6.00231 177.713 6.54636C177.723 7.26142 177.722 7.97688 177.72 8.69252C177.719 9.15268 177.718 9.61292 177.721 10.0732C176.78 9.65958 175.675 9.38983 174.685 9.79553C173.901 10.1063 173.434 10.911 173.312 11.7155C173.214 12.3969 173.223 13.0844 173.233 13.7716C173.238 14.1135 173.243 14.4556 173.235 14.7966C174.511 14.7995 175.787 14.7992 177.063 14.7989C177.795 14.7987 178.527 14.7985 179.259 14.799C179.266 14.256 179.264 13.7129 179.262 13.1697C179.26 12.4095 179.257 11.6492 179.277 10.8893C180.149 10.6409 181.016 10.3735 181.882 10.1061C182.371 9.95505 182.861 9.80371 183.352 9.65609C183.357 10.3428 183.355 11.0297 183.353 11.7167V11.7189C183.351 12.7484 183.348 13.7782 183.367 14.808C184.232 14.7956 185.099 14.7972 185.965 14.7988C186.457 14.7997 186.949 14.8006 187.441 14.799V18.1405C186.515 18.1025 185.587 18.1094 184.66 18.1162C184.224 18.1194 183.787 18.1227 183.351 18.1212C183.355 19.3447 183.354 20.5682 183.353 21.792V21.8061C183.353 22.4992 183.353 23.1924 183.353 23.8857C183.36 24.2391 183.357 24.5931 183.353 24.9472C183.345 25.6592 183.337 26.3718 183.42 27.08C183.496 27.7052 183.723 28.3978 184.31 28.7211C185.292 29.2708 186.539 29.0308 187.441 28.4274V31.8022C186.265 32.3131 184.949 32.4685 183.676 32.3783C182.469 32.2891 181.218 31.8502 180.43 30.8902C179.519 29.8057 179.285 28.3371 179.266 26.9634C179.26 25.316 179.262 23.6686 179.263 22.0211C179.263 20.7197 179.264 19.4182 179.262 18.1165H179.259C177.251 18.1154 175.243 18.1144 173.235 18.1177C173.233 21.5845 173.233 25.0512 173.233 28.518L173.234 32H169.116C169.116 30.638 169.115 29.2761 169.115 27.9143V27.8926C169.113 24.6359 169.112 21.3794 169.118 18.1223C168.647 18.1133 168.175 18.1143 167.704 18.1153C167.22 18.1163 166.736 18.1173 166.252 18.1075L166.253 17.8737V17.8708C166.256 16.8513 166.26 15.8309 166.25 14.8102C167.131 14.7901 168.014 14.7966 168.898 14.8031L169.104 14.8046C169.126 14.3563 169.12 13.9041 169.113 13.4513V13.4489C169.1 12.4276 169.086 11.4035 169.388 10.4183C169.757 9.13376 170.578 7.975 171.711 7.25036Z" fill="#B2CFDB"/>
<path fill-rule="evenodd" clip-rule="evenodd" d="M155.597 14.4813C157.652 14.2263 159.835 14.3646 161.71 15.3109C163.346 16.1278 164.614 17.6047 165.247 19.3118C165.743 20.6184 165.916 22.0286 165.888 23.4192C165.891 25.4973 165.33 27.6297 164.025 29.2776C162.804 30.8733 160.935 31.9094 158.962 32.2356C157.033 32.5471 154.995 32.4661 153.162 31.7449C151.304 31.0149 149.76 29.5247 148.978 27.6892C148.163 25.8181 148.077 23.7132 148.331 21.7141C148.597 19.7156 149.503 17.761 151.047 16.4319C152.312 15.3221 153.94 14.6937 155.597 14.4813ZM156.709 17.7566C157.872 17.6751 159.114 17.9436 160.008 18.7288C160.833 19.4124 161.289 20.4363 161.499 21.4671C161.734 22.6765 161.732 23.928 161.533 25.1428C161.375 26.0476 161.062 26.9509 160.468 27.6673C159.87 28.3875 158.98 28.8259 158.062 28.9612C157.076 29.1087 156.038 29.0374 155.116 28.6409C154.121 28.2205 153.35 27.3596 152.944 26.3704C152.456 25.1907 152.359 23.8846 152.456 22.6228C152.55 21.4012 152.896 20.1473 153.704 19.1976C154.44 18.3108 155.57 17.8206 156.709 17.7566Z" fill="#B2CFDB"/>
<path d="M139.858 14.5207C141.762 14.1859 143.755 14.4317 145.558 15.1139C145.559 15.8367 145.559 16.559 145.559 17.2812C145.558 17.8198 145.558 18.3582 145.559 18.8967C144.3 18.0317 142.762 17.5665 141.234 17.6202C140.464 17.6499 139.618 17.9757 139.267 18.707C138.988 19.4304 139.181 20.379 139.864 20.8122C140.506 21.2415 141.216 21.5349 141.927 21.8285C142.508 22.0686 143.09 22.3088 143.634 22.6236C144.587 23.1584 145.511 23.8579 145.993 24.8659C146.9 26.7539 146.516 29.2487 144.922 30.6567C143.4 32.0784 141.207 32.4716 139.191 32.3961C137.759 32.3036 136.321 32.0212 135.004 31.4361C135.007 30.8989 135.006 30.362 135.005 29.8251C135.004 29.0359 135.002 28.2469 135.011 27.4579C136.118 28.2613 137.396 28.8361 138.747 29.0693C139.689 29.2224 140.712 29.2293 141.589 28.8087C142.429 28.3916 142.58 27.1996 142.081 26.4704C141.63 25.9274 140.976 25.6199 140.35 25.3256L140.283 25.2944C140.036 25.1832 139.785 25.0756 139.535 24.9679C138.558 24.5481 137.577 24.1265 136.729 23.4761C135.98 22.8921 135.413 22.0693 135.191 21.1413C134.861 19.7733 134.964 18.2317 135.76 17.0362C136.669 15.643 138.249 14.8077 139.858 14.5207Z" fill="#B2CFDB"/>
<path fill-rule="evenodd" clip-rule="evenodd" d="M122.774 14.4865C124.75 14.235 126.835 14.3469 128.669 15.1813C130.261 15.8992 131.551 17.2258 132.266 18.8146C133.029 20.506 133.214 22.4055 133.085 24.2394C132.958 26.0304 132.395 27.8249 131.274 29.2477C130.127 30.7585 128.398 31.7824 126.546 32.1628C124.964 32.4923 123.308 32.4909 121.725 32.1584C119.831 31.7541 118.078 30.6554 116.967 29.0578C115.664 27.2062 115.293 24.8522 115.459 22.634C115.571 20.7517 116.157 18.8546 117.36 17.3777C118.677 15.7244 120.698 14.7482 122.774 14.4865ZM124.002 17.7526C125.239 17.6716 126.557 18.0212 127.447 18.9206C128.398 19.8557 128.766 21.2121 128.868 22.5056C128.941 23.9216 128.883 25.3972 128.288 26.7092C127.895 27.5939 127.174 28.341 126.265 28.6955C125.202 29.1037 124.006 29.1276 122.909 28.8429C121.791 28.549 120.843 27.7424 120.327 26.715C119.664 25.3913 119.565 23.861 119.702 22.4099C119.827 21.0895 120.286 19.7321 121.293 18.821C122.022 18.1398 123.017 17.8073 124.002 17.7526Z" fill="#B2CFDB"/>
<path d="M111.374 15.0625C112.51 14.3803 113.955 14.3232 115.196 14.7403C115.192 15.5015 115.193 16.2627 115.193 17.0239V17.0288C115.193 17.6385 115.194 18.2483 115.192 18.858C114.38 18.3322 113.367 18.1072 112.409 18.2042C111.24 18.3369 110.313 19.234 109.833 20.2626C109.312 21.3517 109.213 22.5837 109.246 23.7746L109.247 26.5163C109.247 28.3441 109.247 30.1719 109.246 31.9997H105.187C105.185 29.6126 105.186 27.2253 105.186 24.838C105.187 21.4945 105.188 18.1509 105.183 14.8077C106.531 14.7906 107.879 14.7974 109.226 14.8041L109.249 14.8043C109.246 15.351 109.246 15.8977 109.246 16.4446C109.247 16.8821 109.247 17.3196 109.245 17.7574C109.686 16.6865 110.341 15.6465 111.374 15.0625Z" fill="#B2CFDB"/>
<path d="M100.99 14.801C99.0033 14.24 96.8602 14.217 94.8725 14.7828C93.0484 15.3085 91.3742 16.4274 90.3037 18.008C89.0263 19.8605 88.5745 22.1748 88.6752 24.3931C88.7747 26.5268 89.6164 28.6571 91.1672 30.1508C92.5944 31.5359 94.5603 32.2822 96.5319 32.3862C98.459 32.4811 100.477 32.2228 102.161 31.2216C102.153 30.5651 102.154 29.9085 102.155 29.252V29.2499C102.156 28.6649 102.157 28.0798 102.152 27.4948C101.066 28.2879 99.7993 28.8559 98.4567 29.0102C97.098 29.113 95.6422 28.7862 94.6038 27.8639C93.6042 27.0125 93.0724 25.7291 92.9398 24.4445C92.7625 22.8034 93.0004 21.0217 94.0308 19.6799C94.8325 18.5977 96.1111 17.9028 97.4514 17.7817C99.1394 17.569 100.824 18.2114 102.152 19.2251C102.157 18.6523 102.156 18.0795 102.155 17.5068V17.5049C102.153 16.7665 102.151 16.0282 102.164 15.2902C101.796 15.0742 101.399 14.9154 100.99 14.801Z" fill="#B2CFDB"/>
<path d="M85.8186 8.29707C85.2686 7.64774 84.3696 7.36454 83.5393 7.49001C82.3958 7.62041 81.4202 8.65934 81.4511 9.82493C81.4031 10.9324 82.294 11.9255 83.3633 12.1175C84.3937 12.3429 85.5762 11.9075 86.1045 10.9704C86.5825 10.1393 86.4636 9.008 85.8186 8.29707Z" fill="#B2CFDB"/>
<path d="M82.4937 14.8011L81.8251 14.8044C81.8268 17.6706 81.8266 20.5368 81.8262 23.4025C81.826 26.2683 81.8257 29.134 81.8274 31.9997H85.9159C85.9182 29.7052 85.9172 27.4108 85.9161 25.1164L85.9161 24.992C85.9146 21.5984 85.9132 18.2044 85.9227 14.8112C84.78 14.7893 83.6366 14.7952 82.4937 14.8011Z" fill="#B2CFDB"/>
<path d="M57.9673 7.99969H51.9781C51.9758 15.9997 51.977 23.9997 51.9781 31.9997C52.5018 31.9992 53.0257 31.9995 53.5496 31.9997C54.3324 32.0001 55.1155 32.0005 55.8985 31.9985C55.8964 29.8478 55.8969 27.6971 55.8973 25.5464C55.8975 24.1154 55.8978 22.6844 55.8974 21.2534C55.9025 20.2786 55.8998 19.3035 55.897 18.3283C55.8923 16.7161 55.8877 15.1038 55.9191 13.4922C55.9934 13.6099 56.062 13.7322 56.1261 13.8579C57.0455 16.1338 57.9623 18.411 58.8792 20.6883C60.3983 24.4615 61.9175 28.235 63.4488 32.0031C63.8609 31.9964 64.273 31.9983 64.685 32.0002C65.2597 32.0028 65.8344 32.0054 66.4085 31.9848C67.7475 28.5623 69.1056 25.147 70.4636 21.7319L70.464 21.7308C71.5056 19.1114 72.5472 16.492 73.5802 13.8694C73.6432 13.7369 73.7151 13.6089 73.7963 13.4854C73.8146 13.7506 73.8238 14.0157 73.8215 14.2809C73.8181 16.8601 73.8191 19.4392 73.8202 22.0181C73.8216 25.3423 73.823 28.6665 73.8146 31.9905C74.7189 32.0032 75.6231 32.0013 76.5276 31.9993C77.0084 31.9983 77.4896 31.9973 77.9706 31.9985L77.9701 28.3842C77.969 21.5901 77.968 14.7961 77.9718 8.00195C77.3124 8.00356 76.653 8.00178 75.9937 8L75.9926 8C74.7313 7.9966 73.4697 7.9932 72.209 8.01342C70.7675 11.5986 69.3066 15.1754 67.8458 18.7522L67.8451 18.7539C66.8944 21.0815 65.9437 23.4092 64.9984 25.7391C64.6817 24.9953 64.3866 24.2424 64.0916 23.4896C63.921 23.0544 63.7504 22.6193 63.5757 22.186C62.7169 20.0094 61.8557 17.8338 60.9945 15.6582L60.9918 15.6513C59.9823 13.1011 58.9728 10.5511 57.9673 7.99969Z" fill="#B2CFDB"/>
<path d="M0 20.97C2.89719 20.971 5.79438 20.9709 8.69158 20.9708H8.70159C12.1482 20.9706 15.5949 20.9704 19.0416 20.9723C19.0423 25.1923 19.042 29.4118 19.0418 33.6315L19.0416 39.9997H0V20.97Z" fill="#B2CFDB"/>
<path d="M35.1343 20.971C30.4181 20.9708 25.7021 20.9706 20.9867 20.9723C20.9854 24.5954 20.9856 28.219 20.9858 31.8427C20.9859 34.5616 20.9861 37.2807 20.9856 39.9997H40.0271V20.9712C38.3962 20.9712 36.7652 20.9711 35.1343 20.971Z" fill="#B2CFDB"/>
</svg>
