<svg width="231" height="60" viewBox="0 0 231 60" fill="none" xmlns="http://www.w3.org/2000/svg">
<path d="M27.1067 23.0306C22.8391 23.0306 19.5598 26.0019 19.5598 29.9782C19.5598 33.9544 22.7493 37.0131 26.9719 37.0131C29.0383 37.0131 31.1946 36.0518 32.677 34.5662L30.7903 32.5999C29.7571 33.6049 28.3645 34.2166 27.1067 34.2166C24.6809 34.2166 22.7942 32.3814 22.7942 29.9782C22.7942 27.5749 24.6809 25.7397 27.1067 25.7397C28.4094 25.7397 29.802 26.4388 30.7903 27.5312L32.6321 25.3465C31.2844 23.9045 29.1282 23.0306 27.1067 23.0306ZM0.333252 12.5H230.333V47.5H0.333252V12.5ZM228.851 13.9419H1.81567V46.058H228.806V13.9419H228.851ZM53.4309 23.118H50.2414V31.1142C50.2414 33.0805 48.9836 34.304 47.0969 34.304C45.2102 34.304 43.8626 33.1242 43.8626 31.1142V23.118H40.6731V31.1142C40.6731 34.7409 43.1887 37.0131 47.0969 37.0131C51.0051 37.0131 53.4309 34.7409 53.4309 31.1142V23.118ZM67.8059 22.9869C64.5266 22.9869 62.3254 24.5599 62.3254 27.0506C62.3254 31.9444 69.8723 30.4151 69.8723 32.9931C69.8723 33.8234 69.0637 34.304 67.761 34.304C66.2786 34.304 64.2122 33.5175 62.7297 32.2503L61.4719 34.7846C63.0891 36.0955 65.3801 36.9694 67.7161 36.9694C70.8606 36.9694 73.2414 35.5275 73.2414 32.8184C73.2414 27.8808 65.7395 29.279 65.7395 26.7447C65.7395 26.0019 66.4582 25.6086 67.5364 25.6086C68.6594 25.6086 70.4563 26.1767 71.9387 27.0069L73.1516 24.4288C71.759 23.5986 69.7825 22.9869 67.8059 22.9869ZM92.2434 25.7397V23.118H80.4289V25.7397H84.7415V36.882H87.9309V25.7397H92.2434ZM106.124 23.0306C101.812 23.0306 98.5325 26.0019 98.5325 30.0218C98.5325 33.9981 101.812 37.0568 106.124 37.0568C110.437 37.0568 113.716 33.9981 113.716 30.0218C113.716 26.0019 110.437 23.0306 106.124 23.0306ZM106.169 25.7397C108.55 25.7397 110.437 27.5749 110.437 30.0218C110.437 32.4251 108.505 34.3477 106.169 34.3477C103.788 34.3477 101.812 32.4688 101.812 30.0218C101.812 27.5749 103.788 25.7397 106.169 25.7397ZM137.525 36.882V23.118H133.976L129.888 31.5512L125.755 23.118H122.161V36.882H125.036V27.6186L128.81 35.4838H130.876L134.65 27.6186V36.882H137.525ZM156.347 34.2166L157.47 36.882H160.884L154.82 23.118H151.54L145.386 36.882H148.665L149.788 34.2166H156.347ZM155.314 31.726H150.866L153.113 26.3951L155.314 31.726ZM177.64 25.7397V23.118H165.825V25.7397H170.138V36.882H173.327V25.7397H177.64ZM188.87 36.882V23.118H185.681V36.882H188.87ZM205.986 29.716L210.702 23.118H206.929L203.964 27.3127L200.999 23.118H197.271L201.988 29.8471L196.911 36.882H200.64L203.919 32.294L207.243 36.882H211.062L205.986 29.716Z" fill="#11181F"/>
</svg>
