<svg width="113" height="60" viewBox="0 0 113 60" fill="none" xmlns="http://www.w3.org/2000/svg">
<path fill-rule="evenodd" clip-rule="evenodd" d="M64.0583 29.0106C62.9157 27.5482 61.6693 27.1303 60.0768 27.4785C59.3497 29.2891 58.2763 31.8658 57.0646 34.721C52.0442 41.9286 49.4476 46.0025 49.4476 46.0025C50.3477 41.0581 52.6675 35.6611 56.3721 29.7766C55.2296 28.1749 53.9139 27.6526 52.3559 28.2445C51.9414 29.1855 51.5227 30.1101 51.1071 31.0269L51.0844 31.0775L51.0667 31.1168L51.0523 31.1481L51.0407 31.1733L51.0318 31.1932L51.0246 31.2089L51.0213 31.2165L51.0202 31.2185C50.2504 32.9158 49.4921 34.5878 48.7897 36.2879L41.519 46.2463C42.4884 41.4063 44.7735 36.1138 48.3743 30.3685C47.197 28.8017 45.8814 28.2794 44.3234 28.8713C43.5618 30.6471 42.7654 32.3533 41.9691 34.0246L40.3072 30.9953C39.1647 29.3936 37.8143 28.8713 36.2563 29.498C35.7328 30.6652 35.2033 31.8149 34.6775 32.9567L34.6731 32.9664L34.6714 32.9701L34.6709 32.9717C33.9127 34.6179 33.1622 36.2477 32.4478 37.8896L25.3502 47.465C26.7005 41.8938 29.401 34.4076 32.2747 28.2794C33.0121 28.1504 33.809 28.0811 34.5552 28.0163L34.7329 28.0008C34.6984 27.3741 34.4561 26.8518 34.1098 26.5036C33.8075 26.436 33.473 26.4667 33.1057 26.5004L33.071 26.5036L33.3606 25.9417L33.3672 25.9288L33.3733 25.9172C34.2001 24.3133 34.996 22.7701 35.737 21.5592C34.5945 19.9923 33.2441 19.6441 31.5477 19.9923C31.4163 20.3026 31.2751 20.6391 31.1244 20.9989L31.1188 21.0117C30.4744 22.5475 29.6533 24.5042 28.6739 26.6428C28.1893 26.6777 26.7784 26.7038 25.3675 26.7299C23.9566 26.756 22.5457 26.7821 22.0611 26.8169C22.165 27.7222 22.6496 28.4186 23.169 28.8713C23.3105 28.8594 23.8616 28.8476 24.5405 28.833C25.8553 28.8047 27.6495 28.7661 27.8778 28.6972C25.9734 33.2237 23.8614 38.4119 22.3034 42.7295C22.0264 41.093 21.2301 39.8395 20.3645 39.1431C19.6745 38.822 18.151 38.2759 16.3247 37.6213L16.3214 37.6202C12.0085 36.0745 6.00894 33.9242 5.30377 32.7014C1.70301 26.2598 20.5377 10.4517 30.7167 3.87084C31.3399 4.95024 21.6802 20.445 10.9818 27.1651C11.0621 27.4293 11.1387 27.7107 11.2169 27.9979L11.2186 28.004L11.2203 28.0103L11.2219 28.0168C11.7501 29.9593 12.3481 32.1583 14.5134 31.0997C21.611 25.2849 34.4906 10.9044 33.3135 1.32901C33.0225 1.17294 32.7543 1.02659 32.5085 0.892226L32.4924 0.883509C31.4307 0.30356 30.7826 -0.0504871 30.4744 0.00586429C24.6924 2.86107 17.5256 8.04919 10.9473 14.4908C3.22647 21.9074 -2.24396 30.1596 0.941374 35.5915C2.65529 38.5626 9.31958 40.6473 13.7964 42.0477C16.1926 42.7973 17.9621 43.3508 18.0102 43.7393C18.3218 45.9677 2.32624 54.1851 0.283453 54.5681C0.421865 56.8662 0.941374 59.0599 2.60325 59.8955C9.28526 56.2743 17.0755 51.0514 21.1609 46.3159C20.8147 47.4301 20.5031 48.4399 20.2953 49.3104C20.5031 51.5737 21.9919 52.8272 24.5885 53.2798L29.6088 45.6195C29.2971 46.5596 29.0203 47.5346 28.7778 48.5444C28.9509 50.738 30.336 52.0263 32.8979 52.4093C36.2216 47.0819 38.1952 43.5652 38.1952 43.5652C37.7451 44.9231 37.3297 46.3507 36.9143 47.8131C37.1219 49.972 38.4722 51.2603 40.965 51.6433L45.8814 44.0874C45.5698 45.0624 45.2928 46.0373 45.0158 47.0471C45.1889 49.2408 46.5393 50.5291 49.032 50.8773C51.5249 46.9078 53.1868 43.983 53.8792 42.7643C51.8711 47.9872 50.0361 53.0361 49.3437 56.2047C49.586 58.3983 50.9709 59.6518 53.4638 60C53.1523 53.8021 59.4881 36.8102 64.0583 29.0106ZM33.2788 47.465C34.1098 42.9384 36.1179 37.994 39.3378 32.6666L41.1381 36.0093C37.5454 41.1117 35.161 44.6735 34.0329 46.3588C33.5521 47.0772 33.2995 47.4545 33.2788 47.465ZM79.0845 16.6844C80.2616 16.3711 82.0274 16.4755 83.1007 17.1371L79.2229 24.6929C77.8969 23.6385 77.3675 23.5232 76.6313 23.363C76.5411 23.3433 76.4477 23.323 76.3493 23.3002L79.0845 16.6844ZM112.218 30.5078C110.21 33.1889 105.432 39.2823 102.939 41.5108C101.174 43.0429 100.931 41.476 101.001 40.5359C101.243 39.5261 101.485 38.5511 101.762 37.5762C102.316 38.3422 103.528 38.5511 104.394 38.2378C107.198 36.0093 111.007 26.7821 108.652 25.5634C108.652 25.5634 107.96 25.076 106.055 24.1707C104.982 23.8225 104.186 24.0662 103.494 24.867C101.52 27.6526 99.8234 31.0301 98.6116 34.9995L94.0761 41.4412C94.9763 36.8102 97.1228 31.6917 100.412 26.1902C99.3732 24.6233 98.127 24.1707 96.7074 24.7626C94.9069 26.1554 91.6179 30.5078 88.4325 35.9745C89.5751 33.0496 91.1331 29.9507 93.0374 26.7821C91.9988 25.2152 90.7177 24.7278 89.2636 25.3197C87.4286 26.7125 84.0701 31.0997 80.8848 36.6012C82.0274 33.6416 83.5508 30.5426 85.5589 27.3392C84.4511 25.7724 83.2046 25.2849 81.7504 25.8768L81.2698 26.9573L81.2654 26.9676C80.1199 29.5414 79.0042 32.0482 77.942 34.5817L71.6752 43.3562C72.61 38.6208 74.8258 33.4675 78.219 27.9312C77.1109 26.3295 75.83 25.8768 74.4104 26.4687C74.1299 27.0976 73.8494 27.7228 73.5702 28.3451C72.6432 30.4102 71.7304 32.4437 70.8789 34.4772L64.093 43.8785C65.8586 36.1834 70.325 24.7626 73.8564 18.7388C72.7832 17.2416 71.5021 16.8585 69.9441 17.2067C69.5448 18.1942 69.0387 19.4222 68.4642 20.816L68.4637 20.8169L68.4609 20.8242C65.4498 28.13 60.5647 39.9838 59.315 45.6543C59.5573 47.7783 60.9076 49.0667 63.3658 49.4845L68.1091 42.1027C67.8336 43.0033 67.5924 43.9038 67.3512 44.8044L67.3473 44.8187C67.5204 46.9775 68.8016 48.231 71.1559 48.614L75.3107 42.0679L75.2145 42.4043L75.2129 42.4106L75.2123 42.413C75.0381 43.0214 74.8676 43.6168 74.7219 44.2615C74.8951 46.3159 76.0376 47.5346 78.219 47.9872C78.2493 47.9949 78.2764 48.0025 78.3013 48.0098L78.3535 48.0253L78.3795 48.0328L78.4091 48.0408C78.4211 48.0438 78.4331 48.0465 78.4451 48.0487C78.4582 48.0512 78.4713 48.0532 78.4849 48.0546C78.4995 48.0561 78.5146 48.0569 78.5305 48.0569V47.7087C78.7383 44.1919 83.9316 33.9201 87.0477 30.4034C85.178 34.6513 83.4816 38.8297 82.3044 43.5652C82.4775 45.6195 83.6547 46.8034 85.7667 47.256C85.9051 47.2909 86.009 47.3257 86.0782 47.3257V46.9775C86.286 43.4607 91.4101 33.2586 94.4915 29.8114C92.6912 34.0246 91.0293 38.1681 89.8521 42.9036C90.0252 45.0276 91.2717 46.2463 93.5913 46.6293L97.2267 40.8144L97.1228 41.3367C96.9497 41.9635 97.0536 42.625 97.3998 43.3911C97.6769 43.6348 100.239 45.8981 100.239 45.8981C102.847 45.8981 107.902 39.4009 110.419 36.1663L110.487 36.0789C110.568 35.9749 110.651 35.8694 110.735 35.7624C111.946 34.2236 113.384 32.3961 112.218 30.5078ZM103.978 34.9299C105.121 33.2237 108.237 24.7974 105.813 28.2794C104.498 30.4034 103.39 32.7363 102.524 35.2433C103.078 35.5218 103.563 35.3826 103.978 34.9299Z" fill="black"/>
</svg>
