<svg width="91" height="92" viewBox="0 0 91 92" fill="none" xmlns="http://www.w3.org/2000/svg">
<path d="M8.44708 68.2299C4.72033 64.2924 1.83882 59.3004 1.13457 53.4639C0.361324 46.9254 2.40133 40.8092 5.84608 35.8164C16.955 19.7844 32.846 7.12892 52.3925 1.43342C57.7363 -0.114576 63.572 0.0264238 69.0568 2.41742C74.5408 4.73792 78.6898 8.88617 81.221 13.8084C90.572 31.8782 92.33 52.1282 88.3925 71.1834C87.197 77.1594 84.1033 82.7844 78.83 86.7219C74.1193 90.2379 68.564 91.5032 63.08 91.5737C44.8693 91.9254 21.314 81.6594 8.44708 68.2299Z" fill="#00C3FF"/>
<path d="M7.9552 62.7462C4.79095 58.5259 2.61145 53.4634 2.61145 47.8384C2.61145 41.5107 5.2132 35.8857 9.0802 31.5259C21.5257 17.4634 38.1194 7.12843 57.5257 3.96343C62.799 3.11968 68.3535 3.89368 73.3463 6.77593C78.3382 9.65893 81.8535 14.0884 83.6813 19.0812C90.6428 37.4322 90.0098 56.9794 84.0338 74.7687C82.2053 80.3232 78.6187 85.3857 73.1347 88.5499C68.2132 91.3624 62.7285 91.9249 57.5257 91.3624C40.0882 89.6044 18.6427 77.0892 7.9552 62.7454V62.7462Z" fill="#0E0E2B"/>
<path d="M72.0799 52.6904L78.1969 48.6127L77.2129 47.0654L49.7906 65.4172L50.7754 66.9644L70.3924 53.8859L57.4549 67.3859L58.7906 68.6519L62.9389 64.2217L58.1584 74.6984L59.7754 75.4717L65.1191 63.9404L63.8531 63.3779L73.0639 53.6047L72.0799 52.6904Z" fill="#00C3FF"/>
<path d="M63.2215 45.3781H67.5099L68.5644 41.5111H64.2766L66.3857 33.6361H62.0266L57.808 49.3156H48.1037C44.0965 49.3156 43.0413 46.8549 43.6742 43.4799C44.3071 40.1049 47.3304 37.3629 50.2839 37.2924C52.6741 37.2924 53.869 38.6986 53.869 40.3156C53.869 40.7379 53.7992 41.2299 53.7287 41.4406H48.3145L47.26 45.3084H57.1037C57.5957 43.9719 58.018 42.2139 58.018 40.8781C58.018 36.8004 55.3456 33.5656 50.4946 33.5656C43.9555 33.5656 39.4555 39.4021 39.4555 44.9566C39.4555 50.0191 42.7599 53.1826 47.9634 53.1826H56.8216C56.0485 55.9951 57.8064 58.3156 60.5484 58.3861H64.1341L65.1887 54.4486H62.0956C61.4627 54.3781 61.0405 53.8156 61.2512 53.1826L63.2206 45.3781H63.2215ZM37.5572 28.4334H32.9867L31.9323 32.3709H36.2913L32.284 47.2059C31.7913 48.6129 30.6663 49.4559 28.9788 49.3156H27.3617L26.3073 53.2531H27.8538C29.9635 53.3236 32.3537 53.1129 34.1822 51.2844L34.252 51.2139C35.3073 50.1594 36.2214 48.8236 36.643 47.1361L41.635 28.4326H37.5572V28.4334Z" fill="white"/>
</svg>
