<svg width="198" height="60" viewBox="0 0 198 60" fill="none" xmlns="http://www.w3.org/2000/svg">
<path d="M7.6708 39.9831C8.6558 32.4818 9.6802 24.9806 10.6652 17.4004C11.9654 17.4004 13.108 17.4004 14.4082 17.4004C15.3538 24.7042 16.2994 31.9291 17.2844 39.1935C17.442 39.1935 17.639 39.1935 17.7966 39.1935C18.7816 31.9686 19.7272 24.7437 20.7122 17.4004C21.8154 17.4004 22.8004 17.4004 24.0612 17.4004C22.7216 27.3889 21.382 37.2589 20.003 47.2869C18.3482 47.2869 16.851 47.2869 15.078 47.2869C14.29 41.7597 13.4626 36.2324 12.6746 30.6657C12.517 30.6263 12.3594 30.6263 12.2018 30.5868C11.3744 36.1535 10.5076 41.6807 9.6408 47.3264C7.9466 47.3264 6.41 47.3264 4.5976 47.3264C3.258 37.4169 1.879 27.5073 0.5 17.4004C1.879 17.4004 2.9428 17.4004 4.2036 17.4004C5.2674 24.9411 6.2918 32.4423 7.3556 39.9436C7.4738 39.9436 7.5526 39.9831 7.6708 39.9831Z" fill="#ED2024"/>
<path d="M42.1852 17.2819C45.1796 17.2819 48.0164 17.0451 50.7744 17.4004C52.1534 17.5583 53.7688 18.5058 54.6356 19.6113C56.9208 22.5328 55.9752 28.7312 53.099 31.3369C57.3148 34.2189 56.448 38.5223 56.0146 42.5887C55.6994 45.4313 53.5718 47.2869 50.7744 47.4053C47.977 47.5238 45.1402 47.4448 42.1852 47.4448C42.1852 37.4168 42.1852 27.5073 42.1852 17.2819ZM45.81 44.0495C48.1346 43.9706 51.0108 44.9576 51.8382 42.4703C52.5868 40.141 52.5868 37.101 51.6806 34.8506C50.8138 32.7187 48.0164 33.2319 45.81 33.5478C45.81 37.0615 45.81 40.4173 45.81 44.0495ZM45.8888 29.9156C48.0558 29.9946 50.5774 30.5473 51.4048 28.4154C52.114 26.5598 52.114 23.9936 51.3654 22.138C50.4986 19.8876 47.9376 20.7957 45.8494 20.7562C45.8888 23.7962 45.8888 26.7177 45.8888 29.9156Z" fill="#ED2024"/>
<path d="M152.111 32.1266C152.111 29.5604 152.072 26.9547 152.111 24.3884C152.229 19.4929 154.751 16.8872 159.203 16.8872C163.616 16.8872 166.295 19.6113 166.335 24.3884C166.413 29.7183 166.413 35.0481 166.335 40.3779C166.295 45.155 163.616 47.8792 159.203 47.8792C154.751 47.8792 152.229 45.2735 152.111 40.3779C152.072 37.6143 152.111 34.8902 152.111 32.1266ZM162.631 32.4819C162.631 29.8367 162.71 27.1521 162.592 24.5069C162.513 21.7828 161.449 20.6378 159.282 20.5983C157.036 20.5589 155.933 21.5854 155.894 24.349C155.775 29.6788 155.775 34.9691 155.894 40.299C155.933 43.1021 157.036 44.1285 159.282 44.0891C161.449 44.0891 162.513 42.9441 162.631 40.1805C162.71 37.6538 162.631 35.0876 162.631 32.4819Z" fill="#ED2024"/>
<path d="M146.359 25.731C146.162 24.4282 146.28 23.3227 145.768 22.6515C145.098 21.783 143.995 20.796 143.049 20.7565C142.064 20.717 140.606 21.5461 140.173 22.4147C138.991 24.665 139.661 26.9154 141.394 28.6525C142.931 30.2317 144.665 31.5346 146.28 33.0348C149.156 35.6405 150.535 38.7595 149.59 42.7075C148.802 45.9449 146.713 47.7215 143.246 47.8794C139.661 48.0373 137.139 46.4976 136.272 43.2207C135.878 41.681 135.918 40.0228 135.721 38.2462C137.06 38.2462 138.006 38.2462 139.149 38.2462C139.267 39.2727 139.346 40.2597 139.503 41.2467C139.779 43.1023 140.685 44.2077 142.773 44.1683C144.822 44.1288 145.65 43.0233 145.925 41.1678C146.319 38.72 145.295 36.9039 143.601 35.3247C142.182 33.9824 140.606 32.8374 139.188 31.4951C136.903 29.3632 135.681 26.797 135.957 23.5596C136.272 19.2957 138.952 16.769 143.167 16.9269C147.265 17.0848 149.944 20.0064 149.787 24.1518C149.629 26.8759 147.659 25.3362 146.359 25.731Z" fill="#ED2024"/>
<path d="M39.2302 17.4795C39.2302 18.427 39.2302 19.3351 39.2302 20.5589C36.3146 20.5589 33.399 20.5589 30.3652 20.5589C30.3652 23.9542 30.3652 27.0337 30.3652 30.429C32.7292 30.429 35.1326 30.429 37.6148 30.429C37.6148 31.6134 37.6148 32.5214 37.6148 33.7453C35.2508 33.7453 32.8868 33.7453 30.3652 33.7453C30.3652 37.2986 30.3652 40.5359 30.3652 44.0891C33.2808 44.0891 36.2358 44.0891 39.2302 44.0891C39.2302 45.313 39.2302 46.2211 39.2302 47.287C35.0932 47.287 30.9956 47.287 26.6616 47.287C26.6616 37.4565 26.6616 27.5469 26.6616 17.4795C30.7986 17.4795 34.9356 17.4795 39.2302 17.4795Z" fill="#ED2024"/>
<path d="M91.317 33.8638C88.8742 33.8638 86.6284 33.8638 84.2644 33.8638C84.2644 37.2986 84.2644 40.5754 84.2644 44.0891C87.18 44.0891 90.0562 44.0891 93.0112 44.0891C93.0112 45.2735 93.0112 46.1816 93.0112 47.287C88.8742 47.287 84.6978 47.287 80.4032 47.287C80.4032 37.3775 80.4032 27.5469 80.4032 17.4795C84.5796 17.4795 88.7166 17.4795 93.0112 17.4795C93.0112 18.427 93.0112 19.3351 93.0112 20.5195C90.2138 20.5195 87.3376 20.5195 84.3038 20.5195C84.3038 23.8753 84.3038 26.9547 84.3038 30.35C86.5102 30.35 88.8348 30.35 91.317 30.35C91.317 31.6134 91.317 32.5609 91.317 33.8638Z" fill="#ED2024"/>
<path d="M173.072 30.9027C175.357 30.9027 177.445 30.9027 179.731 30.9027C179.731 32.0081 179.731 32.9951 179.731 34.1795C177.564 34.1795 175.436 34.1795 172.993 34.1795C172.993 38.6803 172.993 42.9047 172.993 47.287C171.614 47.287 170.59 47.287 169.329 47.287C169.329 37.4169 169.329 27.5074 169.329 17.4399C173.269 17.4399 177.288 17.4399 181.425 17.4399C181.425 18.4269 181.425 19.414 181.425 20.5984C178.627 20.5984 175.909 20.5984 173.072 20.5984C173.072 24.1121 173.072 27.3495 173.072 30.9027Z" fill="#ED2024"/>
<path d="M188.202 20.5589C186.113 20.5589 184.498 20.5589 182.764 20.5589C182.764 19.4534 182.764 18.5454 182.764 17.4399C187.65 17.4399 192.496 17.4399 197.5 17.4399C197.5 18.4269 197.5 19.335 197.5 20.5589C195.766 20.5589 193.993 20.5589 192.063 20.5589C192.063 29.5998 192.063 38.325 192.063 47.2475C190.723 47.2475 189.62 47.2475 188.202 47.2475C188.202 38.5224 188.202 29.7183 188.202 20.5589Z" fill="#ED2024"/>
<path d="M77.9604 47.3265C73.8628 47.3265 69.9228 47.3265 65.8252 47.3265C65.8252 37.338 65.8252 27.4679 65.8252 17.4399C66.9678 17.4399 68.1104 17.4399 69.45 17.4399C69.45 26.2045 69.45 34.9692 69.45 43.9706C72.3656 43.9706 75.0448 43.9706 77.921 43.9706C77.9604 45.1945 77.9604 46.1815 77.9604 47.3265Z" fill="#ED2024"/>
<path d="M59.0483 17.3608C60.3091 17.3608 61.2941 17.3608 62.4761 17.3608C62.4761 27.3099 62.4761 37.2194 62.4761 47.2868C61.4123 47.2868 60.3091 47.2868 59.0483 47.2868C59.0483 37.3378 59.0483 27.4678 59.0483 17.3608Z" fill="#ED2024"/>
<path d="M125.162 43.3388C125.162 43.3388 125.162 42.8256 125.162 42.1544V35.956C125.162 35.2848 124.61 34.7716 123.98 34.7716H119.685C119.055 34.7716 118.503 34.6137 118.503 34.3768C118.503 34.1399 119.055 33.982 119.685 33.982H123.98C124.61 33.982 125.162 33.4688 125.162 32.7976V20.9141C125.162 20.2824 125.162 19.7296 125.162 19.7296C125.162 19.7296 125.162 19.1769 125.162 18.5452V18.3084C125.162 17.6372 124.61 17.124 123.98 17.124H118.621C117.991 17.124 117.439 17.6372 117.439 18.3084V27.5467C117.439 28.2179 117.163 28.7311 116.848 28.7311C116.533 28.7311 116.257 28.2179 116.257 27.5467V18.2689C116.257 17.5977 115.745 17.0845 115.075 17.0845H109.875C109.244 17.0845 108.693 17.5977 108.693 18.2689V27.4283C108.693 28.0994 108.693 28.6127 108.693 28.6127C108.693 28.6127 108.693 29.1259 108.693 29.7971V32.4028C108.693 33.0345 108.693 33.5872 108.693 33.5872C108.693 33.5872 108.693 34.1399 108.693 34.7716V46.7736C108.693 47.4447 109.244 47.958 109.875 47.958H123.94C124.571 47.958 125.122 47.4447 125.122 46.7736V44.4442C125.201 43.852 125.201 43.3388 125.162 43.3388Z" fill="#ED2024"/>
<path d="M103.452 46.6946C103.216 46.6946 103.058 46.5367 103.058 46.2998V17.4793C103.058 17.2424 102.861 17.0845 102.664 17.0845H102.152C101.955 17.0845 101.758 17.2424 101.758 17.4793V46.2603C101.758 46.4972 101.758 46.8131 101.758 47.0499C101.758 47.0499 101.719 47.5632 101.955 47.8001C102.191 48.0369 102.664 47.9975 102.664 47.9975C102.861 47.9975 103.216 47.9975 103.452 47.9975H112.554C112.79 47.9975 112.948 47.8395 112.948 47.6027V47.0894C112.948 46.8525 112.79 46.6946 112.554 46.6946H103.452Z" fill="#ED2024"/>
<path d="M108.811 28.4946C108.811 28.4946 109.874 34.4956 108.811 33.9034C105.934 32.3242 103.61 28.4946 103.61 28.4946H108.811Z" fill="#ED2024"/>
<path d="M124.847 28.4946C124.847 28.4946 121.892 33.9824 123.862 34.0219C124.059 34.0219 124.413 34.1403 125.004 33.7455C126.501 32.798 130.047 28.4946 130.047 28.4946H124.847Z" fill="#ED2024"/>
<path d="M111.49 16.2163C111.254 16.4532 110.781 16.3348 110.387 15.94C109.993 15.5452 109.875 15.0714 110.111 14.8345L112.79 12.1499C113.027 11.913 113.499 12.0314 113.893 12.4262C114.287 12.821 114.406 13.2948 114.169 13.5317L111.49 16.2163Z" fill="#ED2024"/>
<path d="M121.97 16.3344C122.207 16.5713 122.719 16.4134 123.152 15.9791C123.586 15.5448 123.704 15.0316 123.507 14.7947L120.828 12.11C120.591 11.8732 120.079 12.0311 119.646 12.4654C119.212 12.8996 119.094 13.4129 119.291 13.6498L121.97 16.3344Z" fill="#ED2024"/>
</svg>
