<svg width="190" height="60" viewBox="0 0 190 60" fill="none" xmlns="http://www.w3.org/2000/svg">
<path d="M1.66675 44.3006C3.17271 43.8331 5.07586 43.2422 6.21658 42.6006C3.41658 39.1006 1.81658 34.6006 1.81658 29.9006C1.81658 18.4006 11.1166 9.10059 22.6166 9.10059C28.7166 9.10059 34.2166 11.6006 38.0166 15.7006C26.3166 12.6006 9.11658 14.4006 8.21658 22.3006C7.70513 26.2217 11.3353 28.4716 15.2671 30.9084C15.9479 31.3303 16.6377 31.7578 17.3166 32.2006C20.6166 34.2006 23.5166 36.2006 23.4166 39.7006C23.2166 46.8006 5.61658 45.4006 0.116577 44.8006C0.518453 44.6571 1.06041 44.4888 1.66675 44.3006Z" fill="#5176B9"/>
<path d="M30.4167 17.3001C35.9167 17.0001 42.2167 17.9001 47.0167 19.2001C45.7167 19.3001 42.3167 20.2001 41.4167 21.1001C42.7167 23.8001 43.4167 26.8001 43.4167 30.1001C43.4167 41.6001 34.1167 50.9001 22.6167 50.9001C18.6167 50.9001 14.9167 49.7001 11.7167 47.8001C23.9167 48.4001 33.3167 43.9001 33.4167 39.6001C33.4912 35.5025 27.7375 32.5704 22.6482 29.977C20.9064 29.0894 19.2425 28.2415 17.9167 27.4001C15.9167 26.2001 14.6167 24.9001 15.0167 23.5001C16.0167 19.8001 22.7167 17.5001 30.4167 17.3001Z" fill="#5176B9"/>
<path fill-rule="evenodd" clip-rule="evenodd" d="M64.8165 39.8004C62.1165 39.8004 59.8165 38.9004 57.8165 37.1004L59.6165 35.0004C61.3165 36.5004 63.0165 37.2004 64.9165 37.2004C65.8165 37.2004 66.5165 37.0004 67.1165 36.6004C67.6165 36.2004 67.9165 35.7004 67.9165 35.0004C67.9165 34.4004 67.6165 33.9004 67.1165 33.5004C66.6165 33.1004 65.6165 32.8004 64.1165 32.4004C62.1165 31.9004 60.7165 31.3004 59.8165 30.6004C58.9165 29.9004 58.5165 28.8004 58.5165 27.3004C58.5165 25.9004 59.0165 24.7004 60.1165 23.8004C61.2165 22.9004 62.5165 22.4004 64.2165 22.4004C66.5165 22.4004 68.5165 23.1004 70.3165 24.5004L68.7165 26.7004C67.1165 25.5004 65.6165 25.0004 64.1165 25.0004C63.3165 25.0004 62.6165 25.2004 62.1165 25.6004C61.6165 26.0004 61.4165 26.5004 61.4165 27.1004C61.4165 27.8004 61.7165 28.3004 62.2165 28.6004C62.7165 29.0004 63.8165 29.3004 65.4165 29.7004C67.3165 30.1004 68.6165 30.7004 69.5165 31.5004C70.4165 32.3004 70.8165 33.3004 70.8165 34.7004C70.8165 36.3004 70.2165 37.5004 69.1165 38.4004C68.0165 39.4004 66.6165 39.8004 64.8165 39.8004ZM75.7165 39.6004V22.8004H78.8165L83.9165 30.7004L89.0165 22.8004H92.1165V39.6004H89.1165V27.6004L83.8165 35.5004H83.7165L78.4165 27.6004V39.6004H75.7165ZM96.5165 39.6004L103.917 22.7004H106.617L114.017 39.6004H110.917L109.217 35.5004H101.317L99.6165 39.6004H96.5165ZM102.417 32.9004H108.217L105.317 26.2004L102.417 32.9004ZM118.317 39.6004V22.8004H125.817C127.817 22.8004 129.317 23.3004 130.417 24.3004C131.517 25.3004 132.117 26.6004 132.117 28.2004C132.117 29.5004 131.717 30.6004 131.017 31.5004C130.317 32.4004 129.317 33.0004 128.117 33.3004L132.617 39.7004H129.117L124.917 33.8004H121.317V39.7004H118.317V39.6004ZM121.317 31.1004H125.617C126.717 31.1004 127.517 30.8004 128.117 30.3004C128.717 29.8004 129.017 29.1004 129.017 28.2004C129.017 27.3004 128.717 26.6004 128.117 26.1004C127.517 25.6004 126.617 25.4004 125.517 25.4004H121.217V31.1004H121.317ZM141.317 39.6004V25.5004H136.017V22.8004H149.617V25.5004H144.317V39.6004H141.317ZM159.117 39.6004V33.0004L152.417 22.8004H155.917L160.617 30.2004L165.417 22.8004H168.817L162.117 32.9004V39.6004H159.117ZM172.817 39.6004V22.8004H175.917L181.017 30.7004L186.117 22.8004H189.217V39.6004H186.217V27.6004L180.917 35.5004H180.817L175.517 27.6004V39.6004H172.817Z" fill="black"/>
</svg>
