<svg width="184" height="60" viewBox="0 0 184 60" fill="none" xmlns="http://www.w3.org/2000/svg">
<path d="M17.8839 39.246C17.7 39.292 17.6081 39.43 17.5161 39.568C15.4473 41.868 13.3325 44.168 11.2637 46.468C11.0338 46.744 10.8039 46.836 10.4361 46.836C7.12599 46.836 3.81585 46.836 0.505715 46.836C0.367793 46.836 0.183897 46.882 -6.85066e-10 46.79C12.1372 37.36 24.2743 27.93 36.4115 18.5C36.4115 18.684 36.2736 18.776 36.2276 18.868C34.4806 20.8 32.7336 22.732 30.9866 24.71C28.9637 26.964 26.9408 29.218 24.872 31.472C24.7801 31.564 24.6421 31.656 24.6421 31.794C24.4582 31.886 24.3663 32.024 24.2284 32.162C23.3549 33.128 22.4814 34.14 21.6078 35.106C20.4125 36.394 19.2632 37.728 18.0678 39.016C18.0219 39.016 17.9299 39.108 17.8839 39.246Z" fill="#0294DD"/>
<path d="M0.0933112 43.6623C0.0150529 43.5057 0.103311 43.3824 0.188017 43.2641C0.202827 43.2434 0.217551 43.2228 0.231234 43.2023C0.897858 41.8913 1.55299 40.5688 2.20812 39.2463C2.86325 37.9238 3.51838 36.6013 4.18501 35.2903L15.0809 13.4863C15.1269 13.4173 15.1613 13.3483 15.1958 13.2793C15.2303 13.2103 15.2648 13.1413 15.3108 13.0723C15.4069 13.0723 15.436 13.1394 15.4604 13.1956C15.471 13.22 15.4807 13.2423 15.4946 13.2563L21.977 26.2283C22.04 26.3542 22.0742 26.4227 22.0622 26.4818C22.0479 26.5522 21.968 26.6092 21.7931 26.7343C20.3219 27.8613 18.8622 28.9998 17.4025 30.1383C15.9429 31.2768 14.4832 32.4153 13.012 33.5423C8.73645 36.9463 4.41488 40.3043 0.0933112 43.6623Z" fill="#444B50"/>
<path fill-rule="evenodd" clip-rule="evenodd" d="M135.394 41.5456C135.394 42.0516 135.348 42.5576 135.256 43.0636C135.026 44.1676 134.429 45.0416 133.463 45.5936C132.498 46.1916 131.486 46.5136 130.383 46.6976C129.647 46.8356 128.866 46.8356 128.084 46.8356H121.28C120.269 46.8356 119.257 46.7896 118.292 46.5136C117.924 46.4216 117.556 46.3296 117.234 46.1456C115.625 45.4556 114.798 44.1676 114.66 42.4196V33.2656C114.66 32.7136 114.706 32.1616 114.89 31.6556C115.165 30.7816 115.717 30.1376 116.453 29.5856C117.326 28.9416 118.292 28.6196 119.349 28.4356C120.039 28.3436 120.682 28.2976 121.372 28.2976H130.797C131.164 28.2976 131.164 28.2976 131.164 27.9296V22.8236C131.164 22.7316 131.21 22.6856 131.302 22.6856H134.934L135.001 22.6854L135.05 22.685C135.224 22.6835 135.311 22.6828 135.354 22.7258C135.397 22.7689 135.396 22.8557 135.395 23.0294L135.394 23.0715L135.394 23.1456V41.5456ZM131.164 36.6696V31.9316C131.164 31.5636 131.164 31.5636 130.843 31.5636H122.245C121.602 31.5636 120.958 31.6556 120.36 31.8856C119.579 32.2076 119.073 32.7136 118.935 33.5416C118.889 33.8176 118.889 34.1396 118.889 34.4156V41.4996C118.935 42.6036 119.395 43.1556 120.452 43.4776C121.05 43.6616 121.694 43.7076 122.337 43.7076H127.395C127.808 43.7076 128.222 43.6616 128.636 43.6156C129.142 43.5696 129.601 43.4316 130.061 43.2016C130.613 42.8796 130.98 42.4196 131.072 41.7756C131.118 41.5456 131.118 41.3616 131.118 41.1316C131.164 39.6136 131.164 38.1416 131.164 36.6696Z" fill="#444B50"/>
<path fill-rule="evenodd" clip-rule="evenodd" d="M86.1554 46.8356H80.5465C79.2592 46.8356 78.0179 46.7896 76.7766 46.4676C76.3169 46.3296 75.8572 46.1916 75.4434 45.9616C73.8803 45.1336 73.0987 43.8456 73.0527 42.0976V33.0816C73.0527 32.6676 73.0987 32.2996 73.1907 31.9316C73.4665 30.7816 74.1101 29.9076 75.1216 29.3556C75.9491 28.8956 76.8226 28.6656 77.7881 28.5276C78.6156 28.3896 79.4431 28.3896 80.2707 28.3896H87.3507C88.4541 28.3896 89.5574 28.4816 90.6149 28.7576C90.9827 28.8496 91.3504 28.9876 91.7182 29.1716C93.0055 29.8616 93.7411 30.9656 93.925 32.3916C94.0112 33.0241 94.0076 33.6566 94.004 34.2891C94.0019 34.6684 93.9997 35.0482 94.0169 35.4276C94.0169 35.624 93.9163 35.6527 93.801 35.6855C93.7813 35.6911 93.7612 35.6969 93.7411 35.7036L90.8447 36.5316C88.6841 37.1755 86.512 37.8195 84.3399 38.4634C82.1675 39.1075 79.995 39.7515 77.834 40.3956L77.7542 40.4219C77.6014 40.472 77.5285 40.4959 77.4942 40.5462C77.4629 40.5921 77.4637 40.66 77.4654 40.7898L77.466 40.85L77.4662 40.9016C77.4662 41.2696 77.4662 41.6376 77.6042 41.9596C77.834 42.6956 78.3398 43.2016 79.0753 43.3856C79.8109 43.5696 80.5925 43.6156 81.3741 43.6156H93.4193C93.6951 43.6156 93.833 43.6156 93.902 43.6845C93.971 43.7535 93.971 43.8915 93.971 44.1676V46.3756C93.971 46.7896 93.971 46.7896 93.5572 46.7896H91.0746C89.3736 46.8356 87.7645 46.8356 86.1554 46.8356ZM77.3283 37.4056C77.4663 37.4516 77.5582 37.4056 77.6501 37.3596C78.7765 37.0376 79.8914 36.7041 81.0063 36.3706C82.1211 36.0371 83.236 35.7036 84.3624 35.3816C85.1669 35.1516 85.9715 34.9101 86.776 34.6686C87.5804 34.4271 88.3853 34.1855 89.1897 33.9556C89.3529 33.9089 89.4333 33.8859 89.4729 33.8326C89.5115 33.7808 89.5115 33.7003 89.5115 33.5416C89.4655 32.7596 89.0977 32.2076 88.3621 31.8856C87.8564 31.6556 87.3507 31.5636 86.799 31.5176C84.6842 31.4716 82.5694 31.4716 80.4546 31.5176C79.8109 31.5176 79.1673 31.6556 78.5696 31.9316C77.7881 32.2996 77.3283 32.9436 77.3283 33.8636V37.4056Z" fill="#444B50"/>
<path fill-rule="evenodd" clip-rule="evenodd" d="M146.336 46.8366H151.99C154.427 46.8366 156.91 46.8366 159.3 46.9286C159.668 46.9286 159.668 46.9286 159.668 46.6066V44.3526C159.668 43.7546 159.668 43.7546 159.116 43.7546H147.117C146.336 43.7546 145.6 43.7086 144.818 43.5246C144.083 43.2946 143.577 42.8346 143.347 42.0986C143.209 41.7766 143.209 41.4086 143.209 41.0406C143.209 40.8376 143.209 40.7341 143.258 40.6651C143.309 40.5934 143.412 40.5589 143.623 40.4886C145.828 39.8452 148.044 39.1903 150.26 38.5355L150.263 38.5347L150.27 38.5325L150.273 38.5317C152.489 37.8768 154.705 37.222 156.91 36.5786C157.783 36.3486 158.611 36.1186 159.484 35.8426C159.508 35.8346 159.533 35.8281 159.558 35.8215C159.68 35.7897 159.806 35.7569 159.806 35.5666C159.789 35.1819 159.797 34.7971 159.804 34.4124C159.818 33.7391 159.831 33.0659 159.714 32.3926C159.53 31.0126 158.794 29.9546 157.507 29.2646C157.139 29.0806 156.818 28.9426 156.45 28.8506C155.346 28.5286 154.243 28.4366 153.14 28.4366H146.06C145.232 28.4366 144.405 28.4366 143.577 28.5746C142.612 28.7126 141.738 28.9426 140.911 29.4026C139.899 29.9546 139.255 30.8286 138.98 31.9786C138.888 32.3466 138.842 32.7606 138.842 33.1746V39.5226C138.842 39.7953 138.837 40.0729 138.832 40.3539C138.821 40.9261 138.811 41.5126 138.842 42.0986C138.888 43.8926 139.761 45.2266 141.416 46.0546C141.83 46.2386 142.198 46.3766 142.612 46.4686C143.853 46.7906 145.094 46.8366 146.336 46.8366ZM143.669 37.3606C143.531 37.4066 143.393 37.4526 143.163 37.4526V33.9566C143.163 32.9906 143.623 32.3466 144.497 31.9786C145.094 31.7026 145.692 31.6106 146.336 31.5646C146.749 31.5186 147.209 31.5186 147.623 31.5186H152.266C152.91 31.5186 153.553 31.6106 154.197 31.8866C154.887 32.1626 155.3 32.7606 155.346 33.5426C155.346 33.8646 155.346 33.8646 155.025 33.9566C154.175 34.2094 153.336 34.4623 152.498 34.7151L152.496 34.7155C151.657 34.9685 150.818 35.2216 149.967 35.4746C148.91 35.7966 147.864 36.1071 146.818 36.4176C145.773 36.728 144.726 37.0387 143.669 37.3606Z" fill="#444B50"/>
<path d="M183.943 46.3768V39.8448C183.943 38.6488 183.943 37.4068 183.989 36.1648C183.989 35.9254 183.992 35.6833 183.994 35.439C184.003 34.6973 184.012 33.936 183.943 33.1748C183.805 30.9208 182.518 29.3568 180.403 28.7128C179.391 28.3908 178.38 28.2988 177.322 28.2988H169.875C169.369 28.2988 168.863 28.3448 168.358 28.3908C167.622 28.4828 166.84 28.6208 166.151 28.9428C164.772 29.5408 163.898 30.5528 163.484 32.0248C163.3 32.6688 163.254 33.3588 163.254 34.0488V46.4688C163.254 46.7908 163.3 46.7908 163.576 46.7908H167.254C167.53 46.7908 167.53 46.7908 167.53 46.4688V35.4288C167.53 35.3424 167.54 35.246 167.551 35.1441L167.551 35.1424C167.563 35.0278 167.576 34.9062 167.576 34.7848C167.668 33.5428 168.266 32.8528 169.461 32.4848C170.059 32.3008 170.702 32.2548 171.346 32.2548H175.759C176.311 32.2548 176.817 32.3008 177.368 32.3928C178.84 32.7148 179.575 33.5888 179.621 35.1068V46.4228C179.621 46.6298 179.621 46.7333 179.673 46.785C179.725 46.8368 179.828 46.8368 180.035 46.8368H183.483C183.521 46.8368 183.556 46.8371 183.589 46.8374C183.75 46.8388 183.838 46.8396 183.886 46.7963C183.943 46.7445 183.943 46.6294 183.943 46.3768Z" fill="#444B50"/>
<path d="M45.3765 28.39C45.5144 28.344 45.6063 28.344 45.7443 28.344H49.1923C49.5141 28.344 49.6521 28.436 49.79 28.712C51.0543 30.966 52.3071 33.2085 53.5599 35.451C54.8127 37.6935 56.0655 39.936 57.3297 42.19C57.3604 42.236 57.3859 42.282 57.4115 42.328C57.4626 42.42 57.5136 42.512 57.6056 42.604C57.6516 42.535 57.6861 42.4774 57.7205 42.4199C57.755 42.3624 57.7895 42.305 57.8355 42.236C60.3181 37.774 62.8007 33.266 65.2833 28.758C65.4672 28.436 65.6511 28.344 65.9729 28.344C66.7102 28.3747 67.4679 28.3644 68.2188 28.3541C68.5917 28.349 68.9629 28.344 69.329 28.344C69.3635 28.344 69.398 28.3411 69.4324 28.3382C69.5359 28.3296 69.6393 28.321 69.7428 28.39C69.7788 28.498 69.7302 28.5779 69.6854 28.6516C69.6729 28.672 69.6608 28.692 69.6508 28.712L60.41 45.272C59.7204 46.514 58.617 46.882 57.2838 46.836C57.0539 46.836 56.824 46.79 56.6401 46.744C55.7206 46.56 55.077 46.054 54.6632 45.226C53.9966 44.007 53.3185 42.788 52.6404 41.569C51.9623 40.35 51.2841 39.131 50.6175 37.912C48.9165 34.876 47.2154 31.794 45.5604 28.758C45.4684 28.666 45.3765 28.574 45.3765 28.39Z" fill="#444B50"/>
<path d="M18.0677 38.9241C17.9757 39.0161 17.8838 39.1081 17.8838 39.2461C19.1251 41.6841 20.3204 44.1681 21.4698 46.5601C21.5617 46.7441 21.6996 46.7901 21.9295 46.7901H31.814C31.8565 46.7901 31.8946 46.7988 31.9298 46.8069C32.0086 46.825 32.0722 46.8395 32.1358 46.7441C32.1128 46.6751 32.0783 46.6061 32.0438 46.5371C32.0094 46.4681 31.9749 46.3991 31.9519 46.3301C31.1874 44.8002 30.4178 43.2652 29.6464 41.7268C28.0987 38.6398 26.5439 35.5388 25.0098 32.4381C24.9178 32.2081 24.7799 31.9321 24.642 31.7021C24.5051 31.7706 24.4191 31.8646 24.3272 31.9651C24.2957 31.9996 24.2635 32.0348 24.2282 32.0701C23.7915 32.553 23.3549 33.0474 22.9182 33.5418C22.4815 34.0363 22.0444 34.5312 21.6077 35.0141C20.4583 36.3021 19.263 37.6361 18.0677 38.9241Z" fill="#444B50"/>
<path d="M41.8365 18.4547V46.5607C41.8365 46.73 41.8365 46.8103 41.7964 46.8484C41.7602 46.8827 41.6915 46.8827 41.5606 46.8827H37.7908C37.5609 46.8827 37.4689 46.7907 37.5149 46.6067V23.6067C37.5149 23.2847 37.6069 23.0547 37.7908 22.8247C39.032 21.4448 40.2734 20.0647 41.5606 18.6847C41.5836 18.6387 41.6181 18.6042 41.6526 18.5697C41.6871 18.5352 41.7215 18.5007 41.7445 18.4547H41.8365Z" fill="#444B50"/>
<path d="M97.3732 33.3583V46.4223C97.3732 46.6754 97.3617 46.7904 97.4134 46.8421C97.4651 46.8938 97.5801 46.8823 97.8329 46.8823H101.281C101.558 46.8823 101.684 46.9055 101.741 46.8531C101.798 46.801 101.787 46.6744 101.787 46.3763V34.4623C101.787 34.1403 101.833 33.8183 101.879 33.4963C102.063 32.4843 102.844 31.7483 103.856 31.6563C104.683 31.595 105.511 31.5745 106.338 31.5541C106.752 31.5439 107.166 31.5337 107.579 31.5183H110.798C111.119 31.5183 111.119 31.5183 111.119 31.1963V28.6663C111.119 28.4823 111.073 28.3443 110.844 28.3903H104.545C103.718 28.3903 102.936 28.3903 102.108 28.5283C101.189 28.6663 100.316 28.8963 99.488 29.3563C98.5685 29.8623 97.9249 30.6443 97.603 31.6563C97.4191 32.2083 97.3732 32.8063 97.3732 33.3583Z" fill="#444B50"/>
</svg>
