<svg width="110" height="80" viewBox="0 0 110 80" fill="none" xmlns="http://www.w3.org/2000/svg">
<path d="M63.1581 35.1408C68.9854 26.4254 78.6202 8.65819 69.6806 2.53388C67.6941 1.15423 65.4426 0.514877 62.9263 0.178377C56.2383 -0.730174 50.8083 1.99548 42.1006 4.65383C33.7239 7.21123 26.3405 6.26903 21.0761 12.427C17.9638 16.0275 17.0368 19.6954 17.2023 24.541C17.5334 32.8862 22.9965 43.4523 31.042 45.8751C52.2651 52.2013 59.1519 41.0968 63.1581 35.1408Z" fill="#147DFA"/>
<path d="M59.0193 35.1073C57.7612 30.6655 56.1719 22.6231 44.5506 24.0028C32.9292 25.3488 20.6456 29.6896 13.3615 38.0685C6.839 45.5724 -3.59045 80.4002 20.5463 79.9964C41.2065 79.6263 57.7281 72.5598 61.2708 61.0178C64.1844 51.3602 59.7146 37.5637 59.0193 35.1073Z" fill="#FF5AC3"/>
<path d="M5.05106 37.2943C8.56065 42.9811 12.8649 54.4558 18.3941 60.3445C36.9023 79.9962 48.6892 47.9613 50.3447 43.3513C52.0332 38.7076 51.1724 33.6937 49.2852 30.396C47.3979 27.0983 44.0208 23.1613 38.2266 19.8299C32.3994 16.4985 25.8768 14.7487 20.7449 14.2776C7.43494 12.9989 1.6408 17.1715 0.54819 23.1276C-0.842403 30.5643 3.09761 34.1312 5.05106 37.2943Z" fill="#FFC82D"/>
<path d="M33.9223 35.8471C33.9223 38.8756 31.0749 39.6159 27.2673 39.9524V32.3475H29.6181C32.8297 32.3475 33.9223 33.357 33.9223 35.8471ZM92.8238 40.2553C92.8238 37.496 93.784 36.722 98.3862 36.722H99.2139V34.131H98.5848C93.3205 34.131 90.142 35.2078 90.142 40.087V41.3321C90.142 45.2691 91.5657 48.163 97.8895 48.163H99.1808V45.572H98.0882C92.8569 45.572 92.8238 43.3847 92.8238 41.3321V40.2553ZM72.3622 47.9611H75.011V29.8911H72.3622V47.9611ZM24.453 29.8911V47.9275H27.2342V42.5435C32.5648 41.8705 36.7697 40.5245 36.7697 35.8135C36.7697 31.6072 34.7169 29.8574 29.0221 29.8574H24.453V29.8911ZM53.523 36.2173C53.3575 35.6116 53.1588 34.8376 52.8608 34.2656H50.9074C51.0729 34.9386 51.106 36.15 51.106 37.1258V47.9611H53.7548V39.414C53.7548 37.0249 56.834 36.823 58.4894 36.722V34.1983C54.5494 34.3665 53.2913 35.376 52.7946 36.3519L53.523 36.2173ZM109.743 45.572H109.412C104.511 45.572 103.75 44.226 103.75 41.3321V36.722H109.743V34.2319H103.75V30.4295H101.101V41.433C101.101 46.817 104.114 48.1294 109.114 48.163H109.71V45.572H109.743ZM80.176 40.2553C80.176 37.7315 81.3018 36.3855 83.6525 36.3855C85.3411 36.3855 86.0364 37.0585 86.0364 38.4382C86.0364 39.9524 84.9769 40.3899 83.487 40.3899H79.2159L79.6463 42.3752H83.4539C86.4337 42.3752 88.5196 41.4667 88.5196 38.4718C88.5196 35.4433 86.6324 34.1646 83.6525 34.1646C79.9443 34.1646 77.5604 36.4192 77.5604 40.2553V41.3657C77.5604 45.3364 78.951 48.1967 85.308 48.1967H87.1952V45.6056H85.6722C80.8382 45.6056 80.2092 44.1923 80.2092 41.433V40.2553H80.176ZM67.2965 39.2458C66.4688 39.7169 64.714 39.8178 63.3896 40.0197C61.1382 40.3562 59.0192 40.9956 59.0192 43.9231C59.0192 47.0862 61.2706 48.0957 63.4227 48.0957C65.641 48.0957 67.131 47.3218 67.9587 46.1104L66.9654 44.899C66.5681 45.2691 65.8397 46.0094 63.7869 46.0431C62.3632 46.0431 61.5024 45.2355 61.5024 43.8895C61.5024 42.4762 62.3632 42.0051 63.8531 41.8032C65.2437 41.6013 67.0647 41.534 67.8594 40.9956C67.9256 40.6591 67.3296 39.0775 67.2965 39.2458ZM63.82 34.1983C62.3632 34.1983 61.2706 34.2656 60.1118 34.3665V36.7557C61.2706 36.6547 62.3632 36.5874 63.82 36.5874C66.1377 36.5874 66.9985 37.1595 66.9985 40.4235V45.2018C66.9985 45.7739 67.3627 47.1535 67.76 47.9611H69.7135C69.5479 47.3218 69.5479 45.6056 69.5479 45.1345V40.4908C69.5148 35.5779 67.8594 34.1983 63.82 34.1983ZM46.0734 39.2458C45.2457 39.7169 43.4909 39.8178 42.1665 40.0197C39.9151 40.3562 37.7961 40.9956 37.7961 43.9231C37.7961 47.0862 40.0475 48.0957 42.2327 48.0957C44.4511 48.0957 45.941 47.3218 46.7687 46.1104L45.7754 44.899C45.3781 45.2691 44.6497 46.0094 42.5969 46.0431C41.1732 46.0431 40.3124 45.2355 40.3124 43.8895C40.3124 42.4762 41.1732 42.0051 42.6632 41.8032C44.0537 41.6013 45.8748 41.534 46.6694 40.9956C46.7025 40.6591 46.1065 39.0775 46.0734 39.2458ZM42.5969 34.1983C41.1401 34.1983 40.0475 34.2656 38.8887 34.3665V36.7557C40.0475 36.6547 41.1401 36.5874 42.5969 36.5874C44.9146 36.5874 45.7754 37.1595 45.7754 40.4235V45.2018C45.7754 45.7739 46.1396 47.1535 46.5369 47.9611H48.4904C48.3248 47.3218 48.3248 45.6056 48.3248 45.1345V40.4908C48.2917 35.5779 46.6032 34.1983 42.5969 34.1983Z" fill="black"/>
</svg>
