<svg width="168" height="60" viewBox="0 0 168 60" fill="none" xmlns="http://www.w3.org/2000/svg">
<path fill-rule="evenodd" clip-rule="evenodd" d="M74.5879 22.4893C76.8717 22.4893 78.7945 23.1194 80.2368 24.506C81.6792 25.8927 82.4005 27.6572 82.4005 29.9264C82.4005 32.195 81.6792 33.9595 80.2368 35.3461C78.7945 36.7327 76.8717 37.4891 74.5879 37.4891H69.9004V22.4893H74.5879ZM168 22.4893V25.2624H163.25V37.4891H160.25V25.2624H155.5V22.4893H168ZM146.95 22.4893V37.4891H144.45V22.4893H146.95ZM125.012 37.4891H122.1V22.4893H125.012V29.4217L130.474 22.4893H133.993L128.411 29.5479L134.6 37.4891H131.08L124.892 29.674V37.4891H125.012ZM110.087 22.733H113.5L107.433 37.4891H106.421L102.25 28.4647L98.079 37.4891H97.0675L91.0006 22.733H94.4134L97.6997 31.2695L101.618 22.4893H102.63L106.548 31.2695L110.087 22.733ZM72.7851 25.2624V34.716H74.4679C75.9103 34.716 77.1122 34.3379 77.9536 33.4554C78.7945 32.5734 79.2754 31.4386 79.2754 29.9264C79.2754 27.0269 77.3526 25.2624 74.4679 25.2624H72.7851Z" fill="#2E2E2E"/>
<path fill-rule="evenodd" clip-rule="evenodd" d="M0 44.9999V15.0001L26.4001 0L52.8 15.0001V45L26.4001 60L0 44.9999ZM26.9199 45.4286V30.4286L40.1198 22.9287V37.9287L26.9199 45.4286ZM13.202 22.0459L26.402 29.546L39.602 22.0459L26.402 14.546L13.202 22.0459ZM25.8842 45.4286V30.4286L12.6842 22.9287V37.9287L25.8842 45.4286Z" fill="#1362E2"/>
</svg>
