<svg width="58" height="88" fill="none" xmlns="http://www.w3.org/2000/svg"><path d="M29.034 87.96c16.8 0 28.44-9.12 28.44-24.72 0-11.88-6.84-19.32-17.04-21.6 8.4-2.64 14.04-9.48 14.04-18.84 0-12.24-8.88-22.56-24.12-22.56-15.12 0-25.8 10.44-26.64 23.52h6c1.08-10.32 8.76-17.88 20.64-17.88 11.52 0 17.64 7.32 17.64 17.04 0 9-5.04 16.32-17.4 16.32h-5.76v5.64h6.24c13.32 0 19.56 7.32 19.56 18.36 0 12.12-7.68 19.2-21.48 19.2-14.64 0-21.6-8.88-22.68-19.68H.354c.6 13.68 11.04 25.2 28.68 25.2z" fill="#EDF5FB"/></svg>