<svg width="293" height="40" viewBox="0 0 293 40" fill="none" xmlns="http://www.w3.org/2000/svg">
<path opacity="0.5" d="M25.7471 4.77273V34.7727C25.7471 38.1295 28.063 40 30.5198 40C32.7925 40 35.2925 38.4091 35.2925 34.7727V5C35.2925 1.92273 33.0198 0 30.5198 0C28.0198 0 25.7471 2.12045 25.7471 4.77273Z" fill="#B2CFDB"/>
<path d="M13.2471 19.9998V34.7726C13.2471 38.1294 15.563 39.9998 18.0198 39.9998C20.2925 39.9998 22.7925 38.4089 22.7925 34.7726V20.2271C22.7925 17.1498 20.5198 15.2271 18.0198 15.2271C15.5198 15.2271 13.2471 17.3475 13.2471 19.9998Z" fill="#B2CFDB"/>
<path d="M5.5198 40C8.1557 40 10.2925 37.8632 10.2925 35.2273C10.2925 32.5914 8.1557 30.4546 5.5198 30.4546C2.88389 30.4546 0.74707 32.5914 0.74707 35.2273C0.74707 37.8632 2.88389 40 5.5198 40Z" fill="#B2CFDB"/>
<path d="M69.3155 22.0812H78.11C77.8587 24.0913 77.1049 25.5989 76.0998 26.604C74.8435 27.8604 72.8334 29.3679 69.3155 29.3679C64.0389 29.3679 59.7674 25.0964 59.7674 19.5685C59.7674 14.2919 64.0389 9.76903 69.3155 9.76903C72.3308 9.76903 74.3409 11.0254 75.8486 12.2817L78.3613 9.76903C76.0998 7.75888 73.3359 6 69.3155 6C62.0288 6 55.7471 12.0305 55.7471 19.3172C55.7471 26.604 62.0288 32.6345 69.3155 32.6345C73.3359 32.6345 76.3511 31.3781 78.6126 28.8655C81.1252 26.3528 81.879 23.0863 81.879 20.3223C81.879 19.5685 81.879 18.5635 81.6277 18.0609H69.3155V22.0812Z" fill="#B2CFDB"/>
<path d="M258.772 8.26123C260.029 8.26123 260.783 9.2663 260.783 10.2714C260.783 11.5277 259.777 12.2815 258.772 12.2815C257.767 12.2815 256.762 11.2765 256.762 10.2714C256.762 9.2663 257.767 8.26123 258.772 8.26123Z" fill="#B2CFDB"/>
<path fill-rule="evenodd" clip-rule="evenodd" d="M167.562 32.1318L176.356 9.01514H179.623L188.417 32.1318H185.151L182.889 25.8502H173.09L170.829 32.1318H167.562ZM181.884 23.0862L177.864 12.5329L174.095 23.0862H181.884Z" fill="#B2CFDB"/>
<path d="M226.861 32.1318H223.846V9.01514H226.861V32.1318Z" fill="#B2CFDB"/>
<path d="M192.94 18.5633C193.945 17.0556 195.955 15.7993 197.965 15.7993C201.985 15.7993 203.995 18.5633 203.995 22.5836V32.3831H200.98V23.0861C200.98 19.8196 199.221 18.5633 196.96 18.5633C194.447 18.5633 192.688 21.076 192.688 23.3374V32.1318H189.673V16.0506H192.688L192.94 18.5633Z" fill="#B2CFDB"/>
<path fill-rule="evenodd" clip-rule="evenodd" d="M213.544 21.8298C209.775 21.8298 206.508 23.8399 206.508 27.3577C206.508 30.6242 209.272 32.6343 212.538 32.6343C215.302 32.6343 217.061 31.1267 217.815 29.8703H218.066V32.1318H220.83V22.5836C220.83 18.0607 217.564 15.7993 213.795 15.7993C209.775 15.7993 207.764 18.0607 207.262 19.5683L210.026 20.8247C210.528 19.3171 212.036 18.5633 213.795 18.5633C215.805 18.5633 217.815 19.8196 217.815 22.3323V22.8348C217.313 22.3323 215.805 21.8298 213.544 21.8298ZM214.046 24.3424C216.559 24.3424 217.815 25.3475 217.815 25.3475C217.815 27.8601 215.302 29.8703 213.041 29.8703C211.533 29.8703 209.775 29.1165 209.775 27.3577C209.775 26.1013 211.031 24.3424 214.046 24.3424Z" fill="#B2CFDB"/>
<path d="M231.133 39.1673L234.651 30.8753L228.369 16.3018H231.384L236.158 27.3576L240.933 16.3018H243.948L234.148 39.1673H231.133Z" fill="#B2CFDB"/>
<path d="M271.084 18.3126C272.843 18.3126 274.602 19.5689 275.356 21.5791L277.869 19.8202C276.612 17.0563 274.1 15.2974 271.084 15.2974C266.813 15.2974 263.295 18.8151 263.295 23.8405C263.295 28.6146 266.813 32.3837 271.084 32.3837C274.1 32.3837 276.612 30.6248 277.869 27.8608L275.356 26.3532C274.602 28.1121 272.843 29.3684 271.084 29.3684C268.572 29.3684 266.31 27.107 266.31 23.8405C266.31 20.574 268.572 18.3126 271.084 18.3126Z" fill="#B2CFDB"/>
<path d="M286.161 32.6346C290.181 32.6346 292.191 30.3732 292.191 27.6093C292.191 24.1902 289.364 23.4365 286.916 22.7839C285.046 22.2854 283.397 21.8457 283.397 20.3224C283.397 19.0661 284.402 18.3123 286.161 18.3123C287.92 18.3123 289.678 19.0661 290.432 20.3224L292.191 18.5636C291.186 17.3072 288.422 15.5483 285.909 15.5483C282.14 15.5483 280.13 17.8098 280.13 20.5737C280.13 23.9292 283.18 24.6588 285.737 25.2708C287.585 25.7128 289.176 26.0934 289.176 27.358C289.176 28.8656 288.171 29.8706 286.161 29.8706C284.151 29.8706 283.146 28.6144 282.14 27.358L279.879 29.1168C281.387 30.6245 283.648 32.6346 286.161 32.6346Z" fill="#B2CFDB"/>
<path d="M260.531 32.132H257.516V16.0508H260.531V32.132Z" fill="#B2CFDB"/>
<path d="M255.003 31.8804L254.5 29.6189C252.741 29.6189 250.983 29.6189 250.983 27.3576V19.0657H254.5V16.0505H250.983V11.2764H247.967V16.0505H244.952V19.0657H247.967V26.855C247.967 29.8702 249.224 31.8804 251.988 31.8804H255.003Z" fill="#B2CFDB"/>
<path fill-rule="evenodd" clip-rule="evenodd" d="M83.1353 23.8405C83.1353 18.8151 86.9043 15.2974 91.6784 15.2974C96.4525 15.2974 100.222 18.8151 100.222 23.8405C100.222 28.6146 96.4525 32.3837 91.6784 32.3837C86.9043 32.3837 83.1353 28.8658 83.1353 23.8405ZM86.9043 23.8405C86.9043 26.8557 89.1657 29.1171 91.6784 29.1171C94.1911 29.1171 96.4525 27.107 96.4525 23.8405C96.4525 20.574 94.1911 18.5639 91.6784 18.5639C89.1657 18.5639 86.9043 20.8253 86.9043 23.8405Z" fill="#B2CFDB"/>
<path fill-rule="evenodd" clip-rule="evenodd" d="M132.887 17.056C131.882 16.051 130.374 15.0459 128.113 15.0459C123.841 15.0459 120.072 18.8149 120.072 23.589C120.072 28.3631 123.841 32.1322 128.113 32.1322C130.123 32.1322 131.882 31.1271 132.635 30.122H132.887V31.3784C132.887 34.6448 131.128 36.4038 128.364 36.4038C126.102 36.4038 124.595 34.6448 124.092 33.3885L120.826 34.6448C121.831 36.9063 124.344 39.6702 128.364 39.6702C132.887 39.6702 136.656 37.1576 136.656 30.6246V15.0459H133.138V17.056H132.887ZM128.615 29.1169C126.102 29.1169 124.092 26.8556 124.092 23.8403C124.092 20.8251 126.102 18.5637 128.615 18.5637C131.128 18.5637 133.138 20.8251 133.138 23.8403C133.138 26.8556 131.128 29.1169 128.615 29.1169Z" fill="#B2CFDB"/>
<path fill-rule="evenodd" clip-rule="evenodd" d="M101.729 23.8405C101.729 18.8151 105.498 15.2974 110.272 15.2974C115.046 15.2974 119.067 18.8151 118.815 23.8405C118.815 28.6146 115.046 32.3837 110.272 32.3837C105.498 32.3837 101.729 28.8658 101.729 23.8405ZM105.498 23.8405C105.498 26.8557 107.759 29.1171 110.272 29.1171C112.785 29.1171 115.046 27.107 115.046 23.8405C115.046 20.574 112.785 18.5639 110.272 18.5639C107.759 18.5639 105.498 20.8253 105.498 23.8405Z" fill="#B2CFDB"/>
<path d="M139.419 6.25146H143.188V32.3834H139.419V6.25146Z" fill="#B2CFDB"/>
<path fill-rule="evenodd" clip-rule="evenodd" d="M149.219 26.6045C150.224 28.1121 151.48 29.1171 153.49 29.1171C155.5 29.1171 156.757 28.1121 157.762 26.6045L160.777 28.6147C159.772 29.8709 157.51 32.3837 153.49 32.3837C148.716 32.3837 144.947 28.6146 144.947 23.8405C144.947 18.8151 148.465 15.2974 152.988 15.2974C157.259 15.2974 159.521 18.8151 160.274 20.8253L160.777 21.8304L149.219 26.6045ZM156.505 20.574C156.003 19.3177 154.746 18.5639 153.239 18.5639C151.229 18.5639 148.716 20.0715 148.716 23.8405L156.505 20.574Z" fill="#B2CFDB"/>
</svg>
