<svg width="293" height="40" fill="none" xmlns="http://www.w3.org/2000/svg"><path opacity=".5" d="M25.747 4.773v30c0 3.356 2.316 5.227 4.773 5.227 2.272 0 4.772-1.59 4.772-5.227V5c0-3.077-2.272-5-4.772-5-2.5 0-4.773 2.12-4.773 4.773Z" fill="#B2CFDB"/><path d="M13.247 20v14.773c0 3.356 2.316 5.227 4.773 5.227 2.273 0 4.773-1.591 4.773-5.227V20.227c0-3.077-2.273-5-4.773-5-2.5 0-4.773 2.12-4.773 4.773ZM5.52 40a4.773 4.773 0 1 0 0-9.545 4.773 4.773 0 0 0 0 9.545ZM69.316 22.081h8.794c-.251 2.01-1.005 3.518-2.01 4.523-1.256 1.256-3.267 2.764-6.784 2.764-5.277 0-9.549-4.272-9.549-9.8 0-5.276 4.272-9.799 9.548-9.799 3.016 0 5.026 1.256 6.534 2.513l2.512-2.513C76.1 7.759 73.336 6 69.315 6c-7.286 0-13.568 6.03-13.568 13.317s6.282 13.318 13.569 13.318c4.02 0 7.035-1.257 9.297-3.77 2.512-2.512 3.266-5.779 3.266-8.543 0-.753 0-1.758-.251-2.261H69.315v4.02ZM258.772 8.261c1.257 0 2.011 1.005 2.011 2.01 0 1.257-1.006 2.01-2.011 2.01-1.005 0-2.01-1.005-2.01-2.01s1.005-2.01 2.01-2.01Z" fill="#B2CFDB"/><path fill-rule="evenodd" clip-rule="evenodd" d="m167.562 32.132 8.794-23.117h3.267l8.794 23.117h-3.266l-2.262-6.282h-9.799l-2.261 6.282h-3.267Zm14.322-9.046-4.02-10.553-3.769 10.553h7.789Z" fill="#B2CFDB"/><path d="M226.861 32.132h-3.015V9.015h3.015v23.117ZM192.94 18.563c1.005-1.507 3.015-2.764 5.025-2.764 4.02 0 6.03 2.764 6.03 6.785v9.8h-3.015v-9.298c0-3.266-1.759-4.523-4.02-4.523-2.513 0-4.272 2.513-4.272 4.774v8.795h-3.015V16.05h3.015l.252 2.512Z" fill="#B2CFDB"/><path fill-rule="evenodd" clip-rule="evenodd" d="M213.544 21.83c-3.769 0-7.036 2.01-7.036 5.528 0 3.266 2.764 5.276 6.03 5.276 2.764 0 4.523-1.507 5.277-2.764h.251v2.262h2.764v-9.548c0-4.523-3.266-6.785-7.035-6.785-4.02 0-6.031 2.262-6.533 3.77l2.764 1.256c.502-1.508 2.01-2.262 3.769-2.262 2.01 0 4.02 1.257 4.02 3.77v.502c-.502-.503-2.01-1.005-4.271-1.005Zm.502 2.512c2.513 0 3.769 1.006 3.769 1.006 0 2.512-2.513 4.522-4.774 4.522-1.508 0-3.266-.754-3.266-2.512 0-1.257 1.256-3.016 4.271-3.016Z" fill="#B2CFDB"/><path d="m231.133 39.167 3.518-8.292-6.282-14.573h3.015l4.774 11.056 4.775-11.056h3.015l-9.8 22.865h-3.015ZM271.084 18.313c1.759 0 3.518 1.256 4.272 3.266l2.513-1.759c-1.257-2.764-3.769-4.523-6.785-4.523-4.271 0-7.789 3.518-7.789 8.543 0 4.775 3.518 8.544 7.789 8.544 3.016 0 5.528-1.76 6.785-4.523l-2.513-1.508c-.754 1.76-2.513 3.015-4.272 3.015-2.512 0-4.774-2.261-4.774-5.527 0-3.267 2.262-5.528 4.774-5.528ZM286.161 32.635c4.02 0 6.03-2.262 6.03-5.026 0-3.419-2.827-4.173-5.275-4.825-1.87-.499-3.519-.938-3.519-2.462 0-1.256 1.005-2.01 2.764-2.01s3.517.754 4.271 2.01l1.759-1.758c-1.005-1.257-3.769-3.016-6.282-3.016-3.769 0-5.779 2.262-5.779 5.026 0 3.355 3.05 4.085 5.607 4.697 1.848.442 3.439.822 3.439 2.087 0 1.508-1.005 2.513-3.015 2.513-2.01 0-3.015-1.257-4.021-2.513l-2.261 1.759c1.508 1.508 3.769 3.518 6.282 3.518ZM260.531 32.132h-3.015V16.051h3.015v16.081ZM255.003 31.88l-.503-2.261c-1.759 0-3.517 0-3.517-2.261v-8.292h3.517V16.05h-3.517v-4.775h-3.016v4.774h-3.015v3.016h3.015v7.789c0 3.015 1.257 5.025 4.021 5.025h3.015Z" fill="#B2CFDB"/><path fill-rule="evenodd" clip-rule="evenodd" d="M83.135 23.84c0-5.025 3.77-8.543 8.543-8.543 4.775 0 8.544 3.518 8.544 8.543 0 4.775-3.77 8.544-8.544 8.544-4.774 0-8.543-3.518-8.543-8.544Zm3.77 0c0 3.016 2.26 5.277 4.773 5.277s4.775-2.01 4.775-5.277c0-3.266-2.262-5.276-4.775-5.276-2.512 0-4.774 2.261-4.774 5.276ZM132.887 17.056c-1.005-1.005-2.513-2.01-4.774-2.01-4.272 0-8.041 3.769-8.041 8.543 0 4.774 3.769 8.543 8.041 8.543 2.01 0 3.769-1.005 4.522-2.01h.252v1.256c0 3.267-1.759 5.026-4.523 5.026-2.262 0-3.769-1.76-4.272-3.016l-3.266 1.257c1.005 2.261 3.518 5.025 7.538 5.025 4.523 0 8.292-2.512 8.292-9.045v-15.58h-3.518v2.011h-.251Zm-4.272 12.06c-2.513 0-4.523-2.26-4.523-5.276 0-3.015 2.01-5.276 4.523-5.276s4.523 2.261 4.523 5.276c0 3.016-2.01 5.277-4.523 5.277ZM101.729 23.84c0-5.025 3.769-8.543 8.543-8.543 4.774 0 8.795 3.518 8.543 8.543 0 4.775-3.769 8.544-8.543 8.544-4.774 0-8.543-3.518-8.543-8.544Zm3.769 0c0 3.016 2.261 5.277 4.774 5.277s4.774-2.01 4.774-5.277c0-3.266-2.261-5.276-4.774-5.276s-4.774 2.261-4.774 5.276Z" fill="#B2CFDB"/><path d="M139.419 6.251h3.769v26.132h-3.769V6.251Z" fill="#B2CFDB"/><path fill-rule="evenodd" clip-rule="evenodd" d="M149.219 26.605c1.005 1.507 2.261 2.512 4.271 2.512s3.267-1.005 4.272-2.512l3.015 2.01c-1.005 1.256-3.267 3.769-7.287 3.769-4.774 0-8.543-3.77-8.543-8.544 0-5.025 3.518-8.543 8.041-8.543 4.271 0 6.533 3.518 7.286 5.528l.503 1.005-11.558 4.775Zm7.286-6.031c-.502-1.256-1.759-2.01-3.266-2.01-2.01 0-4.523 1.508-4.523 5.276l7.789-3.266Z" fill="#B2CFDB"/></svg>