<svg width="226" height="40" fill="none" xmlns="http://www.w3.org/2000/svg"><path d="M73.162 32.416a13.211 13.211 0 0 1-9.281-3.809 13.228 13.228 0 0 1-3.934-9.233 13.228 13.228 0 0 1 3.934-9.233 13.212 13.212 0 0 1 9.281-3.808A12.412 12.412 0 0 1 82.1 9.929l-2.448 2.505a9.073 9.073 0 0 0-6.419-2.547 9.337 9.337 0 0 0-8.667 5.857 9.352 9.352 0 0 0-.675 3.616 9.352 9.352 0 0 0 5.738 8.75 9.337 9.337 0 0 0 3.604.724 8.722 8.722 0 0 0 6.587-2.603 7.432 7.432 0 0 0 1.944-4.478h-8.6v-3.554h11.984c.137.733.203 1.478.196 2.225a11.773 11.773 0 0 1-3.077 8.396 11.915 11.915 0 0 1-9.104 3.596Z" fill="#B2CFDB"/><path fill-rule="evenodd" clip-rule="evenodd" d="M201.655 32.415a6.994 6.994 0 0 1-5.272-2.42 8.512 8.512 0 0 1-2.224-5.99 8.512 8.512 0 0 1 2.224-5.989 6.998 6.998 0 0 1 5.272-2.407 6.695 6.695 0 0 1 3.231.77 5.46 5.46 0 0 1 2.139 1.931h.126l-.126-2.183V8.865h2.965v23.032h-2.797v-2.183h-.126a5.461 5.461 0 0 1-2.139 1.931 6.71 6.71 0 0 1-3.273.77Zm.49-2.7a4.711 4.711 0 0 0 3.552-1.54 5.792 5.792 0 0 0 1.398-4.198 5.792 5.792 0 0 0-1.398-4.198 4.826 4.826 0 0 0-5.48-1.147 4.816 4.816 0 0 0-1.61 1.147 5.772 5.772 0 0 0-1.483 4.198 5.772 5.772 0 0 0 1.483 4.198 4.701 4.701 0 0 0 3.538 1.54ZM172.679 31.898l8.685-23.032h3.342l8.685 23.046h-3.259l-2.237-6.255h-9.678l-2.252 6.241h-3.286Zm6.517-9.04h7.65L183.14 12.49h-.126l-3.818 10.369Z" fill="#B2CFDB"/><path d="M214.801 31.128a7.073 7.073 0 0 0 4.363 1.288 6.847 6.847 0 0 0 4.531-1.414 4.39 4.39 0 0 0 1.665-3.582 4.272 4.272 0 0 0-1.063-2.799 5.887 5.887 0 0 0-3.287-1.763l-3.118-.741c-1.399-.29-2.098-.9-2.098-1.833a1.665 1.665 0 0 1 .895-1.483 4.192 4.192 0 0 1 2.224-.546 3.494 3.494 0 0 1 3.608 2.099l2.573-1.064a5.344 5.344 0 0 0-2.322-2.645 7.321 7.321 0 0 0-3.734-.951 7.422 7.422 0 0 0-4.391 1.301 3.969 3.969 0 0 0-1.846 3.4 3.537 3.537 0 0 0 1.399 2.911 7.546 7.546 0 0 0 2.797 1.4l3.188.769c1.436.364 2.154 1.059 2.154 2.085a1.881 1.881 0 0 1-.881 1.61 3.9 3.9 0 0 1-2.266.615 4.36 4.36 0 0 1-4.279-2.967l-2.643 1.092a7.622 7.622 0 0 0 2.531 3.218Z" fill="#B2CFDB"/><path fill-rule="evenodd" clip-rule="evenodd" d="M101.45 29.872a8.28 8.28 0 0 0 0-11.705 8.269 8.269 0 0 0-11.698 0 8.28 8.28 0 0 0 5.849 14.13 8.268 8.268 0 0 0 5.849-2.425Zm-1.418-7.772c.206.618.28 1.271.219 1.92a4.681 4.681 0 0 1-2.76 4.716 4.67 4.67 0 0 1-6.54-4.716 4.677 4.677 0 0 1 2.76-4.717 4.669 4.669 0 0 1 6.321 2.797ZM122.417 24.02a8.28 8.28 0 0 1-2.423 5.852 8.268 8.268 0 0 1-11.698 0 8.276 8.276 0 0 1 0-11.705 8.268 8.268 0 0 1 11.698 0 8.28 8.28 0 0 1 2.423 5.853Zm-3.622 0a4.681 4.681 0 0 0-2.761-4.717 4.667 4.667 0 0 0-5.345 1.13 4.677 4.677 0 0 0-1.194 3.587 4.68 4.68 0 0 0 1.194 3.587 4.677 4.677 0 0 0 3.456 1.529 4.667 4.667 0 0 0 4.431-3.197c.206-.617.28-1.271.219-1.92ZM140.485 31.254V16.128l-3.496-.042v1.4h-.14a5.818 5.818 0 0 0-4.419-1.876 8.39 8.39 0 0 0-8.391 8.396 8.39 8.39 0 0 0 8.391 8.396 5.717 5.717 0 0 0 4.419-1.903h.126v1.203c0 3.204-1.692 4.926-4.489 4.926a4.639 4.639 0 0 1-4.196-2.995l-3.216 1.4a7.997 7.997 0 0 0 7.44 4.967c4.321 0 7.971-2.547 7.971-8.746Zm-3.461-9.072c.196.6.27 1.236.217 1.866a4.705 4.705 0 0 1-1.155 3.468 4.683 4.683 0 0 1-3.293 1.583 4.811 4.811 0 0 1-4.671-5.051 4.862 4.862 0 0 1 2.807-4.675 4.854 4.854 0 0 1 1.864-.446 4.72 4.72 0 0 1 3.306 1.62c.414.477.729 1.033.925 1.635Z" fill="#B2CFDB"/><path d="M146.947 7.228v24.67h-3.692V7.228h3.692Z" fill="#B2CFDB"/><path fill-rule="evenodd" clip-rule="evenodd" d="m164.246 28.694-2.797-1.903a4.795 4.795 0 0 1-4.153 2.322 4.263 4.263 0 0 1-4.07-2.546l11.188-4.646-.378-.952a7.802 7.802 0 0 0-7.188-5.345c-4.335 0-7.803 3.4-7.803 8.396a8.115 8.115 0 0 0 8.209 8.396 8.384 8.384 0 0 0 6.992-3.722Zm-4.111-8.046-7.496 3.12a4.603 4.603 0 0 1 4.377-4.898 3.24 3.24 0 0 1 3.119 1.777Z" fill="#B2CFDB"/><path opacity=".5" d="M14.429 3.254 1.359 25.903l11.325 6.542 13.069-22.65-11.324-6.541Z" fill="#B2CFDB"/><path d="M38.83 25.895 25.753 3.268A6.532 6.532 0 0 0 16.83.875a6.535 6.535 0 0 0-2.391 8.928l13.076 22.655a6.532 6.532 0 0 0 8.922 2.392 6.535 6.535 0 0 0 2.391-8.927v-.028ZM7.028 35.704a6.533 6.533 0 0 0 6.53-6.535 6.533 6.533 0 0 0-6.53-6.534 6.533 6.533 0 0 0-6.531 6.534 6.533 6.533 0 0 0 6.53 6.535Z" fill="#B2CFDB"/></svg>