<svg width="64" height="48" fill="none" xmlns="http://www.w3.org/2000/svg"><path fill-rule="evenodd" clip-rule="evenodd" d="M30.024 4.359A15.948 15.948 0 0 1 41 0c7.736 0 14.188 5.49 15.677 12.785C61.09 15.745 64 20.782 64 26.5 64 35.613 56.613 43 47.5 43H43c-1.846 0-3.047.46-3.793 1.207C38.461 44.953 38 46.154 38 48h-2c0-2.154.54-3.953 1.793-5.207C39.047 41.539 40.846 41 43 41h4.5C55.508 41 62 34.508 62 26.5c0-5.161-2.696-9.693-6.76-12.264l-.375-.237-.076-.436C53.636 6.993 47.9 2 41 2a13.956 13.956 0 0 0-10.069 4.272l-.018.02-.018.016-.004.004-.025.025a9.98 9.98 0 0 0-.547.6 14.081 14.081 0 0 0-1.35 1.92C27.98 10.54 27 12.972 27 16h-2c0-3.471 1.125-6.25 2.244-8.155.471-.803.944-1.454 1.335-1.94A11.962 11.962 0 0 0 24 5c-6.424 0-11.67 5.048-11.985 11.394l-.037.752-.733.172C5.945 18.562 2 23.322 2 29c0 6.627 5.373 12 12 12h14v2H14C6.268 43 0 36.732 0 29c0-6.37 4.253-11.744 10.073-13.442C10.795 8.503 16.755 3 24 3c2.155 0 4.198.487 6.024 1.359zM14 29a4 4 0 1 1 8 0 4 4 0 0 1-8 0zm4-2a2 2 0 1 0 0 4 2 2 0 0 0 0-4zm10 2a4 4 0 1 1 8 0 4 4 0 0 1-8 0zm4-2a2 2 0 1 0 0 4 2 2 0 0 0 0-4zm10 2a4 4 0 1 1 8 0 4 4 0 0 1-8 0zm4-2a2 2 0 1 0 0 4 2 2 0 0 0 0-4z" fill="url(#a)"/><defs><linearGradient id="a" x1="0" y1="48" x2="46.08" y2="-13.44" gradientUnits="userSpaceOnUse"><stop stop-color="#6F38FE"/><stop offset="1" stop-color="#EF09D2"/></linearGradient></defs></svg>