<svg width="33" height="48" fill="none" xmlns="http://www.w3.org/2000/svg"><path fill-rule="evenodd" clip-rule="evenodd" d="M12.333 15a4 4 0 1 1 8 0 4 4 0 0 1-8 0zm4-2a2 2 0 1 0 0 4 2 2 0 0 0 0-4zm-2 26a2 2 0 1 0 4 0 2 2 0 0 0-4 0zm2 4a4 4 0 1 1 0-8 4 4 0 0 1 0 8zm12 3v-8c0-6.627-5.372-12-12-12-6.627 0-12 5.373-12 12v8h24zM10.951 25.072C5.89 27.182 2.333 32.175 2.333 38v8h-2v2h32v-2h-2v-8c0-5.825-3.557-10.819-8.617-12.928A13.958 13.958 0 0 0 16.333 24c1.908 0 3.726-.381 5.383-1.072 5.06-2.11 8.617-7.103 8.617-12.928V2h2V0h-32v2h2v8c0 5.825 3.557 10.819 8.618 12.928A13.958 13.958 0 0 0 16.333 24c-1.907 0-3.725.381-5.382 1.072zM4.333 2v8c0 6.627 5.373 12 12 12 6.628 0 12-5.373 12-12V2h-24z" fill="url(#a)"/><defs><linearGradient id="a" x1=".333" y1="48" x2="44.641" y2="18.462" gradientUnits="userSpaceOnUse"><stop stop-color="#6F38FE"/><stop offset="1" stop-color="#EF09D2"/></linearGradient></defs></svg>