<svg width="181" height="60" viewBox="0 0 181 60" fill="none" xmlns="http://www.w3.org/2000/svg">
<path d="M58.7628 17.281C58.7628 19.1753 57.1778 20.7603 55.2836 20.7603C53.3893 20.7603 51.8043 19.1753 51.8043 17.281C51.8043 15.3867 53.3893 13.8018 55.2836 13.8018C57.1778 13.8018 58.7628 15.3867 58.7628 17.281Z" fill="#1A2033"/>
<path d="M58.1829 22.4612V41.7904H52.3842V22.4612H58.1829Z" fill="#1A2033"/>
<path d="M168.73 14.1893V19.7561C166.565 19.5628 165.134 20.22 165.134 22.4621L170.886 22.462V18.7894L176.685 17.0498V22.462H180.667V28.0288H176.685V34.8713C176.685 36.5336 178.115 36.6882 180.667 36.5336V41.7911C173.09 42.5643 170.886 40.2834 170.886 34.8713V28.0288L165.134 28.0289V41.7913H159.336V28.0289H156.745V22.4621H159.336C159.336 17.05 162.312 13.8027 168.73 14.1893Z" fill="#1A2033"/>
<path fill-rule="evenodd" clip-rule="evenodd" d="M145.535 42.3315C151.218 42.3315 155.779 37.8858 155.779 32.1257C155.779 26.3656 151.218 21.9199 145.535 21.9199C139.852 21.9199 135.29 26.3656 135.29 32.1257C135.29 37.8858 139.852 42.3315 145.535 42.3315ZM145.535 36.6874C143.022 36.6874 141.089 34.8704 141.089 32.1257C141.089 29.381 143.022 27.564 145.535 27.564C148.048 27.564 149.981 29.381 149.981 32.1257C149.981 34.8704 148.048 36.6874 145.535 36.6874Z" fill="#1A2033"/>
<path d="M125.989 27.0228C124.984 27.0228 124.366 27.4094 124.366 28.1052C124.366 28.8918 125.577 29.2104 127.136 29.6202C129.943 30.3584 133.876 31.3925 133.876 35.9915C133.876 40.4372 130.01 42.3315 125.835 42.3315C121.969 42.3315 119.031 40.8625 117.523 37.7312L122.549 34.8705C123.051 36.3395 124.134 37.1513 125.835 37.1513C127.226 37.1513 127.922 36.726 127.922 35.9529C127.922 35.1863 126.686 34.8418 125.105 34.4013C122.301 33.62 118.412 32.5365 118.412 28.2599C118.412 24.0461 121.969 21.9199 125.989 21.9199C129.121 21.9199 131.904 23.3116 133.528 26.0564L128.579 28.7238C128.038 27.7187 127.265 27.0228 125.989 27.0228Z" fill="#1A2033"/>
<path fill-rule="evenodd" clip-rule="evenodd" d="M106.506 42.3315C112.188 42.3315 116.75 37.8858 116.75 32.1257C116.75 26.3656 112.188 21.9199 106.506 21.9199C100.823 21.9199 96.2611 26.3656 96.2611 32.1257C96.2611 37.8858 100.823 42.3315 106.506 42.3315ZM106.506 36.6874C103.993 36.6874 102.06 34.8704 102.06 32.1257C102.06 29.381 103.993 27.564 106.506 27.564C109.018 27.564 110.951 29.381 110.951 32.1257C110.951 34.8704 109.018 36.6874 106.506 36.6874Z" fill="#1A2033"/>
<path d="M94.7542 22.462V28.0288H90.7724V34.8713C90.7724 36.5336 92.2027 36.6882 94.7542 36.5336V41.7911C87.1772 42.5643 84.9736 40.2834 84.9736 34.8713V28.0288H81.881V22.462H84.9736V18.7894L90.7724 17.0498V22.462H94.7542Z" fill="#1A2033"/>
<path d="M73.1178 21.9199C70.5663 21.9199 68.6334 22.8477 67.5896 24.2781V22.4611H61.7909V41.7903H67.5896V31.2366C67.5896 28.4918 69.0587 27.2548 71.1849 27.2548C73.0405 27.2548 74.5481 28.3759 74.5481 30.7727V41.7903H80.3469V29.9222C80.3469 24.7033 77.0223 21.9199 73.1178 21.9199Z" fill="#1A2033"/>
<path fill-rule="evenodd" clip-rule="evenodd" d="M11.5507 16.4759C11.1337 14.3909 12.1142 12.2167 14.1412 11.5745C20.8024 9.4641 28.3812 11.05 33.6634 16.3322C41.2119 23.8807 41.2119 36.1192 33.6634 43.6677C26.1149 51.2162 13.8764 51.2162 6.32788 43.6677C1.21395 38.5538 -0.435414 31.2873 1.37979 24.7848C1.96547 22.6867 4.1867 21.6441 6.32269 22.0713L9.38042 22.6828C11.071 23.0209 12.5616 21.5304 12.2235 19.8397L11.5507 16.4759ZM14.8702 35.1254C17.7009 37.9561 22.2904 37.9561 25.1211 35.1254C27.9518 32.2947 27.9518 27.7052 25.1211 24.8745C22.2904 22.0439 17.7009 22.0439 14.8702 24.8745C12.0395 27.7052 12.0395 32.2947 14.8702 35.1254Z" fill="#0F49FF"/>
</svg>
