<svg width="175" height="18" fill="none" xmlns="http://www.w3.org/2000/svg"><path d="M79.829 5.186a12.724 12.724 0 0 0-2.775-1.305 8.205 8.205 0 0 0-2.512-.486 2.883 2.883 0 0 0-1.575.37 1.201 1.201 0 0 0-.437.466c-.101.193-.15.412-.14.631-.003.298.078.59.234.84.155.25.377.45.64.573.823.43 1.689.769 2.582 1.008.98.28 1.939.63 2.871 1.045a5.103 5.103 0 0 1 1.925 1.575c.567.8.85 1.774.806 2.763a4.837 4.837 0 0 1-.875 2.88 5.265 5.265 0 0 1-2.364 1.8 8.871 8.871 0 0 1-3.422.622 11.422 11.422 0 0 1-4.052-.747 10.88 10.88 0 0 1-3.44-2.044l1.532-3.213a10.318 10.318 0 0 0 2.958 1.917c.962.446 2 .69 3.055.72a3.296 3.296 0 0 0 1.855-.45c.186-.13.34-.3.455-.498a1.598 1.598 0 0 0-.236-1.905 3.407 3.407 0 0 0-1.138-.711 23.12 23.12 0 0 0-1.908-.621 21.314 21.314 0 0 1-2.853-1 5.037 5.037 0 0 1-1.9-1.52 4.287 4.287 0 0 1-.796-2.7c-.019-.986.27-1.95.823-2.755a5.27 5.27 0 0 1 2.302-1.8 8.65 8.65 0 0 1 3.44-.64c1.165.001 2.324.177 3.44.523 1.062.316 2.076.786 3.01 1.395l-1.48 3.267h-.025zM47.297.272h14.187V3.62h-5.19v14.114h-3.833V3.62h-5.164V.272zM29.206 10.524c-.03.542.045 1.086.222 1.597.177.512.453.982.81 1.382.361.367.791.653 1.264.84.473.188.979.272 1.485.25.486.018.97-.068 1.423-.252a3.495 3.495 0 0 0 1.203-.82c.7-.816 1.06-1.883.998-2.97V.27h3.833v10.253a8.29 8.29 0 0 1-.875 3.978 6.26 6.26 0 0 1-2.626 2.592 8.347 8.347 0 0 1-4 .9 8.492 8.492 0 0 1-4.026-.9 6.304 6.304 0 0 1-2.625-2.592 8.168 8.168 0 0 1-.92-3.978V.272h3.834v10.252zM129.419 17.724h4.218L124.29.272l-9.348 17.453h3.956l5.252-9.82 5.269 9.82zM92.59 17.733V9.102l6.108 6.858 6.04-6.777v8.55h3.439l.079-17.461L98.698 11 89.15.27v17.462h3.44zM160.812.272H175V3.62h-5.19v14.114h-3.834V3.62h-5.164V.272z" fill="#fff"/><path fill-rule="evenodd" clip-rule="evenodd" d="M11.702 4.178a5.34 5.34 0 0 1 1.864 2.008c.462.852.7 1.814.691 2.79a5.873 5.873 0 0 1-.691 2.826 5.278 5.278 0 0 1-1.864 2.016 4.766 4.766 0 0 1-2.582.738 4.843 4.843 0 0 1-2.626-.747 5.53 5.53 0 0 1-1.917-2.016A5.89 5.89 0 0 1 3.87 8.99c0-.981.244-1.946.708-2.803a5.332 5.332 0 0 1 1.917-2.008A4.953 4.953 0 0 1 9.12 3.44a4.774 4.774 0 0 1 2.582.738zm-10.503.225A9.345 9.345 0 0 0 0 8.99c0 1.61.414 3.193 1.199 4.586a8.715 8.715 0 0 0 3.282 3.24A9.664 9.664 0 0 0 9.111 18a9.664 9.664 0 0 0 4.63-1.184 8.7 8.7 0 0 0 3.297-3.281 9.023 9.023 0 0 0 1.184-4.56 8.94 8.94 0 0 0-1.181-4.544 8.617 8.617 0 0 0-3.3-3.259A9.782 9.782 0 0 0 9.107.002a9.782 9.782 0 0 0-4.635 1.17 8.648 8.648 0 0 0-3.317 3.231H1.2zM147.614 3.54a3.682 3.682 0 0 1 2.46.737c.296.272.529.609.681.986.151.377.218.785.194 1.192.026.416-.039.833-.191 1.219a2.778 2.778 0 0 1-.684 1.014 3.598 3.598 0 0 1-2.46.765h-3.5V3.539h3.5zM140.245.271v17.453h3.834v-4.987h3.903l2.687 4.987h4.376l-3.676-5.752a5.304 5.304 0 0 0 2.363-2.178 6.892 6.892 0 0 0 .814-3.457 5.692 5.692 0 0 0-.403-2.467 5.559 5.559 0 0 0-1.417-2.033 7.58 7.58 0 0 0-5.138-1.584l-7.343.018z" fill="#fff"/></svg>