<svg width="142" height="40" fill="none" xmlns="http://www.w3.org/2000/svg"><path d="M15.973 6.622v11.279H5.595V6.622H.668v26.924h4.927V22.633h10.378v10.913H20.9V6.622h-4.927zM36.67 24.842c0 1.079-.43 2.114-1.195 2.877a4.08 4.08 0 0 1-5.764 0 4.064 4.064 0 0 1-1.194-2.877V13.31h-4.674v11.532c0 2.314.921 4.533 2.56 6.17a8.75 8.75 0 0 0 12.363 0 8.716 8.716 0 0 0 2.56-6.17V13.31H36.67v11.532zM71.298 14.498c0-2.364 1.567-3.113 3.283-3.113 1.383 0 3.21 1.05 4.406 2.325l3.06-3.6c-1.527-2.062-4.627-3.488-7.164-3.488-5.07 0-8.737 2.963-8.737 7.876 0 9.115 11.163 6.224 11.163 11.325 0 1.573-1.53 2.963-3.283 2.963-2.764 0-3.66-1.349-4.93-2.775l-3.397 3.525c2.173 2.662 4.853 4.014 8.064 4.014 4.816 0 8.69-3 8.69-7.689 0-10.12-11.163-6.975-11.163-11.363M140.356 29.244c-2.762 0-3.546-1.193-3.546-3.019v-8.084h4.292v-4.096h-4.292V8.641l-4.739 2.122V27.23c0 4.212 2.911 6.334 6.904 6.334a9.602 9.602 0 0 0 1.869-.15L142 29.168c-.521.036-1.12.072-1.644.072M54.46 13.445c-2.316 0-3.931.67-5.493 2.2V6.783h-4.681v16.425c0 6.15 4.454 10.36 9.459 10.36 5.552 0 10.436-4.286 10.436-10.059 0-5.7-4.495-10.062-9.722-10.062v-.002zm-.03 15.423a5.318 5.318 0 0 1-4.907-3.272 5.291 5.291 0 0 1 1.152-5.777 5.314 5.314 0 0 1 5.788-1.15c.97.402 1.8 1.081 2.383 1.953a5.294 5.294 0 0 1-.66 6.693 5.317 5.317 0 0 1-3.756 1.553zM105.286 23.264c0-5.783-4.874-10.06-10.436-10.06-5.005 0-9.459 4.212-9.459 10.36V40h4.681v-8.874c1.56 1.527 3.177 2.2 5.49 2.2 5.227 0 9.722-4.36 9.722-10.062h.002zm-4.432-.058a5.295 5.295 0 0 1-3.279 4.897 5.321 5.321 0 0 1-5.788-1.149 5.298 5.298 0 0 1-1.151-5.777 5.318 5.318 0 0 1 8.662-1.72 5.297 5.297 0 0 1 1.556 3.749z" fill="#B2CFDB"/><path opacity=".5" d="M120.408 12.977V8.284a3.613 3.613 0 0 0 2.088-3.258v-.108a3.61 3.61 0 0 0-1.06-2.556 3.624 3.624 0 0 0-2.561-1.058h-.108c-.961 0-1.882.38-2.561 1.058a3.612 3.612 0 0 0-1.061 2.556v.108a3.62 3.62 0 0 0 2.089 3.258v4.694a10.262 10.262 0 0 0-4.877 2.142L99.461 5.094c.091-.331.14-.672.145-1.015A4.066 4.066 0 0 0 97.093.313a4.087 4.087 0 0 0-4.448.875 4.07 4.07 0 0 0-.89 4.437 4.074 4.074 0 0 0 3.766 2.519 4.042 4.042 0 0 0 2.008-.545l12.701 9.863a10.253 10.253 0 0 0 .157 11.565l-3.862 3.855a3.324 3.324 0 0 0-.966-.156 3.355 3.355 0 0 0-3.094 2.065 3.344 3.344 0 0 0 2.442 4.559 3.347 3.347 0 0 0 4.005-3.278 3.287 3.287 0 0 0-.157-.963l3.822-3.815a10.312 10.312 0 0 0 8.89 1.8 10.3 10.3 0 0 0 6.87-5.913c.617-1.444.895-3.009.813-4.576a10.28 10.28 0 0 0-4.416-7.91 10.306 10.306 0 0 0-4.326-1.718zm-1.583 15.436a5.295 5.295 0 0 1-2.936-.892 5.274 5.274 0 0 1-.797-8.117 5.29 5.29 0 0 1 5.76-1.143 5.283 5.283 0 0 1 3.264 4.872c0 1.4-.557 2.742-1.548 3.732a5.293 5.293 0 0 1-3.739 1.545" fill="#B2CFDB"/></svg>