<svg width="113" height="60" fill="none" xmlns="http://www.w3.org/2000/svg"><path fill-rule="evenodd" clip-rule="evenodd" d="M64.058 29.01c-1.142-1.462-2.389-1.88-3.981-1.532a437.61 437.61 0 0 1-3.012 7.243c-5.02 7.208-7.617 11.282-7.617 11.282.9-4.945 3.22-10.342 6.924-16.226-1.142-1.602-2.458-2.124-4.016-1.533-.415.942-.833 1.866-1.249 2.783l-.023.05-.017.04-.015.031-.011.025-.01.02-.006.016-.004.008v.002c-.77 1.697-1.529 3.369-2.231 5.069l-7.271 9.958c.97-4.84 3.255-10.132 6.855-15.878-1.177-1.566-2.493-2.089-4.05-1.497a142.687 142.687 0 0 1-2.355 5.154l-1.662-3.03c-1.142-1.601-2.493-2.124-4.05-1.497-.524 1.167-1.054 2.317-1.58 3.459l-.004.01-.002.003v.002a254.572 254.572 0 0 0-2.223 4.918l-7.098 9.575c1.35-5.571 4.051-13.057 6.925-19.186.737-.129 1.534-.198 2.28-.263l.178-.015c-.035-.627-.277-1.15-.623-1.497-.303-.068-.637-.037-1.004-.004l-.035.004.29-.562.006-.013.006-.012c.827-1.604 1.623-3.147 2.364-4.358-1.143-1.567-2.493-1.915-4.19-1.567L31.125 21l-.005.013a185.594 185.594 0 0 1-2.445 5.63c-.485.036-1.896.062-3.306.088-1.411.026-2.822.052-3.307.087.104.905.589 1.602 1.108 2.054.142-.012.693-.023 1.372-.038 1.314-.028 3.108-.067 3.337-.136-1.905 4.527-4.017 9.715-5.575 14.033-.277-1.637-1.073-2.89-1.939-3.587-.69-.321-2.213-.867-4.04-1.522h-.003C12.008 36.073 6.01 33.923 5.304 32.7c-3.601-6.441 15.234-22.25 25.413-28.83.623 1.08-9.037 16.574-19.735 23.294.08.264.157.546.235.833l.002.006.001.006.002.007c.528 1.942 1.126 4.141 3.291 3.083 7.098-5.815 19.978-20.196 18.8-29.771-.29-.156-.559-.302-.805-.437l-.016-.008c-1.061-.58-1.71-.934-2.018-.878C24.692 2.86 17.526 8.049 10.947 14.49 3.227 21.907-2.244 30.16.941 35.59c1.714 2.972 8.379 5.056 12.855 6.457 2.397.75 4.166 1.303 4.214 1.691.312 2.229-15.684 10.446-17.727 10.83.139 2.297.658 4.49 2.32 5.326 6.682-3.62 14.473-8.844 18.558-13.58-.346 1.115-.658 2.125-.866 2.995.208 2.264 1.697 3.517 4.293 3.97l5.02-7.66c-.31.94-.588 1.915-.83 2.924.173 2.194 1.558 3.482 4.12 3.865 3.324-5.327 5.297-8.844 5.297-8.844a103.5 103.5 0 0 0-1.28 4.248c.207 2.159 1.557 3.447 4.05 3.83l4.916-7.556c-.311.975-.588 1.95-.865 2.96.173 2.194 1.523 3.482 4.016 3.83a205.91 205.91 0 0 0 4.847-8.113c-2.008 5.223-3.843 10.272-4.535 13.44.242 2.194 1.627 3.448 4.12 3.796-.312-6.198 6.024-23.19 10.594-30.99zm-30.78 18.455c.832-4.527 2.84-9.471 6.06-14.798l1.8 3.342a502.963 502.963 0 0 0-7.105 10.35c-.48.718-.733 1.096-.754 1.106zm45.807-30.78c1.177-.314 2.942-.21 4.016.452l-3.878 7.556c-1.326-1.055-1.855-1.17-2.592-1.33l-.282-.063 2.736-6.616zm33.133 13.823c-2.008 2.68-6.786 8.774-9.279 11.003-1.765 1.532-2.008-.035-1.938-.975a73.1 73.1 0 0 1 .761-2.96c.554.766 1.766.975 2.632.662 2.804-2.229 6.613-11.456 4.258-12.675 0 0-.692-.487-2.597-1.392-1.073-.348-1.869-.105-2.561.696-1.974 2.786-3.67 6.163-4.882 10.132l-4.536 6.442c.9-4.63 3.047-9.75 6.336-15.25-1.039-1.568-2.285-2.02-3.705-1.428-1.8 1.392-5.09 5.745-8.274 11.211 1.142-2.924 2.7-6.023 4.604-9.192-1.038-1.567-2.32-2.054-3.773-1.462-1.835 1.392-5.194 5.78-8.38 11.281 1.143-2.96 2.667-6.058 4.675-9.262-1.108-1.567-2.354-2.054-3.809-1.462l-.48 1.08-.005.01c-1.145 2.574-2.26 5.081-3.323 7.615l-6.267 8.774c.935-4.735 3.15-9.889 6.544-15.425-1.108-1.602-2.389-2.054-3.809-1.462-.28.629-.56 1.254-.84 1.876-.927 2.065-1.84 4.099-2.691 6.132l-6.786 9.402c1.766-7.696 6.232-19.116 9.763-25.14-1.073-1.497-2.354-1.88-3.912-1.532-.4.987-.905 2.215-1.48 3.609l-.003.008c-3.011 7.306-7.896 19.16-9.146 24.83.242 2.124 1.593 3.413 4.05 3.83l4.744-7.381c-.275.9-.517 1.8-.758 2.701l-.004.015c.173 2.158 1.455 3.412 3.809 3.795l4.155-6.546-.097.336-.001.007v.002c-.175.608-.345 1.204-.491 1.849.173 2.054 1.316 3.273 3.497 3.725l.082.023.052.015.026.008.03.008a.58.58 0 0 0 .121.016v-.348c.208-3.517 5.402-13.789 8.518-17.306-1.87 4.248-3.566 8.427-4.744 13.162.174 2.055 1.35 3.238 3.463 3.691.138.035.242.07.311.07v-.349c.208-3.516 5.332-13.718 8.413-17.166-1.8 4.214-3.462 8.357-4.639 13.093.173 2.124 1.42 3.342 3.74 3.725l3.635-5.815-.104.523c-.173.627-.07 1.288.277 2.054l2.839 2.507c2.608 0 7.663-6.497 10.18-9.732l.068-.087.248-.317c1.211-1.538 2.649-3.366 1.483-5.254zm-8.24 4.422c1.143-1.706 4.259-10.133 1.835-6.65a34.812 34.812 0 0 0-3.289 6.963c.554.279 1.039.14 1.454-.313z" fill="#000"/></svg>