<svg width="231" height="60" fill="none" xmlns="http://www.w3.org/2000/svg"><path d="M27.107 23.03c-4.268 0-7.547 2.972-7.547 6.948 0 3.976 3.19 7.035 7.412 7.035 2.066 0 4.223-.961 5.705-2.447L30.79 32.6c-1.033 1.005-2.425 1.617-3.683 1.617-2.426 0-4.313-1.836-4.313-4.239 0-2.403 1.887-4.238 4.313-4.238 1.302 0 2.695.699 3.683 1.791l1.842-2.184c-1.348-1.443-3.504-2.316-5.525-2.316zM.333 12.5h230v35h-230v-35zm228.518 1.442H1.816v32.116h226.99V13.942h.045zm-175.42 9.176h-3.19v7.996c0 1.966-1.257 3.19-3.144 3.19-1.887 0-3.234-1.18-3.234-3.19v-7.996h-3.19v7.996c0 3.627 2.516 5.9 6.424 5.9 3.908 0 6.334-2.273 6.334-5.9v-7.996zm14.375-.131c-3.28 0-5.48 1.573-5.48 4.064 0 4.893 7.546 3.364 7.546 5.942 0 .83-.808 1.311-2.111 1.311-1.482 0-3.549-.787-5.031-2.054l-1.258 2.535c1.617 1.31 3.908 2.184 6.244 2.184 3.145 0 5.525-1.441 5.525-4.15 0-4.938-7.501-3.54-7.501-6.074 0-.743.718-1.136 1.796-1.136 1.123 0 2.92.568 4.403 1.398l1.213-2.578c-1.393-.83-3.37-1.442-5.346-1.442zm24.437 2.753v-2.622H80.43v2.622h4.313v11.142h3.189V25.74h4.312zm13.881-2.71c-4.312 0-7.591 2.972-7.591 6.992 0 3.976 3.279 7.035 7.591 7.035 4.313 0 7.592-3.059 7.592-7.035 0-4.02-3.279-6.991-7.592-6.991zm.045 2.71c2.381 0 4.268 1.835 4.268 4.282 0 2.403-1.932 4.326-4.268 4.326-2.381 0-4.357-1.88-4.357-4.326 0-2.447 1.976-4.282 4.357-4.282zm31.356 11.142V23.118h-3.549l-4.088 8.433-4.133-8.433h-3.594v13.764h2.875v-9.263l3.774 7.865h2.066l3.774-7.865v9.263h2.875zm18.822-2.665 1.123 2.665h3.414l-6.064-13.764h-3.28l-6.154 13.764h3.279l1.123-2.665h6.559zm-1.033-2.491h-4.448l2.247-5.33 2.201 5.33zm22.326-5.986v-2.622h-11.815v2.622h4.313v11.142h3.189V25.74h4.313zm11.23 11.142V23.118h-3.189v13.764h3.189zm17.116-7.166 4.716-6.598h-3.773l-2.965 4.195-2.965-4.195h-3.728l4.717 6.73-5.077 7.034h3.729l3.279-4.588 3.324 4.588h3.819l-5.076-7.166z" fill="#11181F"/></svg>