<svg width="188" height="40" fill="none" xmlns="http://www.w3.org/2000/svg"><path d="M19.042 0H0v19.029h19.04l.001-9.515V0zM40.027 0H20.986v4.76l.001 14.268h19.039c.002-4.803.002-9.607.002-14.411V0zM171.711 7.25c1.755-1.141 4.023-1.248 6.002-.704.01.715.009 1.43.007 2.147-.001.46-.002.92.001 1.38-.941-.413-2.046-.683-3.036-.277-.784.31-1.251 1.115-1.373 1.92-.098.68-.089 1.368-.079 2.056.005.341.01.684.002 1.025 1.276.002 2.552.002 3.828.002h2.196c.007-.543.005-1.086.003-1.63-.002-.76-.005-1.52.015-2.28.872-.248 1.739-.515 2.605-.783.489-.15.979-.302 1.47-.45.005.687.003 1.374.001 2.06v.003c-.002 1.03-.005 2.06.014 3.089.865-.012 1.732-.01 2.598-.01.492.002.984.003 1.476.001v3.341c-.926-.038-1.854-.03-2.781-.024-.436.003-.873.007-1.309.005.004 1.224.003 2.447.002 3.671v2.094c.007.353.004.707 0 1.061-.008.712-.016 1.425.067 2.133.076.625.303 1.318.89 1.641.982.55 2.229.31 3.131-.294v3.375c-1.176.511-2.492.666-3.765.576-1.207-.089-2.458-.528-3.246-1.488-.911-1.084-1.145-2.553-1.164-3.927-.006-1.647-.004-3.294-.003-4.942 0-1.301.001-2.603-.001-3.905h-.003c-2.008 0-4.016-.002-6.024.002-.002 3.466-.002 6.933-.002 10.4l.001 3.482h-4.118l-.001-4.086v-.021c-.002-3.257-.003-6.514.003-9.77a66.65 66.65 0 0 0-1.414-.008c-.484.001-.968.002-1.452-.007l.001-.234v-.003c.003-1.02.007-2.04-.003-3.06.881-.02 1.764-.014 2.648-.008l.206.002c.022-.449.016-.9.009-1.354v-.002c-.013-1.021-.027-2.046.275-3.03.369-1.285 1.19-2.444 2.323-3.169z" fill="#B2CFDB"/><path fill-rule="evenodd" clip-rule="evenodd" d="M155.597 14.481c2.055-.255 4.238-.116 6.113.83 1.636.817 2.904 2.294 3.537 4 .496 1.307.669 2.718.641 4.108.003 2.078-.558 4.21-1.863 5.859-1.221 1.595-3.09 2.631-5.063 2.958-1.929.311-3.967.23-5.8-.491a7.626 7.626 0 0 1-4.184-4.056c-.815-1.87-.901-3.976-.647-5.975.266-1.998 1.172-3.953 2.716-5.282 1.265-1.11 2.893-1.738 4.55-1.95zm1.112 3.276c1.163-.082 2.405.187 3.299.972.825.683 1.281 1.707 1.491 2.738.235 1.21.233 2.461.034 3.676-.158.905-.471 1.808-1.065 2.524-.598.72-1.488 1.159-2.406 1.294-.986.148-2.024.076-2.946-.32-.995-.42-1.766-1.281-2.172-2.27-.488-1.18-.585-2.486-.488-3.748.094-1.222.44-2.476 1.248-3.425.736-.887 1.866-1.377 3.005-1.441z" fill="#B2CFDB"/><path d="M139.858 14.52c1.904-.334 3.897-.088 5.7.594a1566.164 1566.164 0 0 1 .001 3.783 7.26 7.26 0 0 0-4.325-1.277c-.77.03-1.616.356-1.967 1.087-.279.723-.086 1.672.597 2.105.642.43 1.352.723 2.063 1.016.581.24 1.163.48 1.707.796.953.534 1.877 1.234 2.359 2.242.907 1.888.523 4.383-1.071 5.79-1.522 1.422-3.715 1.816-5.731 1.74-1.432-.092-2.87-.375-4.187-.96.003-.537.002-1.074.001-1.61-.001-.79-.003-1.58.006-2.368 1.107.803 2.385 1.378 3.736 1.611.942.153 1.965.16 2.842-.26.84-.417.991-1.61.492-2.339-.451-.543-1.105-.85-1.731-1.144l-.067-.032c-.247-.11-.498-.218-.748-.326-.977-.42-1.958-.841-2.806-1.492-.749-.584-1.316-1.407-1.538-2.335-.33-1.368-.227-2.91.569-4.105.909-1.393 2.489-2.228 4.098-2.515z" fill="#B2CFDB"/><path fill-rule="evenodd" clip-rule="evenodd" d="M122.774 14.486c1.976-.251 4.061-.14 5.895.695 1.592.718 2.882 2.045 3.597 3.634.763 1.691.948 3.59.819 5.424-.127 1.791-.69 3.586-1.811 5.009-1.147 1.51-2.876 2.534-4.728 2.915-1.582.33-3.238.328-4.821-.005-1.894-.404-3.647-1.503-4.758-3.1-1.303-1.852-1.674-4.206-1.508-6.424.112-1.882.698-3.78 1.901-5.256 1.317-1.654 3.338-2.63 5.414-2.892zm1.228 3.267c1.237-.081 2.555.268 3.445 1.168.951.935 1.319 2.291 1.421 3.585.073 1.416.015 2.891-.58 4.203-.393.885-1.114 1.632-2.023 1.986-1.063.409-2.259.433-3.356.148-1.118-.294-2.066-1.1-2.582-2.128-.663-1.324-.762-2.854-.625-4.305.125-1.32.584-2.678 1.591-3.589.729-.681 1.724-1.014 2.709-1.068z" fill="#B2CFDB"/><path d="M111.374 15.063c1.136-.683 2.581-.74 3.822-.323-.004.761-.003 1.523-.003 2.284v.005c0 .61.001 1.22-.001 1.829a4.379 4.379 0 0 0-2.783-.654c-1.169.133-2.096 1.03-2.576 2.059-.521 1.089-.62 2.32-.587 3.512l.001 2.741-.001 5.484h-4.059c-.002-2.387-.001-4.775-.001-7.162.001-3.344.002-6.687-.003-10.03 1.348-.017 2.696-.01 4.043-.004h.023c-.003.547-.003 1.094-.003 1.64.001.438.001.876-.001 1.313.441-1.07 1.096-2.11 2.129-2.695zM100.99 14.801c-1.987-.561-4.13-.584-6.117-.018-1.825.526-3.499 1.644-4.57 3.225-1.277 1.852-1.728 4.167-1.628 6.385.1 2.134.941 4.264 2.492 5.758 1.427 1.385 3.393 2.131 5.365 2.235 1.927.095 3.945-.163 5.629-1.164-.008-.657-.007-1.314-.006-1.97v-.002c.001-.585.002-1.17-.003-1.755-1.086.793-2.353 1.36-3.695 1.515-1.359.103-2.815-.224-3.853-1.146-1-.852-1.532-2.135-1.664-3.42-.177-1.64.06-3.422 1.09-4.764.802-1.082 2.081-1.777 3.421-1.898 1.688-.213 3.373.43 4.701 1.443.005-.573.004-1.146.003-1.718v-.002c-.002-.738-.004-1.477.009-2.215a4.942 4.942 0 0 0-1.174-.489zM85.819 8.297c-.55-.65-1.45-.932-2.28-.807-1.143.13-2.119 1.17-2.088 2.335-.048 1.107.843 2.1 1.912 2.293 1.03.225 2.213-.21 2.742-1.148.477-.83.359-1.962-.286-2.673zM82.494 14.801l-.669.003c.002 2.867.002 5.733.001 8.598L81.827 32h4.089c.002-2.295.001-4.59 0-6.884v-.124a3140.8 3140.8 0 0 1 .007-10.18 140.988 140.988 0 0 0-3.43-.01zM57.967 8h-5.989c-.002 8-.001 16 0 24h1.572c.782 0 1.566 0 2.349-.002-.003-2.15-.002-4.3-.002-6.452v-4.293c.006-.974.003-1.95 0-2.925-.005-1.612-.01-3.224.022-4.836.074.118.143.24.207.366.92 2.276 1.836 4.553 2.753 6.83 1.52 3.774 3.038 7.547 4.57 11.315.412-.007.824-.005 1.236-.003.575.003 1.15.005 1.724-.015 1.338-3.423 2.697-6.838 4.055-10.253v-.001c1.042-2.62 2.083-5.239 3.116-7.862.063-.132.135-.26.216-.384.019.266.028.53.025.796-.003 2.58-.002 5.158 0 7.737 0 3.324.002 6.648-.006 9.973.904.012 1.808.01 2.713.008.48 0 .962-.002 1.443 0v-3.615c-.002-6.794-.003-13.588 0-20.382-.659.002-1.318 0-1.977-.002h-.001a202.017 202.017 0 0 0-3.784.013c-1.442 3.586-2.902 7.162-4.363 10.74-.952 2.328-1.902 4.656-2.848 6.986a83.476 83.476 0 0 1-.906-2.25c-.171-.435-.342-.87-.516-1.303l-2.581-6.528-.003-.007c-1.01-2.55-2.02-5.1-3.025-7.651zM0 20.97h8.702c3.446 0 6.893 0 10.34.002V40H0V20.97zM35.134 20.971l-14.147.001c-.002 3.623-.001 7.247-.001 10.87V40h19.041V20.97h-4.893z" fill="#B2CFDB"/></svg>