<svg width="190" height="60" fill="none" xmlns="http://www.w3.org/2000/svg"><path d="M1.667 44.3c1.506-.467 3.409-1.058 4.55-1.7-2.8-3.5-4.4-8-4.4-12.7 0-11.5 9.3-20.8 20.8-20.8 6.1 0 11.6 2.5 15.4 6.6-11.7-3.1-28.9-1.3-29.8 6.6-.512 3.922 3.118 6.172 7.05 8.608.68.422 1.37.85 2.05 1.293 3.3 2 6.2 4 6.1 7.5-.2 7.1-17.8 5.7-23.3 5.1.401-.144.943-.312 1.55-.5z" fill="#5176B9"/><path d="M30.417 17.3c5.5-.3 11.8.6 16.6 1.9-1.3.1-4.7 1-5.6 1.9 1.3 2.7 2 5.7 2 9 0 11.5-9.3 20.8-20.8 20.8-4 0-7.7-1.2-10.9-3.1 12.2.6 21.6-3.9 21.7-8.2.074-4.098-5.68-7.03-10.769-9.623-1.742-.888-3.405-1.736-4.731-2.577-2-1.2-3.3-2.5-2.9-3.9 1-3.7 7.7-6 15.4-6.2z" fill="#5176B9"/><path fill-rule="evenodd" clip-rule="evenodd" d="M64.817 39.8c-2.7 0-5-.9-7-2.7l1.8-2.1c1.7 1.5 3.4 2.2 5.3 2.2.9 0 1.6-.2 2.2-.6.5-.4.8-.9.8-1.6 0-.6-.3-1.1-.8-1.5-.5-.4-1.5-.7-3-1.1-2-.5-3.4-1.1-4.3-1.8-.9-.7-1.3-1.8-1.3-3.3 0-1.4.5-2.6 1.6-3.5 1.1-.9 2.4-1.4 4.1-1.4 2.3 0 4.3.7 6.1 2.1l-1.6 2.2c-1.6-1.2-3.1-1.7-4.6-1.7-.8 0-1.5.2-2 .6-.5.4-.7.9-.7 1.5 0 .7.3 1.2.8 1.5.5.4 1.6.7 3.2 1.1 1.9.4 3.2 1 4.1 1.8.9.8 1.3 1.8 1.3 3.2 0 1.6-.6 2.8-1.7 3.7-1.1 1-2.5 1.4-4.3 1.4zm10.9-.2V22.8h3.1l5.1 7.9 5.1-7.9h3.1v16.8h-3v-12l-5.3 7.9h-.1l-5.3-7.9v12h-2.7zm20.8 0 7.4-16.9h2.7l7.4 16.9h-3.1l-1.7-4.1h-7.9l-1.7 4.1h-3.1zm5.9-6.7h5.8l-2.9-6.7-2.9 6.7zm15.9 6.7V22.8h7.5c2 0 3.5.5 4.6 1.5 1.1 1 1.7 2.3 1.7 3.9 0 1.3-.4 2.4-1.1 3.3-.7.9-1.7 1.5-2.9 1.8l4.5 6.4h-3.5l-4.2-5.9h-3.6v5.9h-3v-.1zm3-8.5h4.3c1.1 0 1.9-.3 2.5-.8.6-.5.9-1.2.9-2.1 0-.9-.3-1.6-.9-2.1-.6-.5-1.5-.7-2.6-.7h-4.3v5.7h.1zm20 8.5V25.5h-5.3v-2.7h13.6v2.7h-5.3v14.1h-3zm17.8 0V33l-6.7-10.2h3.5l4.7 7.4 4.8-7.4h3.4l-6.7 10.1v6.7h-3zm13.7 0V22.8h3.1l5.1 7.9 5.1-7.9h3.1v16.8h-3v-12l-5.3 7.9h-.1l-5.3-7.9v12h-2.7z" fill="#000"/></svg>