<svg width="24" height="4" viewBox="0 0 24 4" fill="none" xmlns="http://www.w3.org/2000/svg">
<path d="M4 2C4 3.10457 3.10457 4 2 4C0.895431 4 0 3.10457 0 2C0 0.895431 0.895431 0 2 0C3.10457 0 4 0.895431 4 2Z" fill="#1C3C56"/>
<path d="M14 2C14 3.10457 13.1046 4 12 4C10.8954 4 10 3.10457 10 2C10 0.895431 10.8954 0 12 0C13.1046 0 14 0.895431 14 2Z" fill="#1C3C56"/>
<path d="M22 4C23.1046 4 24 3.10457 24 2C24 0.895431 23.1046 0 22 0C20.8954 0 20 0.895431 20 2C20 3.10457 20.8954 4 22 4Z" fill="#1C3C56"/>
</svg>
