<svg width="23" height="3" viewBox="0 0 23 3" fill="none" xmlns="http://www.w3.org/2000/svg">
<path d="M3 1.5C3 2.32843 2.32843 3 1.5 3C0.671573 3 0 2.32843 0 1.5C0 0.671573 0.671573 0 1.5 0C2.32843 0 3 0.671573 3 1.5Z" fill="#1C3C56"/>
<path d="M12.8 1.5C12.8 2.32843 12.1284 3 11.3 3C10.4716 3 9.8 2.32843 9.8 1.5C9.8 0.671573 10.4716 0 11.3 0C12.1284 0 12.8 0.671573 12.8 1.5Z" fill="#1C3C56"/>
<path d="M22.6 1.5C22.6 2.32843 21.9284 3 21.1 3C20.2716 3 19.6 2.32843 19.6 1.5C19.6 0.671573 20.2716 0 21.1 0C21.9284 0 22.6 0.671573 22.6 1.5Z" fill="#1C3C56"/>
</svg>
