<svg width="226" height="60" viewBox="0 0 226 60" fill="none" xmlns="http://www.w3.org/2000/svg">
<path d="M129.016 20.3564H123.439V39.2149H129.016V20.3564Z" fill="#282828"/>
<path d="M122.916 16.2082C122.916 15.209 123.229 14.4305 123.857 13.8727C124.484 13.315 125.228 13.0245 126.088 13.0013C126.994 12.978 127.784 13.2569 128.458 13.8379C129.155 14.3956 129.504 15.1857 129.504 16.2082C129.504 17.161 129.19 17.9047 128.563 18.4392C127.935 18.9737 127.192 19.2526 126.332 19.2758C125.425 19.299 124.624 19.0434 123.927 18.5089C123.253 17.9512 122.916 17.1843 122.916 16.2082Z" fill="#282828"/>
<path d="M117.73 39.5288C118.567 39.5288 119.566 39.4358 120.728 39.2499L120.553 34.7183C120.019 34.8345 119.496 34.8926 118.985 34.8926C117.288 34.8926 116.44 34.1606 116.44 32.6965V25.2717H120.379V20.5658H116.44V16.4873L110.967 16.9753V20.5658H108.492V25.2717H110.967V32.6965C110.967 35.0901 111.548 36.8331 112.71 37.9253C113.872 39.0175 115.545 39.552 117.73 39.5288Z" fill="#282828"/>
<path fill-rule="evenodd" clip-rule="evenodd" d="M85.7475 29.8034C85.7475 31.9414 85.447 33.8005 84.4477 35.3807C83.4717 36.9377 82.2283 38.0648 80.7178 38.762C79.2306 39.4592 77.6154 39.8078 75.8726 39.8078C74.1528 39.8078 72.5378 39.4592 71.0272 38.762C69.5399 38.0416 68.2966 36.9029 67.2974 35.3459C66.3213 33.7889 65.8333 31.9414 65.8333 29.8034C65.8333 28.1766 66.1237 26.7126 66.7048 25.4112C67.2857 24.0866 68.0409 23.0292 68.9706 22.2391C69.9233 21.4257 70.9924 20.7982 72.1775 20.3567C73.386 19.9152 74.6176 19.706 75.8726 19.7293C77.1507 19.7293 78.3823 19.95 79.5676 20.3916C80.7759 20.8099 81.845 21.4257 82.7745 22.2391C83.7272 23.0524 84.4941 24.1098 85.0751 25.4112C85.6562 26.7126 85.7475 28.1766 85.7475 29.8034ZM71.3409 29.8034C71.3409 31.0118 71.6546 32.0227 72.2821 32.8361C72.9096 33.6494 73.6647 34.1607 74.5479 34.3698C75.431 34.5557 76.314 34.5557 77.1972 34.3698C78.1035 34.1839 78.8703 33.6843 79.4977 32.8709C80.1253 32.0343 80.4389 31.0118 80.4389 29.8034C80.4389 28.9203 80.2647 28.1418 79.9161 27.4678C79.5908 26.7707 79.1609 26.2478 78.6264 25.8992C78.0919 25.5274 77.4993 25.2601 76.8485 25.0975C76.1978 24.9348 75.5472 24.9348 74.8965 25.0975C74.2691 25.2601 73.688 25.5274 73.1535 25.8992C72.619 26.2478 72.1775 26.7707 71.8289 27.4678C71.5035 28.1418 71.3409 28.9203 71.3409 29.8034Z" fill="#282828"/>
<path fill-rule="evenodd" clip-rule="evenodd" d="M98.2783 39.5285C96.2333 39.5285 94.6063 38.8429 93.3983 37.4718V44.7224H87.9603V20.3563H93.3983V22.2387C94.5363 20.8211 96.1863 20.1123 98.3483 20.1123C101.206 20.1123 103.437 21.0883 105.04 23.0404C106.644 24.9925 107.434 27.3512 107.411 30.1167C107.364 32.8589 106.563 35.1131 105.006 36.8792C103.449 38.6454 101.206 39.5285 98.2783 39.5285ZM97.6853 25.3759C96.5003 25.3759 95.4893 25.8175 94.6533 26.7006C93.8163 27.5836 93.3983 28.6526 93.3983 29.9075C93.3983 31.1624 93.8163 32.2431 94.6533 33.1494C95.4893 34.0325 96.5003 34.474 97.6853 34.474C99.0103 34.474 100.032 34.0325 100.753 33.1494C101.497 32.2663 101.88 31.2089 101.903 29.9773C101.926 28.7456 101.555 27.6766 100.788 26.7703C100.044 25.8407 99.0103 25.3759 97.6853 25.3759Z" fill="#282828"/>
<path d="M137.676 20.3562H132.134V39.2147H137.955V28.548C137.955 27.5719 138.281 26.8167 138.931 26.2822C139.605 25.7244 140.326 25.4572 141.093 25.4804C142.65 25.5269 143.428 26.5726 143.428 28.6177V39.2147H148.971V28.4782C148.994 27.5254 149.366 26.7818 150.086 26.2473C150.83 25.7128 151.597 25.4572 152.387 25.4804C153.944 25.5269 154.722 26.5726 154.722 28.6177V39.2147H160.265V28.5828C160.288 25.7709 159.719 23.6794 158.557 22.3083C157.395 20.9139 155.849 20.1819 153.92 20.1122C152.735 20.0657 151.55 20.2633 150.365 20.7048C149.18 21.1231 148.285 21.7505 147.681 22.5872C146.728 21.0069 145.252 20.1703 143.254 20.0773C140.721 20.0309 138.862 20.7513 137.676 22.2386V20.3562Z" fill="#282828"/>
<path fill-rule="evenodd" clip-rule="evenodd" d="M171.666 20.043C173.735 20.043 175.361 20.7982 176.547 22.3088V20.3567H182.019V39.2152H176.547V37.3328C175.408 38.7504 173.758 39.4592 171.597 39.4592C168.738 39.4592 166.507 38.4831 164.904 36.5311C163.3 34.579 162.51 32.2202 162.534 29.4548C162.58 26.7126 163.382 24.4584 164.939 22.6922C166.496 20.9261 168.738 20.043 171.666 20.043ZM172.259 34.1955C173.444 34.1955 174.455 33.754 175.292 32.8709C176.128 31.9878 176.547 30.9188 176.547 29.6639C176.547 28.409 176.128 27.34 175.292 26.4569C174.455 25.5506 173.444 25.0975 172.259 25.0975C170.934 25.0975 169.9 25.539 169.157 26.4221C168.436 27.3052 168.064 28.3625 168.041 29.5942C168.018 30.8259 168.378 31.9065 169.122 32.8361C169.889 33.7424 170.934 34.1955 172.259 34.1955Z" fill="#282828"/>
<path d="M190.531 20.3568V40.017C190.531 42.7592 189.602 44.6997 187.743 45.8384C185.883 47.0003 183.583 47.2908 180.841 46.7098L181.05 42.1782C182.095 42.4106 183.025 42.3525 183.838 42.0039C184.652 41.6554 185.058 40.9582 185.058 39.9124V20.3568H190.531Z" fill="#282828"/>
<path d="M185.512 13.8731C184.861 14.4309 184.536 15.2326 184.536 16.2784C184.536 17.3009 184.873 18.091 185.546 18.6487C186.22 19.1832 187.011 19.4389 187.917 19.4156C188.8 19.3924 189.544 19.1135 190.148 18.579C190.775 18.0445 191.089 17.2776 191.089 16.2784C191.089 15.2791 190.764 14.5006 190.113 13.9428C189.485 13.3619 188.742 13.0598 187.882 13.0365C186.976 13.0133 186.186 13.2922 185.512 13.8731Z" fill="#282828"/>
<path fill-rule="evenodd" clip-rule="evenodd" d="M212.301 29.7329C212.301 30.4766 212.231 31.197 212.092 31.8942H198.567C198.892 32.7308 199.427 33.3815 200.17 33.8462C200.914 34.2878 201.727 34.5203 202.61 34.5434C203.935 34.5434 204.992 34.1136 205.782 33.2537H211.743C211.046 35.2523 209.826 36.7977 208.083 37.8899C206.34 38.9589 204.423 39.4701 202.331 39.4236C199.729 39.3771 197.486 38.5058 195.604 36.8092C193.745 35.0896 192.815 32.7308 192.815 29.7329C192.815 28.1759 193.094 26.7701 193.652 25.5152C194.209 24.2369 194.953 23.2144 195.883 22.4475C196.835 21.6806 197.881 21.0997 199.02 20.7046C200.182 20.2863 201.39 20.0771 202.645 20.0771C205.271 20.1004 207.537 20.9602 209.443 22.6567C211.348 24.3531 212.301 26.7119 212.301 29.7329ZM198.776 27.6066H206.305C206.05 26.7003 205.573 26.0147 204.876 25.5499C204.202 25.0851 203.4 24.8528 202.471 24.8528C201.611 24.8528 200.844 25.0968 200.17 25.5848C199.52 26.0496 199.055 26.7235 198.776 27.6066Z" fill="#282828"/>
<path d="M222.835 39.6996C223.672 39.6996 224.671 39.6067 225.833 39.4208L225.659 34.8891C225.124 35.0053 224.601 35.0634 224.09 35.0634C222.394 35.0634 221.545 34.3314 221.545 32.8674V25.4425H225.484V20.7366H221.545V16.6582L216.073 17.1462V20.7366H213.598V25.4425H216.073V32.8674C216.073 35.261 216.654 37.0039 217.816 38.0961C218.978 39.1884 220.651 39.7229 222.835 39.6996Z" fill="#282828"/>
<path d="M20.8333 50C31.8789 50 40.8333 41.0457 40.8333 30C40.8333 18.9543 31.8789 10 20.8333 10C9.78756 10 0.833252 18.9543 0.833252 30C0.833252 41.0457 9.78756 50 20.8333 50Z" fill="url(#paint0_linear_1353_2977)"/>
<path d="M25.8333 25C25.8333 16.7158 32.549 10 40.8333 10V30C40.8333 41.0457 31.879 50 20.8333 50C9.78755 50 0.833252 41.0457 0.833252 30C0.833252 36.9036 6.42965 42.5 13.3333 42.5C20.2369 42.5 25.8333 36.9036 25.8333 30V25Z" fill="#4286F4"/>
<defs>
<linearGradient id="paint0_linear_1353_2977" x1="10.0333" y1="15.4" x2="35.1833" y2="32.35" gradientUnits="userSpaceOnUse">
<stop stop-color="#4286F4"/>
<stop offset="1" stop-color="#373B44"/>
</linearGradient>
</defs>
</svg>
