<svg width="110" height="80" fill="none" xmlns="http://www.w3.org/2000/svg"><path d="M63.158 35.14c5.827-8.715 15.462-26.482 6.523-32.606-1.987-1.38-4.238-2.02-6.755-2.356-6.688-.908-12.118 1.817-20.825 4.476-8.377 2.557-15.76 1.615-21.025 7.773-3.112 3.6-4.04 7.268-3.874 12.114.331 8.345 5.794 18.911 13.84 21.334 21.223 6.326 28.11-4.778 32.116-10.734Z" fill="#147DFA"/><path d="M59.02 35.107c-1.259-4.441-2.848-12.484-14.47-11.104-11.62 1.346-23.904 5.687-31.188 14.066C6.838 45.572-3.59 80.4 20.546 79.995c20.66-.37 37.182-7.436 40.725-18.978 2.913-9.658-1.556-23.454-2.252-25.91Z" fill="#FF5AC3"/><path d="M5.051 37.294c3.51 5.687 7.814 17.162 13.343 23.05 18.508 19.652 30.295-12.383 31.95-16.993 1.69-4.643.828-9.657-1.059-12.955s-5.264-7.235-11.058-10.566c-5.828-3.331-12.35-5.081-17.482-5.552-13.31-1.28-19.104 2.894-20.197 8.85-1.39 7.436 2.55 11.003 4.503 14.166Z" fill="#FFC82D"/><path d="M33.922 35.847c0 3.029-2.847 3.769-6.655 4.105v-7.605h2.351c3.212 0 4.304 1.01 4.304 3.5Zm58.902 4.408c0-2.759.96-3.533 5.562-3.533h.828v-2.591h-.63c-5.264 0-8.442 1.077-8.442 5.956v1.245c0 3.937 1.424 6.831 7.748 6.831h1.29v-2.591h-1.092c-5.231 0-5.264-2.187-5.264-4.24v-1.077Zm-20.462 7.706h2.649v-18.07h-2.649v18.07Zm-47.909-18.07v18.037h2.781v-5.384c5.33-.673 9.536-2.02 9.536-6.73 0-4.207-2.053-5.957-7.748-5.957h-4.569v.034Zm29.07 6.326c-.166-.605-.364-1.38-.662-1.951h-1.954c.166.673.199 1.884.199 2.86V47.96h2.649v-8.547c0-2.39 3.079-2.591 4.734-2.692v-2.524c-3.94.169-5.198 1.178-5.694 2.154l.728-.135Zm56.22 9.355h-.331c-4.901 0-5.662-1.346-5.662-4.24v-4.61h5.993v-2.49h-5.993V30.43h-2.649v11.003c0 5.384 3.013 6.696 8.013 6.73h.596v-2.591h.033Zm-29.567-5.317c0-2.524 1.126-3.87 3.477-3.87 1.688 0 2.383.674 2.383 2.053 0 1.514-1.06 1.952-2.549 1.952h-4.271l.43 1.985h3.808c2.98 0 5.066-.908 5.066-3.903 0-3.029-1.888-4.307-4.867-4.307-3.709 0-6.093 2.254-6.093 6.09v1.11c0 3.971 1.391 6.832 7.748 6.832h1.887v-2.591h-1.523c-4.834 0-5.463-1.414-5.463-4.173v-1.178h-.033Zm-12.88-1.01c-.827.472-2.582.573-3.906.775-2.252.336-4.37.976-4.37 3.903 0 3.163 2.25 4.173 4.403 4.173 2.218 0 3.708-.774 4.536-1.986l-.994-1.211c-.397.37-1.125 1.11-3.178 1.144-1.424 0-2.285-.807-2.285-2.154 0-1.413.861-1.884 2.351-2.086 1.39-.202 3.212-.269 4.006-.807.067-.337-.53-1.919-.563-1.75Zm-3.476-5.047c-1.457 0-2.55.068-3.708.169v2.389a40.027 40.027 0 0 1 3.708-.169c2.318 0 3.179.572 3.179 3.836v4.779c0 .572.364 1.952.761 2.76h1.953c-.165-.64-.165-2.356-.165-2.828v-4.643c-.033-4.913-1.689-6.293-5.728-6.293Zm-17.747 5.048c-.827.47-2.582.572-3.907.774-2.25.336-4.37.976-4.37 3.903 0 3.163 2.252 4.173 4.437 4.173 2.218 0 3.708-.774 4.536-1.986l-.994-1.211c-.397.37-1.125 1.11-3.178 1.144-1.424 0-2.285-.807-2.285-2.154 0-1.413.861-1.884 2.351-2.086 1.39-.202 3.212-.269 4.006-.807.034-.337-.563-1.919-.596-1.75Zm-3.476-5.048c-1.457 0-2.55.068-3.708.169v2.389a40.027 40.027 0 0 1 3.708-.169c2.318 0 3.178.572 3.178 3.836v4.779c0 .572.365 1.952.762 2.76h1.953c-.165-.64-.165-2.356-.165-2.828v-4.643c-.033-4.913-1.722-6.293-5.728-6.293Z" fill="#000"/></svg>