<svg width="250" height="60" viewBox="0 0 250 60" fill="none" xmlns="http://www.w3.org/2000/svg">
<path fill-rule="evenodd" clip-rule="evenodd" d="M162.561 38.5295V30.134H173.532V29.1177H162.561V21.4714H174.226V20.4551H161.384V39.5468H174.361V38.5305H162.561V38.5295ZM176.368 39.5458H177.545V21.8985H177.598L189.745 39.5468H191.136V20.4551H189.959V37.9684H189.906L177.839 20.4551H176.368V39.5468V39.5458ZM203.043 30.188V31.2033H210.08C210.267 35.8827 207.405 38.9847 202.856 38.9847C197.611 38.9847 194.989 34.9735 194.989 30.107C194.989 25.3486 197.692 21.0163 202.856 21.0163C206.333 21.0163 208.769 23.0759 209.652 26.3639H210.775C210.106 22.3817 206.762 20.001 202.829 20.001C197.076 20.001 193.812 24.7064 193.812 30.107C193.812 35.5887 197.023 40 202.802 40C206.173 40 209.089 38.2625 210.026 35.4816H210.08V39.5458H211.096V30.188H203.043ZM214.334 39.5458H215.511V20.4551H214.333V39.5458H214.334ZM218.882 39.5458H220.06V21.8985H220.113L232.26 39.5458H233.652V20.4551H232.475V37.9684H232.422L220.355 20.4551H218.883V39.5468L218.882 39.5458ZM238.2 38.5295V30.134H249.17V29.1177H238.2V21.4714H249.866V20.4551H237.023V39.5468H250V38.5305H238.2V38.5295Z" fill="#7F7F7F"/>
<path fill-rule="evenodd" clip-rule="evenodd" d="M16.1048 30.0619L13.8206 25.1494H10.9106L14.6504 33.1918L16.1048 30.0609" fill="#6FB048"/>
<path fill-rule="evenodd" clip-rule="evenodd" d="M8.83083 39.4468H11.7417L2.90991 20.4561H0L8.83083 39.4488" fill="#7F7F7F"/>
<path fill-rule="evenodd" clip-rule="evenodd" d="M13.1963 39.4468H16.1062L7.27539 20.4561H4.36548L13.1963 39.4488" fill="#6FB048"/>
<path fill-rule="evenodd" clip-rule="evenodd" d="M16.1062 39.4468H13.1963L22.0271 20.4561H24.937L16.1062 39.4488" fill="#6FB048"/>
<path fill-rule="evenodd" clip-rule="evenodd" d="M13.1952 30.062L17.6627 20.4551H20.5726L14.6517 33.1909L13.1962 30.062H13.1952ZM8.83083 39.4468H11.7417L2.90991 20.4561H0L8.83083 39.4488" fill="#7F7F7F"/>
<path fill-rule="evenodd" clip-rule="evenodd" d="M33.7537 20.001C28.028 20.001 24.6025 24.5464 24.6025 30C24.6025 35.4546 28.028 40 33.7537 40C39.4794 40 42.9038 35.4546 42.9038 30C42.9038 24.5464 39.4794 20.001 33.7537 20.001ZM33.7537 22.7278C37.8478 22.7278 39.5595 26.3369 39.5595 30C39.5595 33.6631 37.8478 37.2722 33.7537 37.2722C29.6596 37.2722 27.9479 33.6631 27.9479 30C27.9479 26.3369 29.6596 22.7278 33.7537 22.7278ZM49.2992 23.182H54.7297C56.4684 23.182 58.047 23.6641 58.047 26.0968C58.047 28.1024 56.8958 29.1447 54.7837 29.1447H49.2982V23.183L49.2992 23.182ZM45.9539 39.5469H49.2992V31.6845H54.2222C57.2992 31.6845 58.021 33.235 58.021 36.738C58.021 37.6743 58.021 38.7166 58.5295 39.5459H62.1151C61.3923 38.7706 61.072 36.738 61.072 34.5194C61.072 31.4984 59.3863 30.6422 58.2352 30.4821V30.4281C58.8508 30.2141 61.3923 29.2778 61.3923 25.6157C61.3923 22.3807 59.2522 20.4551 55.078 20.4551H45.9539V39.5469ZM64.7907 39.5469H68.1351V33.1299L70.8638 30.4291L77.1251 39.5469H81.2992L73.1381 28.0754L80.7637 20.4551H76.6436L68.1351 29.1447V20.4551H64.7907V39.5469ZM83.1191 39.5469H86.4624V31.0713H95.105V28.3425H86.4634V23.343H96.3092V20.4551H83.1191V39.5469ZM98.9849 39.5469H112.042V36.659H102.329V20.4551H98.9859V39.5469H98.9849ZM122.477 20C116.752 20 113.328 24.5464 113.328 30C113.328 35.4546 116.752 40 122.477 40C128.203 40 131.629 35.4546 131.629 30C131.629 24.5464 128.204 20.001 122.477 20.001V20ZM122.477 22.7278C126.572 22.7278 128.283 26.3369 128.283 30C128.283 33.6631 126.572 37.2722 122.477 37.2722C118.384 37.2722 116.672 33.6631 116.672 30C116.672 26.3369 118.384 22.7278 122.477 22.7278ZM137.836 39.5459H141.287L145.194 24.9475H145.247L149.074 39.5459H152.471L157.743 20.4551H154.344L150.786 35.0535H150.733L146.986 20.4551H143.561L139.708 35.0535H139.655L136.203 20.4551H132.805L137.835 39.5459H137.836Z" fill="#6FB048"/>
</svg>
