<svg width="90" height="92" viewBox="0 0 90 92" fill="none" xmlns="http://www.w3.org/2000/svg">
<path d="M7.47576 67.8119C3.74901 63.8744 0.86751 58.8824 0.16326 53.0459C-0.60999 46.5074 1.43001 40.3912 4.87476 35.3984C15.9837 19.3664 31.8747 6.71095 51.4212 1.01545C56.765 -0.532545 62.6007 -0.391545 68.0855 1.99945C73.5695 4.31995 77.7185 8.4682 80.2497 13.3904C89.6007 31.4602 91.3587 51.7102 87.4212 70.7654C86.2257 76.7414 83.132 82.3664 77.8587 86.3039C73.148 89.8199 67.5927 91.0852 62.1087 91.1557C43.898 91.5074 20.3427 81.2414 7.47576 67.8119Z" fill="#00C3FF"/>
<path d="M6.98389 62.3282C3.81964 58.1079 1.64014 53.0454 1.64014 47.4204C1.64014 41.0927 4.24189 35.4677 8.10889 31.1079C20.5543 17.0454 37.1481 6.71046 56.5544 3.54546C61.8276 2.70171 67.3821 3.47571 72.3749 6.35796C77.3669 9.24096 80.8821 13.6704 82.7099 18.6632C89.6714 37.0142 89.0384 56.5614 83.0624 74.3507C81.2339 79.9052 77.6473 84.9677 72.1633 88.1319C67.2418 90.9444 61.7571 91.5069 56.5544 90.9444C39.1169 89.1864 17.6714 76.6712 6.98389 62.3274V62.3282Z" fill="#0E0E2B"/>
<path d="M71.1086 52.2725L77.2256 48.1948L76.2416 46.6475L48.8193 64.9993L49.8041 66.5465L69.4211 53.468L56.4836 66.968L57.8193 68.234L61.9676 63.8038L57.1871 74.2805L58.8041 75.0538L64.1478 63.5225L62.8818 62.96L72.0926 53.1868L71.1086 52.2725Z" fill="#00C3FF"/>
<path d="M62.2501 44.9601H66.5386L67.5931 41.0931H63.3053L65.4143 33.2181H61.0553L56.8366 48.8976H47.1323C43.1251 48.8976 42.0699 46.4369 42.7028 43.0619C43.3358 39.6869 46.3591 36.9449 49.3126 36.8744C51.7028 36.8744 52.8976 38.2807 52.8976 39.8976C52.8976 40.32 52.8278 40.8119 52.7573 41.0226H47.3431L46.2886 44.8904H56.1323C56.6243 43.5539 57.0466 41.7959 57.0466 40.4601C57.0466 36.3825 54.3743 33.1476 49.5233 33.1476C42.9841 33.1476 38.4841 38.9841 38.4841 44.5386C38.4841 49.6011 41.7886 52.7646 46.9921 52.7646H55.8503C55.0771 55.5771 56.8351 57.8976 59.5771 57.9681H63.1628L64.2173 54.0306H61.1243C60.4913 53.9601 60.0691 53.3976 60.2798 52.7646L62.2493 44.9601H62.2501ZM36.5859 28.0154H32.0154L30.9609 31.9529H35.3199L31.3126 46.7879C30.8199 48.1949 29.6949 49.038 28.0074 48.8976H26.3904L25.3359 52.8351H26.8824C28.9921 52.9056 31.3824 52.695 33.2109 50.8664L33.2806 50.7959C34.3359 49.7414 35.2501 48.4056 35.6716 46.7181L40.6636 28.0146H36.5859V28.0154Z" fill="white"/>
</svg>
