<svg width="64" height="48" viewBox="0 0 64 48" fill="none" xmlns="http://www.w3.org/2000/svg">
<path fill-rule="evenodd" clip-rule="evenodd" d="M30.0236 4.35874C32.8876 1.6574 36.751 0 41 0C48.7361 0 55.1882 5.48941 56.6768 12.7854C61.0911 15.7447 64 20.7823 64 26.5C64 35.6127 56.6127 43 47.5 43H43C41.1541 43 39.9534 43.4608 39.2071 44.2071C38.4608 44.9534 38 46.1541 38 48H36C36 45.8459 36.5392 44.0466 37.7929 42.7929C39.0466 41.5392 40.8459 41 43 41H47.5C55.5081 41 62 34.5081 62 26.5C62 21.3389 59.3043 16.8067 55.2393 14.2358L54.8653 13.9992L54.7889 13.5634C53.6364 6.99305 47.9003 2 41 2C37.0471 2 33.4783 3.63691 30.9314 6.2725L30.9131 6.29147L30.8955 6.30785L30.8943 6.30894L30.8913 6.31186L30.8659 6.33652C30.8417 6.36032 30.8032 6.39875 30.7526 6.45146C30.6513 6.55695 30.5015 6.71932 30.3193 6.9359C29.9543 7.36961 29.462 8.01734 28.9684 8.85772C27.9808 10.5394 27 12.9713 27 16H25C25 12.5287 26.1254 9.74935 27.2439 7.84488C27.7153 7.04225 28.1875 6.39122 28.5786 5.90414C27.1686 5.32159 25.6227 5 24 5C17.5759 5 12.3304 10.0484 12.015 16.3937L11.9777 17.1455L11.2449 17.3176C5.94502 18.5622 2 23.3216 2 29C2 35.6274 7.37258 41 14 41H28V43H14C6.26801 43 0 36.732 0 29C0 22.6302 4.25306 17.2561 10.0734 15.5584C10.7954 8.50332 16.7547 3 24 3C26.1548 3 28.1981 3.48749 30.0236 4.35874ZM14 29C14 26.7909 15.7909 25 18 25C20.2091 25 22 26.7909 22 29C22 31.2091 20.2091 33 18 33C15.7909 33 14 31.2091 14 29ZM18 27C16.8954 27 16 27.8954 16 29C16 30.1046 16.8954 31 18 31C19.1046 31 20 30.1046 20 29C20 27.8954 19.1046 27 18 27ZM28 29C28 26.7909 29.7909 25 32 25C34.2091 25 36 26.7909 36 29C36 31.2091 34.2091 33 32 33C29.7909 33 28 31.2091 28 29ZM32 27C30.8954 27 30 27.8954 30 29C30 30.1046 30.8954 31 32 31C33.1046 31 34 30.1046 34 29C34 27.8954 33.1046 27 32 27ZM42 29C42 26.7909 43.7909 25 46 25C48.2091 25 50 26.7909 50 29C50 31.2091 48.2091 33 46 33C43.7909 33 42 31.2091 42 29ZM46 27C44.8954 27 44 27.8954 44 29C44 30.1046 44.8954 31 46 31C47.1046 31 48 30.1046 48 29C48 27.8954 47.1046 27 46 27Z" fill="url(#paint0_linear_1352_368)"/>
<defs>
<linearGradient id="paint0_linear_1352_368" x1="-9.03581e-07" y1="48" x2="46.08" y2="-13.44" gradientUnits="userSpaceOnUse">
<stop stop-color="#6F38FE"/>
<stop offset="1" stop-color="#EF09D2"/>
</linearGradient>
</defs>
</svg>
