<svg width="250" height="20" viewBox="0 0 250 20" fill="none" xmlns="http://www.w3.org/2000/svg">
<path fill-rule="evenodd" clip-rule="evenodd" d="M162.561 18.5295V10.134H173.532V9.11771H162.561V1.47142H174.226V0.455113H161.384V19.5468H174.361V18.5305H162.561V18.5295ZM176.368 19.5458H177.545V1.89855H177.598L189.745 19.5468H191.136V0.455113H189.959V17.9684H189.906L177.839 0.455113H176.368V19.5468V19.5458ZM203.043 10.188V11.2033H210.08C210.267 15.8827 207.405 18.9847 202.856 18.9847C197.611 18.9847 194.989 14.9735 194.989 10.107C194.989 5.34858 197.692 1.01628 202.856 1.01628C206.333 1.01628 208.769 3.0759 209.652 6.36389H210.775C210.106 2.38169 206.762 0.000976562 202.829 0.000976562C197.076 0.000976562 193.812 4.70639 193.812 10.107C193.812 15.5887 197.023 20 202.802 20C206.173 20 209.089 18.2625 210.026 15.4816H210.08V19.5458H211.096V10.188H203.043ZM214.334 19.5458H215.511V0.455113H214.333V19.5458H214.334ZM218.882 19.5458H220.06V1.89855H220.113L232.26 19.5458H233.652V0.455113H232.475V17.9684H232.422L220.355 0.455113H218.883V19.5468L218.882 19.5458ZM238.2 18.5295V10.134H249.17V9.11771H238.2V1.47142H249.866V0.455113H237.023V19.5468H250V18.5305H238.2V18.5295Z" fill="#7F7F7F"/>
<path fill-rule="evenodd" clip-rule="evenodd" d="M16.1048 10.0619L13.8206 5.14941H10.9106L14.6504 13.1918L16.1048 10.0609" fill="#6FB048"/>
<path fill-rule="evenodd" clip-rule="evenodd" d="M8.83083 19.4467H11.7417L2.90991 0.456055H0L8.83083 19.4488" fill="#7F7F7F"/>
<path fill-rule="evenodd" clip-rule="evenodd" d="M13.1963 19.4467H16.1062L7.27539 0.456055H4.36548L13.1963 19.4488" fill="#6FB048"/>
<path fill-rule="evenodd" clip-rule="evenodd" d="M16.1062 19.4467H13.1963L22.0271 0.456055H24.937L16.1062 19.4488" fill="#6FB048"/>
<path fill-rule="evenodd" clip-rule="evenodd" d="M13.1952 10.062L17.6627 0.455078H20.5726L14.6517 13.1909L13.1962 10.062H13.1952ZM8.83083 19.4468H11.7417L2.90991 0.456078H0L8.83083 19.4488" fill="#7F7F7F"/>
<path fill-rule="evenodd" clip-rule="evenodd" d="M33.7537 0.0010003C28.028 0.0010003 24.6025 4.54636 24.6025 10C24.6025 15.4546 28.028 20 33.7537 20C39.4794 20 42.9038 15.4546 42.9038 10C42.9038 4.54636 39.4794 0.0010003 33.7537 0.0010003V0.0010003ZM33.7537 2.72782C37.8478 2.72782 39.5595 6.3369 39.5595 10C39.5595 13.6631 37.8478 17.2722 33.7537 17.2722C29.6596 17.2722 27.9479 13.6631 27.9479 10C27.9479 6.3369 29.6596 2.72782 33.7537 2.72782V2.72782ZM49.2992 3.18195H54.7297C56.4684 3.18195 58.047 3.6641 58.047 6.09683C58.047 8.10243 56.8958 9.14474 54.7837 9.14474H49.2982V3.18295L49.2992 3.18195ZM45.9539 19.5469H49.2992V11.6845H54.2222C57.2992 11.6845 58.021 13.235 58.021 16.738C58.021 17.6743 58.021 18.7166 58.5295 19.5459H62.1151C61.3923 18.7706 61.072 16.738 61.072 14.5194C61.072 11.4984 59.3863 10.6422 58.2352 10.4821V10.4281C58.8508 10.2141 61.3923 9.27778 61.3923 5.61568C61.3923 2.38071 59.2522 0.455137 55.078 0.455137H45.9539V19.5469ZM64.7907 19.5469H68.1351V13.1299L70.8638 10.4291L77.1251 19.5469H81.2992L73.1381 8.07542L80.7637 0.455137H76.6436L68.1351 9.14474V0.455137H64.7907V19.5469V19.5469ZM83.1191 19.5469H86.4624V11.0713H95.105V8.3425H86.4634V3.343H96.3092V0.455137H83.1191V19.5469ZM98.9849 19.5469H112.042V16.659H102.329V0.455137H98.9859V19.5469H98.9849ZM122.477 0C116.752 0 113.328 4.54636 113.328 10C113.328 15.4546 116.752 20 122.477 20C128.203 20 131.629 15.4546 131.629 10C131.629 4.54636 128.204 0.0010003 122.477 0.0010003V0ZM122.477 2.72782C126.572 2.72782 128.283 6.3369 128.283 10C128.283 13.6631 126.572 17.2722 122.477 17.2722C118.384 17.2722 116.672 13.6631 116.672 10C116.672 6.3369 118.384 2.72782 122.477 2.72782V2.72782ZM137.836 19.5459H141.287L145.194 4.94748H145.247L149.074 19.5459H152.471L157.743 0.455137H154.344L150.786 15.0535H150.733L146.986 0.455137H143.561L139.708 15.0535H139.655L136.203 0.455137H132.805L137.835 19.5459H137.836Z" fill="#6FB048"/>
</svg>
