<svg width="68" height="54" viewBox="0 0 68 54" fill="none" xmlns="http://www.w3.org/2000/svg">
<path d="M44.0822 29.1139C46.4397 27.0755 49.5128 25.8425 52.8739 25.8425C60.3015 25.8425 66.3227 31.8638 66.3227 39.2913C66.3227 46.7189 60.3015 52.7401 52.8739 52.7401C45.4464 52.7401 39.4251 46.7189 39.4251 39.2913V38.1111V27.7614C39.4251 24.5781 36.8446 22 33.6614 22C30.4781 22 27.8976 24.5805 27.8976 27.7638V38.1111V39.2913C27.8976 46.7189 21.8764 52.7401 14.4488 52.7401C7.02123 52.7401 1 46.7189 1 39.2913C1 31.8638 7.02123 25.8425 14.4488 25.8425C17.8099 25.8425 20.8831 27.0755 23.2406 29.1139" stroke="white" stroke-width="2"/>
<path d="M60.7952 24.0551L54.6471 7.53227C53.1101 3.30551 50.8222 1 46.5779 1C43.9197 1 41.5768 2.34954 40.1968 4.40084C38.796 6.48321 36.8583 8.68502 34.3486 8.68502H33.3486C30.893 8.68502 28.9971 6.53713 27.6524 4.48237C26.2801 2.38538 23.9105 1 21.2173 1C16.973 1 14.685 3.30551 13.148 7.53227L7 24.0551" stroke="white" stroke-width="2"/>
</svg>
