<svg width="33" height="48" viewBox="0 0 33 48" fill="none" xmlns="http://www.w3.org/2000/svg">
<path fill-rule="evenodd" clip-rule="evenodd" d="M12.3333 15C12.3333 12.7909 14.1241 11 16.3333 11C18.5424 11 20.3333 12.7909 20.3333 15C20.3333 17.2091 18.5424 19 16.3333 19C14.1241 19 12.3333 17.2091 12.3333 15ZM16.3333 13C15.2287 13 14.3333 13.8954 14.3333 15C14.3333 16.1046 15.2287 17 16.3333 17C17.4378 17 18.3333 16.1046 18.3333 15C18.3333 13.8954 17.4378 13 16.3333 13ZM14.3333 39C14.3333 40.1046 15.2287 41 16.3333 41C17.4378 41 18.3333 40.1046 18.3333 39C18.3333 37.8954 17.4378 37 16.3333 37C15.2287 37 14.3333 37.8954 14.3333 39ZM16.3333 43C14.1241 43 12.3333 41.2091 12.3333 39C12.3333 36.7909 14.1241 35 16.3333 35C18.5424 35 20.3333 36.7909 20.3333 39C20.3333 41.2091 18.5424 43 16.3333 43ZM28.3333 46V38C28.3333 31.3726 22.9607 26 16.3333 26C9.70583 26 4.33325 31.3726 4.33325 38V46H28.3333ZM10.9507 25.0721C5.89034 27.1814 2.33325 32.1753 2.33325 38V46H0.333252V48H32.3333V46H30.3333V38C30.3333 32.1753 26.7762 27.1814 21.7158 25.0721C20.0587 24.3814 18.2405 24 16.3333 24C18.2405 24 20.0587 23.6186 21.7158 22.9279C26.7762 20.8186 30.3333 15.8247 30.3333 10V2H32.3333V0H0.333252V2H2.33325V10C2.33325 15.8247 5.89034 20.8186 10.9507 22.9279C12.6078 23.6186 14.426 24 16.3333 24C14.426 24 12.6078 24.3814 10.9507 25.0721ZM4.33325 2V10C4.33325 16.6274 9.70583 22 16.3333 22C22.9607 22 28.3333 16.6274 28.3333 10V2H4.33325Z" fill="url(#paint0_linear_1352_367)"/>
<defs>
<linearGradient id="paint0_linear_1352_367" x1="0.333252" y1="48" x2="44.6409" y2="18.4615" gradientUnits="userSpaceOnUse">
<stop stop-color="#6F38FE"/>
<stop offset="1" stop-color="#EF09D2"/>
</linearGradient>
</defs>
</svg>
