<svg width="49" height="48" viewBox="0 0 49 48" fill="none" xmlns="http://www.w3.org/2000/svg">
<path fill-rule="evenodd" clip-rule="evenodd" d="M11.6667 34.9999C11.6669 36.1042 12.5622 36.9994 13.6667 36.9994C14.7713 36.9994 15.6666 36.1042 15.6667 34.9999C15.6669 33.8955 14.7714 33 13.6667 33C12.5621 33 11.6666 33.8955 11.6667 34.9999ZM13.6667 38.9994C11.458 38.9994 9.66699 37.2092 9.66675 35.0001C9.66651 32.7908 11.4577 31 13.6667 31C15.8758 31 17.667 32.7908 17.6667 35.0001C17.6665 37.2092 15.8755 38.9994 13.6667 38.9994ZM25.0816 17.8857L23.8423 17.325C21.9615 16.4741 19.8723 15.9994 17.6667 15.9994C9.38248 15.9994 2.66675 22.7151 2.66675 30.9994C2.66675 39.2836 9.38248 45.9994 17.6667 45.9994C25.951 45.9994 32.6667 39.2836 32.6667 30.9994C32.6667 28.7965 32.1932 26.7096 31.3442 24.8305L30.8012 23.629L36.6667 17.2227V11H41.6667V6H46.6667V2H41.4767L25.0816 17.8857ZM40.6667 0H48.6667V8H43.6667V13H38.6667V18L33.1667 24.007C34.1304 26.1398 34.6667 28.5069 34.6667 30.9994C34.6667 40.3882 27.0556 47.9994 17.6667 47.9994C8.27791 47.9994 0.666748 40.3882 0.666748 30.9994C0.666748 21.6105 8.27791 13.9994 17.6667 13.9994C20.1622 13.9994 22.532 14.537 24.6667 15.5028L40.6667 0Z" fill="url(#paint0_linear_1352_369)"/>
<defs>
<linearGradient id="paint0_linear_1352_369" x1="0.666747" y1="47.9994" x2="48.6661" y2="-0.000639635" gradientUnits="userSpaceOnUse">
<stop stop-color="#6F38FE"/>
<stop offset="1" stop-color="#EF09D2"/>
</linearGradient>
</defs>
</svg>
