<svg width="58" height="88" viewBox="0 0 58 88" fill="none" xmlns="http://www.w3.org/2000/svg">
<path d="M29.0341 87.96C45.8341 87.96 57.4741 78.84 57.4741 63.24C57.4741 51.36 50.6341 43.92 40.4341 41.64C48.8341 39 54.4741 32.16 54.4741 22.8C54.4741 10.56 45.5941 0.239994 30.3541 0.239994C15.2341 0.239994 4.55406 10.68 3.71406 23.76H9.71406C10.7941 13.44 18.4741 5.87999 30.3541 5.87999C41.8741 5.87999 47.9941 13.2 47.9941 22.92C47.9941 31.92 42.9541 39.24 30.5941 39.24H24.8341V44.88H31.0741C44.3941 44.88 50.6341 52.2 50.6341 63.24C50.6341 75.36 42.9541 82.44 29.1541 82.44C14.5141 82.44 7.55406 73.56 6.47406 62.76H0.354063C0.954063 76.44 11.3941 87.96 29.0341 87.96Z" fill="#EDF5FB"/>
</svg>
