<svg width="48" height="48" fill="none" xmlns="http://www.w3.org/2000/svg"><path fill-rule="evenodd" clip-rule="evenodd" d="M33 11a4 4 0 1 1 8 0 4 4 0 0 1-8 0Zm4-2a2 2 0 1 0 0 4 2 2 0 0 0 0-4ZM26.293 33.707l-12-12 1.414-1.414 12 12-1.414 1.414Zm-5 5-12-12 1.414-1.414 12 12-1.414 1.414ZM0 27 27 0h21v21L21 48 0 27Zm21 18.172L2.828 27l25-25H46v18.172l-25 25Z" fill="url(#a)"/><defs><linearGradient id="a" x1="0" y1="48" x2="48" y2="0" gradientUnits="userSpaceOnUse"><stop stop-color="#6F38FE"/><stop offset="1" stop-color="#EF09D2"/></linearGradient></defs></svg>