<svg width="49" height="48" fill="none" xmlns="http://www.w3.org/2000/svg"><path fill-rule="evenodd" clip-rule="evenodd" d="M11.667 35a2 2 0 1 0 4 0 2 2 0 0 0-4 0Zm2 4a4 4 0 1 1 0-8 4 4 0 0 1 0 8Zm11.415-21.114-1.24-.561a14.939 14.939 0 0 0-6.175-1.326c-8.285 0-15 6.716-15 15 0 8.285 6.715 15 15 15 8.284 0 15-6.715 15-15 0-2.202-.474-4.29-1.323-6.168l-.543-1.202 5.866-6.406V11h5V6h5V2h-5.19L25.082 17.886ZM40.667 0h8v8h-5v5h-5v5l-5.5 6.007c.963 2.133 1.5 4.5 1.5 6.992 0 9.39-7.611 17-17 17-9.39 0-17-7.61-17-17 0-9.389 7.61-17 17-17 2.495 0 4.865.538 7 1.504L40.667 0Z" fill="url(#a)"/><defs><linearGradient id="a" x1=".667" y1="47.999" x2="48.666" y2="-.001" gradientUnits="userSpaceOnUse"><stop stop-color="#6F38FE"/><stop offset="1" stop-color="#EF09D2"/></linearGradient></defs></svg>