<svg width="184" height="61" viewBox="0 0 184 61" fill="none" xmlns="http://www.w3.org/2000/svg">
<path d="M17.8839 39.4102C17.7 39.4562 17.6081 39.5942 17.5161 39.7322C15.4473 42.0322 13.3325 44.3322 11.2637 46.6322C11.0338 46.9082 10.8039 47.0002 10.4361 47.0002C7.12599 47.0002 3.81585 47.0002 0.505715 47.0002C0.367793 47.0002 0.183897 47.0462 -6.85066e-10 46.9542C12.1372 37.5242 24.2743 28.0942 36.4115 18.6642C36.4115 18.8482 36.2736 18.9402 36.2276 19.0322C34.4806 20.9642 32.7336 22.8962 30.9866 24.8742C28.9637 27.1282 26.9408 29.3822 24.872 31.6362C24.7801 31.7282 24.6421 31.8202 24.6421 31.9582C24.4582 32.0502 24.3663 32.1882 24.2284 32.3262C23.3549 33.2922 22.4814 34.3042 21.6078 35.2702C20.4125 36.5582 19.2632 37.8922 18.0678 39.1802C18.0219 39.1802 17.9299 39.2722 17.8839 39.4102Z" fill="#0294DD"/>
<path d="M0.0933112 43.8263C0.0150529 43.6697 0.103311 43.5464 0.188017 43.4281C0.202827 43.4074 0.217551 43.3869 0.231234 43.3663C0.897858 42.0553 1.55299 40.7328 2.20812 39.4103C2.86325 38.0878 3.51838 36.7653 4.18501 35.4543L15.0809 13.6503C15.1269 13.5813 15.1613 13.5123 15.1958 13.4433C15.2303 13.3743 15.2648 13.3053 15.3108 13.2363C15.4069 13.2363 15.436 13.3034 15.4604 13.3596C15.471 13.384 15.4807 13.4064 15.4946 13.4203L21.977 26.3923C22.04 26.5183 22.0742 26.5868 22.0622 26.6459C22.0479 26.7162 21.968 26.7733 21.7931 26.8983C20.3219 28.0253 18.8622 29.1639 17.4025 30.3024C15.9429 31.4409 14.4832 32.5793 13.012 33.7063C8.73645 37.1103 4.41488 40.4683 0.0933112 43.8263Z" fill="#444B50"/>
<path fill-rule="evenodd" clip-rule="evenodd" d="M135.394 41.7097C135.394 42.2157 135.348 42.7217 135.256 43.2277C135.026 44.3317 134.429 45.2057 133.463 45.7577C132.498 46.3557 131.486 46.6777 130.383 46.8617C129.647 46.9997 128.866 46.9997 128.084 46.9997H121.28C120.269 46.9997 119.257 46.9537 118.292 46.6777C117.924 46.5857 117.556 46.4937 117.234 46.3097C115.625 45.6197 114.798 44.3317 114.66 42.5837V33.4297C114.66 32.8777 114.706 32.3257 114.89 31.8197C115.165 30.9457 115.717 30.3017 116.453 29.7497C117.326 29.1057 118.292 28.7837 119.349 28.5997C120.039 28.5077 120.682 28.4617 121.372 28.4617H130.797C131.164 28.4617 131.164 28.4617 131.164 28.0937V22.9877C131.164 22.8957 131.21 22.8497 131.302 22.8497H134.934L135.001 22.8494L135.05 22.849C135.224 22.8476 135.311 22.8469 135.354 22.8899C135.397 22.9329 135.396 23.0198 135.395 23.1935L135.394 23.2355L135.394 23.3097V41.7097ZM131.164 36.8337V32.0957C131.164 31.7277 131.164 31.7277 130.843 31.7277H122.245C121.602 31.7277 120.958 31.8197 120.36 32.0497C119.579 32.3717 119.073 32.8777 118.935 33.7057C118.889 33.9817 118.889 34.3037 118.889 34.5797V41.6637C118.935 42.7677 119.395 43.3197 120.452 43.6417C121.05 43.8257 121.694 43.8717 122.337 43.8717H127.395C127.808 43.8717 128.222 43.8257 128.636 43.7797C129.142 43.7337 129.601 43.5957 130.061 43.3657C130.613 43.0437 130.98 42.5837 131.072 41.9397C131.118 41.7097 131.118 41.5257 131.118 41.2957C131.164 39.7777 131.164 38.3057 131.164 36.8337Z" fill="#444B50"/>
<path fill-rule="evenodd" clip-rule="evenodd" d="M86.1554 46.9997H80.5465C79.2592 46.9997 78.0179 46.9537 76.7766 46.6317C76.3169 46.4937 75.8572 46.3557 75.4434 46.1257C73.8803 45.2977 73.0987 44.0097 73.0527 42.2617V33.2456C73.0527 32.8316 73.0987 32.4636 73.1907 32.0956C73.4665 30.9457 74.1101 30.0717 75.1216 29.5197C75.9491 29.0597 76.8226 28.8296 77.7881 28.6916C78.6156 28.5536 79.4431 28.5536 80.2707 28.5536H87.3507C88.4541 28.5536 89.5574 28.6456 90.6149 28.9216C90.9827 29.0136 91.3504 29.1517 91.7182 29.3356C93.0055 30.0257 93.7411 31.1297 93.925 32.5557C94.0112 33.1882 94.0076 33.8207 94.004 34.4531C94.0019 34.8325 93.9997 35.2123 94.0169 35.5917C94.0169 35.7881 93.9163 35.8168 93.801 35.8496C93.7813 35.8552 93.7612 35.8609 93.7411 35.8677L90.8447 36.6957C88.6841 37.3396 86.512 37.9835 84.3399 38.6275C82.1675 39.2715 79.995 39.9156 77.834 40.5597L77.7542 40.586C77.6014 40.6361 77.5285 40.66 77.4942 40.7103C77.4629 40.7562 77.4637 40.824 77.4654 40.9539L77.466 41.0141L77.4662 41.0657C77.4662 41.4337 77.4662 41.8017 77.6042 42.1237C77.834 42.8597 78.3398 43.3657 79.0753 43.5497C79.8109 43.7337 80.5925 43.7797 81.3741 43.7797H93.4193C93.6951 43.7797 93.833 43.7797 93.902 43.8486C93.971 43.9176 93.971 44.0556 93.971 44.3317V46.5397C93.971 46.9537 93.971 46.9537 93.5572 46.9537H91.0746C89.3736 46.9997 87.7645 46.9997 86.1554 46.9997ZM77.3283 37.5697C77.4663 37.6157 77.5582 37.5697 77.6501 37.5237C78.7765 37.2016 79.8914 36.8681 81.0063 36.5346C82.1211 36.2011 83.236 35.8676 84.3624 35.5457C85.1669 35.3156 85.9715 35.0741 86.776 34.8326C87.5804 34.5912 88.3853 34.3496 89.1897 34.1197C89.3529 34.073 89.4333 34.05 89.4729 33.9967C89.5115 33.9448 89.5115 33.8644 89.5115 33.7057C89.4655 32.9237 89.0977 32.3717 88.3621 32.0497C87.8564 31.8197 87.3507 31.7276 86.799 31.6817C84.6842 31.6356 82.5694 31.6356 80.4546 31.6817C79.8109 31.6817 79.1673 31.8197 78.5696 32.0956C77.7881 32.4636 77.3283 33.1077 77.3283 34.0277V37.5697Z" fill="#444B50"/>
<path fill-rule="evenodd" clip-rule="evenodd" d="M146.336 47.0006H151.99C154.427 47.0006 156.91 47.0006 159.3 47.0926C159.668 47.0926 159.668 47.0926 159.668 46.7706V44.5166C159.668 43.9186 159.668 43.9186 159.116 43.9186H147.117C146.336 43.9186 145.6 43.8726 144.818 43.6886C144.083 43.4586 143.577 42.9986 143.347 42.2626C143.209 41.9406 143.209 41.5726 143.209 41.2046C143.209 41.0017 143.209 40.8982 143.258 40.8292C143.309 40.7575 143.412 40.723 143.623 40.6526C145.828 40.0093 148.044 39.3544 150.26 38.6995L150.263 38.6987L150.27 38.6966L150.273 38.6958C152.489 38.0409 154.705 37.386 156.91 36.7426C157.783 36.5126 158.611 36.2826 159.484 36.0066C159.508 35.9987 159.533 35.9921 159.558 35.9855C159.68 35.9538 159.806 35.9209 159.806 35.7306C159.789 35.3459 159.797 34.9612 159.804 34.5765C159.818 33.9032 159.831 33.2299 159.714 32.5566C159.53 31.1766 158.794 30.1186 157.507 29.4286C157.139 29.2446 156.818 29.1066 156.45 29.0146C155.346 28.6926 154.243 28.6006 153.14 28.6006H146.06C145.232 28.6006 144.405 28.6006 143.577 28.7386C142.612 28.8766 141.738 29.1066 140.911 29.5666C139.899 30.1186 139.255 30.9926 138.98 32.1426C138.888 32.5106 138.842 32.9246 138.842 33.3386V39.6866C138.842 39.9593 138.837 40.237 138.832 40.518C138.821 41.0902 138.811 41.6766 138.842 42.2626C138.888 44.0566 139.761 45.3906 141.416 46.2186C141.83 46.4026 142.198 46.5406 142.612 46.6326C143.853 46.9546 145.094 47.0006 146.336 47.0006ZM143.669 37.5246C143.531 37.5706 143.393 37.6166 143.163 37.6166V34.1206C143.163 33.1546 143.623 32.5106 144.497 32.1426C145.094 31.8666 145.692 31.7746 146.336 31.7286C146.749 31.6826 147.209 31.6826 147.623 31.6826H152.266C152.91 31.6826 153.553 31.7746 154.197 32.0506C154.887 32.3266 155.3 32.9246 155.346 33.7066C155.346 34.0286 155.346 34.0286 155.025 34.1206C154.175 34.3735 153.336 34.6263 152.498 34.8792L152.496 34.8796C151.657 35.1326 150.818 35.3856 149.967 35.6386C148.91 35.9607 147.864 36.2712 146.818 36.5817C145.773 36.8921 144.726 37.2027 143.669 37.5246Z" fill="#444B50"/>
<path d="M183.943 46.5408V40.0088C183.943 38.8128 183.943 37.5708 183.989 36.3288C183.989 36.0895 183.992 35.8473 183.994 35.603C184.003 34.8614 184.012 34.1001 183.943 33.3388C183.805 31.0848 182.518 29.5208 180.403 28.8768C179.391 28.5548 178.38 28.4628 177.322 28.4628H169.875C169.369 28.4628 168.863 28.5088 168.358 28.5548C167.622 28.6468 166.84 28.7848 166.151 29.1068C164.772 29.7048 163.898 30.7168 163.484 32.1888C163.3 32.8328 163.254 33.5228 163.254 34.2128V46.6328C163.254 46.9548 163.3 46.9548 163.576 46.9548H167.254C167.53 46.9548 167.53 46.9548 167.53 46.6328V35.5928C167.53 35.5065 167.54 35.41 167.551 35.3082L167.551 35.3065C167.563 35.1919 167.576 35.0702 167.576 34.9488C167.668 33.7068 168.266 33.0168 169.461 32.6488C170.059 32.4648 170.702 32.4188 171.346 32.4188H175.759C176.311 32.4188 176.817 32.4648 177.368 32.5568C178.84 32.8788 179.575 33.7528 179.621 35.2708V46.5868C179.621 46.7939 179.621 46.8974 179.673 46.9491C179.725 47.0008 179.828 47.0008 180.035 47.0008H183.483C183.521 47.0008 183.556 47.0012 183.589 47.0014C183.75 47.0029 183.838 47.0037 183.886 46.9604C183.943 46.9085 183.943 46.7935 183.943 46.5408Z" fill="#444B50"/>
<path d="M45.3765 28.554C45.5144 28.508 45.6063 28.508 45.7443 28.508H49.1923C49.5141 28.508 49.6521 28.6 49.79 28.876C51.0543 31.1301 52.3071 33.3726 53.5599 35.6151C54.8127 37.8576 56.0655 40.1001 57.3297 42.354C57.3604 42.4 57.3859 42.446 57.4115 42.492C57.4626 42.584 57.5136 42.676 57.6056 42.768C57.6516 42.699 57.6861 42.6415 57.7205 42.584C57.755 42.5265 57.7895 42.469 57.8355 42.4C60.3181 37.938 62.8007 33.43 65.2833 28.922C65.4672 28.6 65.6511 28.508 65.9729 28.508C66.7102 28.5388 67.4679 28.5284 68.2188 28.5182C68.5917 28.5131 68.9629 28.508 69.329 28.508C69.3635 28.508 69.398 28.5051 69.4324 28.5023C69.5359 28.4936 69.6393 28.485 69.7428 28.554C69.7788 28.6621 69.7302 28.7419 69.6854 28.8157C69.6729 28.8361 69.6608 28.8561 69.6508 28.876L60.41 45.436C59.7204 46.678 58.617 47.046 57.2838 47C57.0539 47 56.824 46.954 56.6401 46.908C55.7206 46.724 55.077 46.218 54.6632 45.39C53.9966 44.171 53.3185 42.952 52.6404 41.7331C51.9623 40.514 51.2841 39.295 50.6175 38.076C48.9165 35.04 47.2154 31.958 45.5604 28.922C45.4684 28.83 45.3765 28.738 45.3765 28.554Z" fill="#444B50"/>
<path d="M18.0677 39.0882C17.9757 39.1802 17.8838 39.2722 17.8838 39.4102C19.1251 41.8482 20.3204 44.3322 21.4698 46.7242C21.5617 46.9081 21.6996 46.9542 21.9295 46.9542H31.814C31.8565 46.9542 31.8946 46.9629 31.9298 46.971C32.0086 46.989 32.0722 47.0036 32.1358 46.9081C32.1128 46.8391 32.0783 46.7701 32.0438 46.7011C32.0094 46.6322 31.9749 46.5631 31.9519 46.4942C31.1874 44.9643 30.4178 43.4293 29.6464 41.8909C28.0987 38.8038 26.5439 35.7029 25.0098 32.6021C24.9178 32.3721 24.7799 32.0961 24.642 31.8661C24.5051 31.9346 24.4191 32.0287 24.3272 32.1292C24.2957 32.1637 24.2635 32.1989 24.2282 32.2341C23.7915 32.7171 23.3549 33.2115 22.9182 33.7059C22.4815 34.2003 22.0444 34.6952 21.6077 35.1782C20.4583 36.4662 19.263 37.8001 18.0677 39.0882Z" fill="#444B50"/>
<path d="M41.8365 18.6188V46.7248C41.8365 46.8941 41.8365 46.9744 41.7964 47.0124C41.7602 47.0468 41.6915 47.0468 41.5606 47.0468H37.7908C37.5609 47.0468 37.4689 46.9548 37.5149 46.7708V23.7708C37.5149 23.4488 37.6069 23.2188 37.7908 22.9888C39.032 21.6088 40.2734 20.2287 41.5606 18.8488C41.5836 18.8028 41.6181 18.7683 41.6526 18.7338C41.6871 18.6993 41.7215 18.6648 41.7445 18.6188H41.8365Z" fill="#444B50"/>
<path d="M97.3732 33.5224V46.5864C97.3732 46.8394 97.3617 46.9544 97.4134 47.0062C97.4651 47.0579 97.5801 47.0464 97.8329 47.0464H101.281C101.558 47.0464 101.684 47.0695 101.741 47.0172C101.798 46.9651 101.787 46.8385 101.787 46.5404V34.6264C101.787 34.3044 101.833 33.9824 101.879 33.6604C102.063 32.6484 102.844 31.9124 103.856 31.8204C104.683 31.7591 105.511 31.7386 106.338 31.7182C106.752 31.7079 107.166 31.6977 107.579 31.6824H110.798C111.119 31.6824 111.119 31.6824 111.119 31.3604V28.8304C111.119 28.6464 111.073 28.5084 110.844 28.5544H104.545C103.718 28.5544 102.936 28.5544 102.108 28.6924C101.189 28.8304 100.316 29.0604 99.488 29.5204C98.5685 30.0264 97.9249 30.8084 97.603 31.8204C97.4191 32.3724 97.3732 32.9704 97.3732 33.5224Z" fill="#444B50"/>
</svg>
