<svg width="230" height="61" viewBox="0 0 230 61" fill="none" xmlns="http://www.w3.org/2000/svg">
<path d="M26.7734 23.1951C22.5058 23.1951 19.2266 26.1664 19.2266 30.1426C19.2266 34.1189 22.416 37.1776 26.6387 37.1776C28.7051 37.1776 30.8613 36.2163 32.3438 34.7307L30.457 32.7644C29.4238 33.7694 28.0312 34.3811 26.7734 34.3811C24.3476 34.3811 22.4609 32.5459 22.4609 30.1426C22.4609 27.7394 24.3476 25.9042 26.7734 25.9042C28.0762 25.9042 29.4687 26.6033 30.457 27.6957L32.2988 25.5109C30.9512 24.069 28.7949 23.1951 26.7734 23.1951ZM0 12.6645H230V47.6645H0V12.6645ZM228.518 14.1064H1.48242V46.2225H228.473V14.1064H228.518ZM53.0977 23.2825H49.9082V31.2787C49.9082 33.245 48.6504 34.4685 46.7637 34.4685C44.8769 34.4685 43.5293 33.2887 43.5293 31.2787V23.2825H40.3398V31.2787C40.3398 34.9054 42.8555 37.1776 46.7637 37.1776C50.6719 37.1776 53.0977 34.9054 53.0977 31.2787V23.2825ZM67.4727 23.1514C64.1934 23.1514 61.9922 24.7244 61.9922 27.215C61.9922 32.1089 69.5391 30.5796 69.5391 33.1576C69.5391 33.9878 68.7305 34.4685 67.4277 34.4685C65.9453 34.4685 63.8789 33.682 62.3965 32.4148L61.1387 34.9491C62.7558 36.26 65.0469 37.1339 67.3828 37.1339C70.5273 37.1339 72.9082 35.692 72.9082 32.9828C72.9082 28.0453 65.4062 29.4435 65.4062 26.9092C65.4062 26.1664 66.125 25.7731 67.2031 25.7731C68.3262 25.7731 70.1231 26.3411 71.6055 27.1714L72.8184 24.5933C71.4258 23.7631 69.4492 23.1514 67.4727 23.1514ZM91.9101 25.9042V23.2825H80.0957V25.9042H84.4082V37.0465H87.5977V25.9042H91.9101ZM105.791 23.1951C101.479 23.1951 98.1992 26.1664 98.1992 30.1863C98.1992 34.1626 101.479 37.2213 105.791 37.2213C110.104 37.2213 113.383 34.1626 113.383 30.1863C113.383 26.1664 110.104 23.1951 105.791 23.1951ZM105.836 25.9042C108.217 25.9042 110.104 27.7394 110.104 30.1863C110.104 32.5896 108.172 34.5122 105.836 34.5122C103.455 34.5122 101.479 32.6333 101.479 30.1863C101.479 27.7394 103.455 25.9042 105.836 25.9042ZM137.191 37.0465V23.2825H133.643L129.555 31.7157L125.422 23.2825H121.828V37.0465H124.703V27.7831L128.477 35.6483H130.543L134.316 27.7831V37.0465H137.191ZM156.014 34.3811L157.137 37.0465H160.551L154.486 23.2825H151.207L145.053 37.0465H148.332L149.455 34.3811H156.014ZM154.98 31.8905H150.533L152.779 26.5596L154.98 31.8905ZM177.307 25.9042V23.2825H165.492V25.9042H169.805V37.0465H172.994V25.9042H177.307ZM188.537 37.0465V23.2825H185.348V37.0465H188.537ZM205.652 29.8805L210.369 23.2825H206.596L203.631 27.4772L200.666 23.2825H196.938L201.654 30.0116L196.578 37.0465H200.307L203.586 32.4585L206.91 37.0465H210.729L205.652 29.8805Z" fill="#11181F"/>
</svg>
