<svg width="180" height="61" viewBox="0 0 180 61" fill="none" xmlns="http://www.w3.org/2000/svg">
<path d="M58.0962 17.4454C58.0962 19.3397 56.5112 20.9247 54.6169 20.9247C52.7227 20.9247 51.1377 19.3397 51.1377 17.4454C51.1377 15.5512 52.7227 13.9662 54.6169 13.9662C56.5112 13.9662 58.0962 15.5512 58.0962 17.4454Z" fill="#1A2033"/>
<path d="M57.5163 22.6256V41.9548H51.7176V22.6256H57.5163Z" fill="#1A2033"/>
<path d="M168.063 14.3537V19.9205C165.898 19.7272 164.468 20.3844 164.468 22.6266L170.219 22.6264V18.9539L176.018 17.2142V22.6264H180V28.1932H176.018V35.0357C176.018 36.698 177.448 36.8526 180 36.698V41.9555C172.423 42.7287 170.219 40.4479 170.219 35.0357V28.1932L164.468 28.1934V41.9557H158.669V28.1934H156.079V22.6266H158.669C158.669 17.2144 161.646 13.9671 168.063 14.3537Z" fill="#1A2033"/>
<path fill-rule="evenodd" clip-rule="evenodd" d="M144.868 42.4959C150.551 42.4959 155.113 38.0502 155.113 32.2901C155.113 26.5301 150.551 22.0844 144.868 22.0844C139.185 22.0844 134.624 26.5301 134.624 32.2901C134.624 38.0502 139.185 42.4959 144.868 42.4959ZM144.868 36.8518C142.355 36.8518 140.423 35.0349 140.423 32.2901C140.423 29.5454 142.355 27.7285 144.868 27.7285C147.381 27.7285 149.314 29.5454 149.314 32.2901C149.314 35.0349 147.381 36.8518 144.868 36.8518Z" fill="#1A2033"/>
<path d="M125.323 27.1872C124.318 27.1872 123.699 27.5738 123.699 28.2697C123.699 29.0562 124.911 29.3748 126.469 29.7846C129.276 30.5229 133.209 31.557 133.209 36.156C133.209 40.6017 129.343 42.4959 125.168 42.4959C121.302 42.4959 118.364 41.0269 116.857 37.8956L121.882 35.0349C122.385 36.5039 123.467 37.3157 125.168 37.3157C126.56 37.3157 127.256 36.8905 127.256 36.1173C127.256 35.3507 126.019 35.0062 124.438 34.5657C121.634 33.7844 117.746 32.7009 117.746 28.4243C117.746 24.2106 121.302 22.0844 125.323 22.0844C128.454 22.0844 131.237 23.4761 132.861 26.2208L127.913 28.8882C127.372 27.8831 126.598 27.1872 125.323 27.1872Z" fill="#1A2033"/>
<path fill-rule="evenodd" clip-rule="evenodd" d="M105.839 42.4959C111.522 42.4959 116.083 38.0502 116.083 32.2901C116.083 26.5301 111.522 22.0844 105.839 22.0844C100.156 22.0844 95.5945 26.5301 95.5945 32.2901C95.5945 38.0502 100.156 42.4959 105.839 42.4959ZM105.839 36.8518C103.326 36.8518 101.393 35.0349 101.393 32.2901C101.393 29.5454 103.326 27.7285 105.839 27.7285C108.352 27.7285 110.285 29.5454 110.285 32.2901C110.285 35.0349 108.352 36.8518 105.839 36.8518Z" fill="#1A2033"/>
<path d="M94.0876 22.6264V28.1932H90.1058V35.0357C90.1058 36.698 91.5361 36.8526 94.0876 36.698V41.9555C86.5105 42.7287 84.307 40.4479 84.307 35.0357V28.1932H81.2144V22.6264H84.307V18.9539L90.1058 17.2142V22.6264H94.0876Z" fill="#1A2033"/>
<path d="M72.4511 22.0844C69.8997 22.0844 67.9668 23.0122 66.923 24.4425V22.6256H61.1243V41.9547H66.923V31.401C66.923 28.6563 68.392 27.4192 70.5182 27.4192C72.3738 27.4192 73.8815 28.5403 73.8815 30.9371V41.9547H79.6803V30.0866C79.6803 24.8677 76.3556 22.0844 72.4511 22.0844Z" fill="#1A2033"/>
<path fill-rule="evenodd" clip-rule="evenodd" d="M10.8842 16.6404C10.4672 14.5554 11.4477 12.3812 13.4747 11.739C20.1359 9.62859 27.7147 11.2145 32.9969 16.4967C40.5454 24.0452 40.5454 36.2837 32.9969 43.8322C25.4484 51.3807 13.2099 51.3807 5.66138 43.8322C0.547447 38.7183 -1.10192 31.4518 0.713283 24.9493C1.29897 22.8512 3.5202 21.8086 5.65619 22.2358L8.71392 22.8473C10.4045 23.1854 11.8951 21.6949 11.557 20.0042L10.8842 16.6404ZM14.2037 35.2899C17.0344 38.1205 21.6239 38.1205 24.4546 35.2899C27.2852 32.4592 27.2852 27.8697 24.4546 25.039C21.6239 22.2083 17.0344 22.2083 14.2037 25.039C11.373 27.8697 11.373 32.4592 14.2037 35.2899Z" fill="#0F49FF"/>
</svg>
