<svg width="226" height="61" viewBox="0 0 226 61" fill="none" xmlns="http://www.w3.org/2000/svg">
<path d="M128.683 20.5209H123.106V39.3794H128.683V20.5209Z" fill="#282828"/>
<path d="M122.583 16.3727C122.583 15.3735 122.896 14.595 123.524 14.0372C124.151 13.4795 124.895 13.189 125.755 13.1658C126.661 13.1425 127.451 13.4214 128.125 14.0024C128.822 14.5601 129.171 15.3502 129.171 16.3727C129.171 17.3255 128.857 18.0692 128.23 18.6037C127.602 19.1382 126.859 19.4171 125.999 19.4403C125.092 19.4635 124.291 19.2079 123.594 18.6734C122.92 18.1157 122.583 17.3488 122.583 16.3727Z" fill="#282828"/>
<path d="M117.397 39.6933C118.234 39.6933 119.233 39.6003 120.395 39.4144L120.22 34.8828C119.686 34.999 119.163 35.0571 118.652 35.0571C116.955 35.0571 116.107 34.3251 116.107 32.861V25.4362H120.046V20.7303H116.107V16.6518L110.634 17.1398V20.7303H108.159V25.4362H110.634V32.861C110.634 35.2546 111.215 36.9976 112.377 38.0898C113.539 39.182 115.212 39.7165 117.397 39.6933Z" fill="#282828"/>
<path fill-rule="evenodd" clip-rule="evenodd" d="M85.4142 29.9679C85.4142 32.1059 85.1137 33.965 84.1144 35.5452C83.1384 37.1022 81.8951 38.2293 80.3846 38.9265C78.8973 39.6237 77.2822 39.9723 75.5393 39.9723C73.8196 39.9723 72.2045 39.6237 70.6939 38.9265C69.2066 38.2061 67.9633 37.0674 66.9641 35.5104C65.988 33.9534 65.5 32.1059 65.5 29.9679C65.5 28.3411 65.7905 26.8771 66.3715 25.5757C66.9524 24.2511 67.7077 23.1937 68.6373 22.4036C69.5901 21.5902 70.6591 20.9627 71.8442 20.5212C73.0527 20.0797 74.2843 19.8705 75.5393 19.8938C76.8174 19.8938 78.0491 20.1145 79.2343 20.5561C80.4427 20.9744 81.5117 21.5902 82.4412 22.4036C83.394 23.2169 84.1609 24.2743 84.7419 25.5757C85.3229 26.8771 85.4142 28.3411 85.4142 29.9679ZM71.0076 29.9679C71.0076 31.1763 71.3214 32.1872 71.9488 33.0006C72.5763 33.8139 73.3315 34.3252 74.2146 34.5343C75.0977 34.7202 75.9808 34.7202 76.8639 34.5343C77.7702 34.3484 78.5371 33.8488 79.1645 33.0354C79.792 32.1988 80.1057 31.1763 80.1057 29.9679C80.1057 29.0848 79.9314 28.3063 79.5828 27.6323C79.2575 26.9352 78.8276 26.4123 78.2931 26.0637C77.7586 25.6919 77.166 25.4246 76.5153 25.262C75.8646 25.0993 75.2139 25.0993 74.5632 25.262C73.9358 25.4246 73.3548 25.6919 72.8203 26.0637C72.2858 26.4123 71.8442 26.9352 71.4957 27.6323C71.1703 28.3063 71.0076 29.0848 71.0076 29.9679Z" fill="#282828"/>
<path fill-rule="evenodd" clip-rule="evenodd" d="M97.945 39.693C95.9 39.693 94.273 39.0074 93.065 37.6363V44.8869H87.627V20.5208H93.065V22.4032C94.203 20.9856 95.853 20.2768 98.015 20.2768C100.873 20.2768 103.104 21.2528 104.707 23.2049C106.311 25.157 107.101 27.5157 107.078 30.2812C107.031 33.0234 106.23 35.2776 104.673 37.0437C103.116 38.8099 100.873 39.693 97.945 39.693ZM97.352 25.5404C96.167 25.5404 95.156 25.982 94.32 26.8651C93.483 27.7481 93.065 28.8171 93.065 30.072C93.065 31.3269 93.483 32.4076 94.32 33.3139C95.156 34.197 96.167 34.6385 97.352 34.6385C98.677 34.6385 99.699 34.197 100.42 33.3139C101.164 32.4308 101.547 31.3734 101.57 30.1418C101.593 28.9101 101.222 27.8411 100.455 26.9348C99.711 26.0052 98.677 25.5404 97.352 25.5404Z" fill="#282828"/>
<path d="M137.343 20.5207H131.801V39.3792H137.622V28.7125C137.622 27.7364 137.948 26.9812 138.598 26.4467C139.272 25.8889 139.993 25.6217 140.76 25.6449C142.317 25.6914 143.095 26.7371 143.095 28.7822V39.3792H148.638V28.6427C148.661 27.6899 149.033 26.9463 149.753 26.4118C150.497 25.8773 151.264 25.6217 152.054 25.6449C153.611 25.6914 154.389 26.7371 154.389 28.7822V39.3792H159.932V28.7473C159.955 25.9354 159.386 23.8439 158.224 22.4728C157.062 21.0784 155.516 20.3464 153.587 20.2767C152.402 20.2302 151.217 20.4278 150.032 20.8693C148.847 21.2876 147.952 21.915 147.348 22.7517C146.395 21.1714 144.919 20.3348 142.921 20.2418C140.388 20.1954 138.529 20.9158 137.343 22.4031V20.5207Z" fill="#282828"/>
<path fill-rule="evenodd" clip-rule="evenodd" d="M171.333 20.2075C173.402 20.2075 175.028 20.9627 176.214 22.4733V20.5212H181.686V39.3797H176.214V37.4973C175.075 38.9149 173.425 39.6237 171.264 39.6237C168.405 39.6237 166.174 38.6476 164.571 36.6956C162.967 34.7435 162.177 32.3847 162.201 29.6193C162.247 26.8771 163.049 24.6229 164.606 22.8567C166.163 21.0906 168.405 20.2075 171.333 20.2075ZM171.926 34.36C173.111 34.36 174.122 33.9185 174.959 33.0354C175.795 32.1523 176.214 31.0833 176.214 29.8284C176.214 28.5735 175.795 27.5045 174.959 26.6214C174.122 25.7151 173.111 25.262 171.926 25.262C170.601 25.262 169.567 25.7035 168.824 26.5866C168.103 27.4697 167.731 28.527 167.708 29.7587C167.685 30.9904 168.045 32.071 168.789 33.0006C169.556 33.9069 170.601 34.36 171.926 34.36Z" fill="#282828"/>
<path d="M190.198 20.5213V40.1815C190.198 42.9237 189.269 44.8642 187.41 46.0029C185.55 47.1648 183.25 47.4553 180.508 46.8743L180.717 42.3427C181.762 42.5751 182.692 42.517 183.505 42.1684C184.319 41.8199 184.725 41.1227 184.725 40.0769V20.5213H190.198Z" fill="#282828"/>
<path d="M185.179 14.0376C184.528 14.5954 184.203 15.3971 184.203 16.4429C184.203 17.4654 184.54 18.2555 185.213 18.8132C185.887 19.3477 186.678 19.6034 187.584 19.5801C188.467 19.5569 189.211 19.278 189.815 18.7435C190.442 18.209 190.756 17.4421 190.756 16.4429C190.756 15.4436 190.431 14.6651 189.78 14.1073C189.152 13.5264 188.409 13.2243 187.549 13.201C186.643 13.1778 185.853 13.4567 185.179 14.0376Z" fill="#282828"/>
<path fill-rule="evenodd" clip-rule="evenodd" d="M211.968 29.8974C211.968 30.6411 211.898 31.3615 211.759 32.0587H198.234C198.559 32.8953 199.094 33.546 199.837 34.0107C200.581 34.4523 201.394 34.6847 202.277 34.7079C203.602 34.7079 204.659 34.278 205.449 33.4182H211.41C210.713 35.4167 209.493 36.9621 207.75 38.0543C206.007 39.1233 204.09 39.6346 201.998 39.5881C199.396 39.5416 197.153 38.6702 195.271 36.9737C193.412 35.254 192.482 32.8953 192.482 29.8974C192.482 28.3404 192.761 26.9345 193.319 25.6796C193.876 24.4014 194.62 23.3789 195.55 22.612C196.502 21.8451 197.548 21.2642 198.687 20.8691C199.849 20.4508 201.057 20.2416 202.312 20.2416C204.938 20.2649 207.204 21.1247 209.11 22.8212C211.015 24.5176 211.968 26.8764 211.968 29.8974ZM198.443 27.7711H205.972C205.717 26.8648 205.24 26.1792 204.543 25.7144C203.869 25.2496 203.067 25.0173 202.138 25.0173C201.278 25.0173 200.511 25.2613 199.837 25.7493C199.187 26.2141 198.722 26.888 198.443 27.7711Z" fill="#282828"/>
<path d="M222.502 39.8641C223.339 39.8641 224.338 39.7712 225.5 39.5853L225.326 35.0536C224.791 35.1698 224.268 35.2279 223.757 35.2279C222.061 35.2279 221.212 34.4959 221.212 33.0319V25.607H225.151V20.9011H221.212V16.8227L215.74 17.3107V20.9011H213.265V25.607H215.74V33.0319C215.74 35.4255 216.321 37.1684 217.483 38.2606C218.645 39.3529 220.318 39.8874 222.502 39.8641Z" fill="#282828"/>
<path d="M20.5 50.1645C31.5457 50.1645 40.5 41.2102 40.5 30.1645C40.5 19.1188 31.5457 10.1645 20.5 10.1645C9.4543 10.1645 0.5 19.1188 0.5 30.1645C0.5 41.2102 9.4543 50.1645 20.5 50.1645Z" fill="url(#paint0_linear_1353_2869)"/>
<path d="M25.5 25.1645C25.5 16.8803 32.2157 10.1645 40.5 10.1645V30.1645C40.5 41.2102 31.5457 50.1645 20.5 50.1645C9.4543 50.1645 0.5 41.2102 0.5 30.1645C0.5 37.0681 6.0964 42.6645 13 42.6645C19.9036 42.6645 25.5 37.0681 25.5 30.1645V25.1645Z" fill="#4286F4"/>
<defs>
<linearGradient id="paint0_linear_1353_2869" x1="9.7" y1="15.5645" x2="34.85" y2="32.5145" gradientUnits="userSpaceOnUse">
<stop stop-color="#4286F4"/>
<stop offset="1" stop-color="#373B44"/>
</linearGradient>
</defs>
</svg>
