<svg width="110" height="81" viewBox="0 0 110 81" fill="none" xmlns="http://www.w3.org/2000/svg">
<path d="M63.1582 35.3053C68.9855 26.59 78.6203 8.82274 69.6808 2.69843C67.6942 1.31878 65.4428 0.679428 62.9265 0.342927C56.2384 -0.565624 50.8084 2.16003 42.1007 4.81838C33.724 7.37578 26.3406 6.43358 21.0762 12.5915C17.964 16.1921 17.0369 19.8599 17.2024 24.7056C17.5335 33.0508 22.9966 43.6169 31.0422 46.0397C52.2653 52.3659 59.152 41.2614 63.1582 35.3053Z" fill="#147DFA"/>
<path d="M59.0195 35.2718C57.7613 30.83 56.1721 22.7877 44.5507 24.1673C32.9293 25.5133 20.6457 29.8542 13.3617 38.233C6.83912 45.737 -3.59032 80.5648 20.5464 80.161C41.2066 79.7908 57.7282 72.7243 61.2709 61.1824C64.1845 51.5248 59.7148 37.7283 59.0195 35.2718Z" fill="#FF5AC3"/>
<path d="M5.05118 37.4588C8.56078 43.1457 12.865 54.6203 18.3943 60.5091C36.9024 80.1607 48.6893 48.1259 50.3448 43.5158C52.0334 38.8721 51.1725 33.8583 49.2853 30.5606C47.3981 27.2629 44.0209 23.3258 38.2268 19.9944C32.3995 16.6631 25.877 14.9133 20.745 14.4422C7.43506 13.1635 1.64092 17.3361 0.548312 23.2922C-0.842281 30.7288 3.09773 34.2957 5.05118 37.4588Z" fill="#FFC82D"/>
<path d="M33.9224 36.0117C33.9224 39.0402 31.075 39.7805 27.2674 40.117V32.5121H29.6182C32.8298 32.5121 33.9224 33.5216 33.9224 36.0117ZM92.8239 40.4198C92.8239 37.6605 93.7841 36.8866 98.3863 36.8866H99.214V34.2955H98.585C93.3206 34.2955 90.1421 35.3723 90.1421 40.2516V41.4966C90.1421 45.4337 91.5658 48.3276 97.8897 48.3276H99.1809V45.7365H98.0883C92.857 45.7365 92.8239 43.5493 92.8239 41.4966V40.4198ZM72.3624 48.1257H75.0111V30.0556H72.3624V48.1257ZM24.4531 30.0556V48.092H27.2343V42.708C32.5649 42.035 36.7698 40.689 36.7698 35.978C36.7698 31.7718 34.717 30.022 29.0222 30.022H24.4531V30.0556ZM53.5231 36.3818C53.3576 35.7761 53.1589 35.0022 52.861 34.4301H50.9075C51.073 35.1031 51.1062 36.3145 51.1062 37.2904V48.1257H53.7549V39.5786C53.7549 37.1894 56.8341 36.9875 58.4895 36.8866V34.3628C54.5495 34.5311 53.2914 35.5406 52.7947 36.5164L53.5231 36.3818ZM109.743 45.7365H109.412C104.512 45.7365 103.75 44.3905 103.75 41.4966V36.8866H109.743V34.3965H103.75V30.594H101.101V41.5976C101.101 46.9816 104.114 48.2939 109.114 48.3276H109.71V45.7365H109.743ZM80.1762 40.4198C80.1762 37.8961 81.3019 36.5501 83.6526 36.5501C85.3412 36.5501 86.0365 37.2231 86.0365 38.6027C86.0365 40.117 84.977 40.5544 83.4871 40.5544H79.216L79.6464 42.5398H83.454C86.4338 42.5398 88.5197 41.6312 88.5197 38.6364C88.5197 35.6079 86.6325 34.3292 83.6526 34.3292C79.9444 34.3292 77.5605 36.5837 77.5605 40.4198V41.5303C77.5605 45.501 78.9511 48.3612 85.3081 48.3612H87.1954V45.7702H85.6723C80.8384 45.7702 80.2093 44.3569 80.2093 41.5976V40.4198H80.1762ZM67.2966 39.4103C66.4689 39.8814 64.7141 39.9824 63.3897 40.1843C61.1383 40.5208 59.0193 41.1601 59.0193 44.0877C59.0193 47.2508 61.2707 48.2603 63.4228 48.2603C65.6412 48.2603 67.1311 47.4863 67.9588 46.2749L66.9655 45.0635C66.5682 45.4337 65.8398 46.174 63.787 46.2076C62.3633 46.2076 61.5025 45.4 61.5025 44.054C61.5025 42.6407 62.3633 42.1696 63.8533 41.9677C65.2439 41.7658 67.0649 41.6985 67.8595 41.1601C67.9257 40.8236 67.3297 39.2421 67.2966 39.4103ZM63.8201 34.3628C62.3633 34.3628 61.2707 34.4301 60.1119 34.5311V36.9202C61.2707 36.8193 62.3633 36.752 63.8201 36.752C66.1378 36.752 66.9986 37.324 66.9986 40.5881V45.3664C66.9986 45.9384 67.3628 47.3181 67.7602 48.1257H69.7136C69.5481 47.4863 69.5481 45.7702 69.5481 45.2991V40.6554C69.515 35.7425 67.8595 34.3628 63.8201 34.3628ZM46.0735 39.4103C45.2458 39.8814 43.491 39.9824 42.1666 40.1843C39.9152 40.5208 37.7962 41.1601 37.7962 44.0877C37.7962 47.2508 40.0476 48.2603 42.2329 48.2603C44.4512 48.2603 45.9411 47.4863 46.7688 46.2749L45.7756 45.0635C45.3782 45.4337 44.6498 46.174 42.5971 46.2076C41.1733 46.2076 40.3125 45.4 40.3125 44.054C40.3125 42.6407 41.1734 42.1696 42.6633 41.9677C44.0539 41.7658 45.8749 41.6985 46.6695 41.1601C46.7026 40.8236 46.1066 39.2421 46.0735 39.4103ZM42.5971 34.3628C41.1402 34.3628 40.0476 34.4301 38.8888 34.5311V36.9202C40.0476 36.8193 41.1402 36.752 42.5971 36.752C44.9147 36.752 45.7756 37.324 45.7756 40.5881V45.3664C45.7756 45.9384 46.1398 47.3181 46.5371 48.1257H48.4905C48.325 47.4863 48.325 45.7702 48.325 45.2991V40.6554C48.2919 35.7425 46.6033 34.3628 42.5971 34.3628Z" fill="black"/>
</svg>
