<svg width="190" height="61" viewBox="0 0 190 61" fill="none" xmlns="http://www.w3.org/2000/svg">
<path d="M2.00037 44.4647C3.50633 43.9972 5.40948 43.4064 6.5502 42.7647C3.7502 39.2647 2.1502 34.7647 2.1502 30.0647C2.1502 18.5647 11.4502 9.26471 22.9502 9.26471C29.0502 9.26471 34.5502 11.7647 38.3502 15.8647C26.6502 12.7647 9.4502 14.5647 8.5502 22.4647C8.03875 26.3858 11.669 28.6357 15.6007 31.0725C16.2815 31.4944 16.9713 31.9219 17.6502 32.3647C20.9502 34.3647 23.8502 36.3647 23.7502 39.8647C23.5502 46.9647 5.9502 45.5647 0.450195 44.9647C0.852071 44.8212 1.39403 44.6529 2.00037 44.4647Z" fill="#5176B9"/>
<path d="M30.7503 17.4642C36.2503 17.1642 42.5503 18.0642 47.3503 19.3642C46.0503 19.4642 42.6503 20.3642 41.7503 21.2642C43.0503 23.9642 43.7503 26.9642 43.7503 30.2642C43.7503 41.7642 34.4503 51.0642 22.9503 51.0642C18.9503 51.0642 15.2503 49.8642 12.0503 47.9642C24.2503 48.5642 33.6503 44.0642 33.7503 39.7642C33.8248 35.6666 28.0711 32.7346 22.9818 30.1411C21.2401 29.2535 19.5761 28.4056 18.2503 27.5642C16.2503 26.3642 14.9503 25.0642 15.3503 23.6642C16.3503 19.9642 23.0503 17.6642 30.7503 17.4642Z" fill="#5176B9"/>
<path fill-rule="evenodd" clip-rule="evenodd" d="M65.1504 39.9647C62.4504 39.9647 60.1504 39.0647 58.1504 37.2647L59.9504 35.1647C61.6504 36.6647 63.3504 37.3647 65.2504 37.3647C66.1504 37.3647 66.8504 37.1647 67.4504 36.7647C67.9504 36.3647 68.2504 35.8647 68.2504 35.1647C68.2504 34.5647 67.9504 34.0647 67.4504 33.6647C66.9504 33.2647 65.9504 32.9647 64.4504 32.5647C62.4504 32.0647 61.0504 31.4647 60.1504 30.7647C59.2504 30.0647 58.8504 28.9647 58.8504 27.4647C58.8504 26.0647 59.3504 24.8647 60.4504 23.9647C61.5504 23.0647 62.8504 22.5647 64.5504 22.5647C66.8504 22.5647 68.8504 23.2647 70.6504 24.6647L69.0504 26.8647C67.4504 25.6647 65.9504 25.1647 64.4504 25.1647C63.6504 25.1647 62.9504 25.3647 62.4504 25.7647C61.9504 26.1647 61.7504 26.6647 61.7504 27.2647C61.7504 27.9647 62.0504 28.4647 62.5504 28.7647C63.0504 29.1647 64.1504 29.4647 65.7504 29.8647C67.6504 30.2647 68.9504 30.8647 69.8504 31.6647C70.7504 32.4647 71.1504 33.4647 71.1504 34.8647C71.1504 36.4647 70.5504 37.6647 69.4504 38.5647C68.3504 39.5647 66.9504 39.9647 65.1504 39.9647ZM76.0504 39.7647V22.9647H79.1504L84.2504 30.8647L89.3504 22.9647H92.4504V39.7647H89.4504V27.7647L84.1504 35.6647H84.0504L78.7504 27.7647V39.7647H76.0504ZM96.8504 39.7647L104.25 22.8647H106.95L114.35 39.7647H111.25L109.55 35.6647H101.65L99.9504 39.7647H96.8504ZM102.75 33.0647H108.55L105.65 26.3647L102.75 33.0647ZM118.65 39.7647V22.9647H126.15C128.15 22.9647 129.65 23.4647 130.75 24.4647C131.85 25.4647 132.45 26.7647 132.45 28.3647C132.45 29.6647 132.05 30.7647 131.35 31.6647C130.65 32.5647 129.65 33.1647 128.45 33.4647L132.95 39.8647H129.45L125.25 33.9647H121.65V39.8647H118.65V39.7647ZM121.65 31.2647H125.95C127.05 31.2647 127.85 30.9647 128.45 30.4647C129.05 29.9647 129.35 29.2647 129.35 28.3647C129.35 27.4647 129.05 26.7647 128.45 26.2647C127.85 25.7647 126.95 25.5647 125.85 25.5647H121.55V31.2647H121.65ZM141.65 39.7647V25.6647H136.35V22.9647H149.95V25.6647H144.65V39.7647H141.65ZM159.45 39.7647V33.1647L152.75 22.9647H156.25L160.95 30.3647L165.75 22.9647H169.15L162.45 33.0647V39.7647H159.45ZM173.15 39.7647V22.9647H176.25L181.35 30.8647L186.45 22.9647H189.55V39.7647H186.55V27.7647L181.25 35.6647H181.15L175.85 27.7647V39.7647H173.15Z" fill="black"/>
</svg>
