<svg width="114" height="61" viewBox="0 0 114 61" fill="none" xmlns="http://www.w3.org/2000/svg">
<path fill-rule="evenodd" clip-rule="evenodd" d="M64.7248 29.1751C63.5822 27.7126 62.3358 27.2948 60.7433 27.643C60.0162 29.4536 58.9428 32.0303 57.7311 34.8855C52.7107 42.0931 50.1141 46.167 50.1141 46.167C51.0142 41.2226 53.334 35.8256 57.0386 29.9411C55.8961 28.3394 54.5804 27.8171 53.0224 28.409C52.6079 29.35 52.1892 30.2746 51.7736 31.1914L51.7509 31.242L51.7332 31.2813L51.7188 31.3126L51.7072 31.3378L51.6983 31.3577L51.6911 31.3734L51.6878 31.381L51.6867 31.383C50.9169 33.0803 50.1586 34.7523 49.4562 36.4524L42.1855 46.4108C43.1549 41.5708 45.44 36.2783 49.0408 30.533C47.8635 28.9661 46.5479 28.4439 44.9899 29.0358C44.2283 30.8116 43.4319 32.5177 42.6356 34.1891L40.9737 31.1598C39.8312 29.5581 38.4808 29.0358 36.9228 29.6625C36.3993 30.8297 35.8698 31.9794 35.344 33.1212L35.3396 33.1309L35.3379 33.1346L35.3374 33.1362C34.5792 34.7824 33.8287 36.4122 33.1143 38.0541L26.0167 47.6294C27.367 42.0583 30.0675 34.5721 32.9412 28.4439C33.6786 28.3149 34.4755 28.2456 35.2217 28.1808L35.3994 28.1653C35.3649 27.5385 35.1226 27.0162 34.7763 26.6681C34.474 26.6005 34.1395 26.6312 33.7722 26.6649L33.7375 26.6681L34.0271 26.1062L34.0337 26.0933L34.0398 26.0817C34.8666 24.4778 35.6625 22.9346 36.4035 21.7237C35.261 20.1568 33.9106 19.8086 32.2142 20.1568C32.0828 20.4671 31.9417 20.8036 31.7909 21.1633L31.7853 21.1762C31.1409 22.712 30.3198 24.6687 29.3404 26.8073C28.8558 26.8422 27.4449 26.8683 26.034 26.8944C24.6231 26.9205 23.2122 26.9466 22.7276 26.9814C22.8315 27.8867 23.3161 28.5831 23.8355 29.0358C23.977 29.0239 24.5281 29.0121 25.207 28.9974C26.5218 28.9692 28.316 28.9306 28.5443 28.8617C26.6399 33.3882 24.5279 38.5763 22.9699 42.894C22.6929 41.2575 21.8966 40.004 21.031 39.3076C20.341 38.9865 18.8176 38.4404 16.9912 37.7858L16.9879 37.7847C12.675 36.239 6.67544 34.0887 5.97027 32.8659C2.36952 26.4243 21.2042 10.6162 31.3832 4.03533C32.0064 5.11473 22.3467 20.6094 11.6483 27.3296C11.7286 27.5938 11.8052 27.8751 11.8834 28.1624L11.8851 28.1685L11.8868 28.1748L11.8884 28.1813C12.4166 30.1238 13.0146 32.3228 15.1799 31.2642C22.2775 25.4494 35.1571 11.0689 33.98 1.4935C33.689 1.33743 33.4208 1.19108 33.175 1.05672L33.1589 1.048C32.0972 0.468049 31.4491 0.114003 31.1409 0.170354C25.3589 3.02556 18.1921 8.21368 11.6138 14.6553C3.89298 22.0719 -1.57746 30.3241 1.60788 35.756C3.32179 38.7271 9.98609 40.8118 14.4629 42.2122C16.8591 42.9618 18.6286 43.5153 18.6767 43.9037C18.9883 46.1322 2.99274 54.3496 0.949956 54.7326C1.08837 57.0307 1.60788 59.2244 3.26975 60.06C9.95176 56.4388 17.742 51.2159 21.8274 46.4804C21.4812 47.5946 21.1696 48.6044 20.9618 49.4749C21.1696 51.7382 22.6584 52.9917 25.255 53.4443L30.2753 45.784C29.9636 46.7241 29.6868 47.6991 29.4443 48.7088C29.6174 50.9025 31.0025 52.1908 33.5644 52.5738C36.8881 47.2464 38.8617 43.7296 38.8617 43.7296C38.4116 45.0876 37.9962 46.5152 37.5808 47.9776C37.7884 50.1365 39.1387 51.4248 41.6315 51.8078L46.5479 44.2519C46.2364 45.2269 45.9593 46.2018 45.6823 47.2116C45.8554 49.4052 47.2058 50.6936 49.6985 51.0418C52.1914 47.0723 53.8533 44.1475 54.5457 42.9288C52.5376 48.1517 50.7027 53.2006 50.0102 56.3692C50.2525 58.5628 51.6374 59.8163 54.1303 60.1645C53.8188 53.9666 60.1546 36.9746 64.7248 29.1751ZM33.9453 47.6294C34.7763 43.1029 36.7844 38.1585 40.0043 32.8311L41.8046 36.1738C38.2119 41.2762 35.8275 44.838 34.6994 46.5233C34.2186 47.2416 33.966 47.619 33.9453 47.6294ZM79.751 16.8489C80.9281 16.5356 82.6939 16.64 83.7672 17.3016L79.8894 24.8574C78.5634 23.803 78.034 23.6877 77.2978 23.5275C77.2076 23.5078 77.1142 23.4875 77.0158 23.4647L79.751 16.8489ZM112.885 30.6723C110.877 33.3534 106.099 39.4468 103.606 41.6753C101.84 43.2074 101.598 41.6405 101.667 40.7003C101.909 39.6906 102.152 38.7156 102.429 37.7407C102.983 38.5067 104.195 38.7156 105.06 38.4023C107.864 36.1738 111.673 26.9466 109.319 25.7279C109.319 25.7279 108.626 25.2404 106.722 24.3351C105.649 23.9869 104.852 24.2307 104.16 25.0315C102.186 27.8171 100.49 31.1946 99.2781 35.164L94.7426 41.6057C95.6428 36.9746 97.7893 31.8562 101.079 26.3547C100.04 24.7878 98.7935 24.3351 97.3739 24.9271C95.5734 26.3199 92.2844 30.6723 89.0991 36.139C90.2416 33.2141 91.7996 30.1152 93.7039 26.9466C92.6653 25.3797 91.3842 24.8923 89.9301 25.4842C88.0951 26.877 84.7366 31.2642 81.5513 36.7657C82.6939 33.8061 84.2173 30.7071 86.2254 27.5037C85.1176 25.9368 83.8711 25.4494 82.4169 26.0413L81.9363 27.1218L81.9319 27.1321C80.7864 29.7059 79.6708 32.2127 78.6085 34.7462L72.3417 43.5207C73.2765 38.7853 75.4923 33.632 78.8855 28.0957C77.7775 26.494 76.4965 26.0413 75.0769 26.6332C74.7964 27.2621 74.5159 27.8873 74.2367 28.5096C73.3097 30.5747 72.3969 32.6082 71.5454 34.6417L64.7595 44.043C66.5251 36.3479 70.9915 24.9271 74.5229 18.9033C73.4498 17.406 72.1686 17.023 70.6106 17.3712C70.2113 18.3587 69.7052 19.5867 69.1307 20.9804L69.1302 20.9814L69.1274 20.9887C66.1163 28.2945 61.2312 40.1483 59.9815 45.8188C60.2238 47.9428 61.5741 49.2311 64.0323 49.649L68.7757 42.2672C68.5001 43.1678 68.2589 44.0683 68.0177 44.9689L68.0138 44.9832C68.1869 47.142 69.4681 48.3955 71.8224 48.7785L75.9772 42.2324L75.881 42.5688L75.8794 42.5751L75.8788 42.5775C75.7046 43.1859 75.5341 43.7813 75.3885 44.426C75.5616 46.4804 76.7041 47.6991 78.8855 48.1517C78.9158 48.1594 78.9429 48.167 78.9678 48.1743L79.02 48.1898L79.0461 48.1973L79.0756 48.2053C79.0876 48.2083 79.0996 48.2109 79.1116 48.2132C79.1247 48.2157 79.1378 48.2177 79.1514 48.2191C79.166 48.2206 79.1811 48.2214 79.197 48.2214V47.8732C79.4048 44.3564 84.5981 34.0846 87.7142 30.5678C85.8445 34.8158 84.1481 38.9942 82.9709 43.7296C83.144 45.784 84.3212 46.9679 86.4332 47.4205C86.5716 47.4553 86.6755 47.4902 86.7447 47.4902V47.142C86.9525 43.6252 92.0766 33.423 95.158 29.9759C93.3577 34.1891 91.6959 38.3326 90.5186 43.0681C90.6917 45.1921 91.9382 46.4108 94.2578 46.7938L97.8932 40.9789L97.7893 41.5012C97.6162 42.1279 97.7201 42.7895 98.0664 43.5555C98.3434 43.7993 100.905 46.0626 100.905 46.0626C103.513 46.0626 108.569 39.5654 111.086 36.3308L111.154 36.2434C111.235 36.1394 111.318 36.0339 111.402 35.9269C112.612 34.3881 114.05 32.5606 112.885 30.6723ZM104.645 35.0944C105.787 33.3882 108.903 24.9619 106.48 28.4439C105.164 30.5678 104.056 32.9008 103.191 35.4078C103.745 35.6863 104.229 35.547 104.645 35.0944Z" fill="black"/>
</svg>
