<svg width="198" height="61" viewBox="0 0 198 61" fill="none" xmlns="http://www.w3.org/2000/svg">
<path d="M7.6708 40.1476C8.6558 32.6464 9.6802 25.1451 10.6652 17.5649C11.9654 17.5649 13.108 17.5649 14.4082 17.5649C15.3538 24.8688 16.2994 32.0937 17.2844 39.358C17.442 39.358 17.639 39.358 17.7966 39.358C18.7816 32.1331 19.7272 24.9083 20.7122 17.5649C21.8154 17.5649 22.8004 17.5649 24.0612 17.5649C22.7216 27.5534 21.382 37.4235 20.003 47.4515C18.3482 47.4515 16.851 47.4515 15.078 47.4515C14.29 41.9242 13.4626 36.397 12.6746 30.8303C12.517 30.7908 12.3594 30.7908 12.2018 30.7513C11.3744 36.318 10.5076 41.8453 9.6408 47.4909C7.9466 47.4909 6.41 47.4909 4.5976 47.4909C3.258 37.5814 1.879 27.6719 0.5 17.5649C1.879 17.5649 2.9428 17.5649 4.2036 17.5649C5.2674 25.1057 6.2918 32.6069 7.3556 40.1081C7.4738 40.1081 7.5526 40.1476 7.6708 40.1476Z" fill="#ED2024"/>
<path d="M42.1851 17.4464C45.1795 17.4464 48.0163 17.2095 50.7743 17.5648C52.1533 17.7227 53.7687 18.6703 54.6355 19.7757C56.9207 22.6972 55.9751 28.8956 53.0989 31.5013C57.3147 34.3834 56.4479 38.6867 56.0145 42.7532C55.6993 45.5957 53.5717 47.4513 50.7743 47.5698C47.9769 47.6882 45.1401 47.6092 42.1851 47.6092C42.1851 37.5813 42.1851 27.6717 42.1851 17.4464ZM45.8099 44.2139C48.1345 44.135 51.0107 45.122 51.8381 42.6347C52.5867 40.3054 52.5867 37.2654 51.6805 35.0151C50.8137 32.8831 48.0163 33.3964 45.8099 33.7122C45.8099 37.2259 45.8099 40.5818 45.8099 44.2139ZM45.8887 30.08C48.0557 30.159 50.5773 30.7117 51.4047 28.5798C52.1139 26.7242 52.1139 24.158 51.3653 22.3024C50.4985 20.0521 47.9375 20.9601 45.8493 20.9206C45.8887 23.9606 45.8887 26.8821 45.8887 30.08Z" fill="#ED2024"/>
<path d="M152.111 32.2911C152.111 29.7249 152.072 27.1192 152.111 24.553C152.229 19.6575 154.751 17.0518 159.203 17.0518C163.616 17.0518 166.295 19.7759 166.335 24.553C166.413 29.8828 166.413 35.2127 166.335 40.5425C166.295 45.3196 163.616 48.0437 159.203 48.0437C154.751 48.0437 152.229 45.438 152.111 40.5425C152.072 37.7789 152.111 35.0547 152.111 32.2911ZM162.631 32.6464C162.631 30.0013 162.71 27.3166 162.592 24.6714C162.513 21.9473 161.449 20.8024 159.282 20.7629C157.036 20.7234 155.933 21.7499 155.894 24.5135C155.775 29.8433 155.775 35.1337 155.894 40.4635C155.933 43.2666 157.036 44.2931 159.282 44.2536C161.449 44.2536 162.513 43.1087 162.631 40.3451C162.71 37.8183 162.631 35.2521 162.631 32.6464Z" fill="#ED2024"/>
<path d="M146.359 25.8953C146.162 24.5925 146.28 23.487 145.768 22.8158C145.098 21.9473 143.995 20.9603 143.049 20.9208C142.064 20.8813 140.606 21.7104 140.173 22.579C138.991 24.8293 139.661 27.0797 141.394 28.8168C142.931 30.396 144.665 31.6989 146.28 33.1991C149.156 35.8048 150.535 38.9238 149.59 42.8718C148.802 46.1092 146.713 47.8858 143.246 48.0437C139.661 48.2016 137.139 46.6619 136.272 43.385C135.878 41.8453 135.918 40.1871 135.721 38.4105C137.06 38.4105 138.006 38.4105 139.149 38.4105C139.267 39.437 139.345 40.424 139.503 41.411C139.779 43.2666 140.685 44.372 142.773 44.3326C144.822 44.2931 145.65 43.1876 145.925 41.3321C146.319 38.8843 145.295 37.0682 143.601 35.489C142.182 34.1467 140.606 33.0017 139.188 31.6594C136.903 29.5275 135.681 26.9613 135.957 23.7239C136.272 19.46 138.952 16.9333 143.167 17.0912C147.265 17.2491 149.944 20.1707 149.786 24.3161C149.629 27.0402 147.659 25.5005 146.359 25.8953Z" fill="#ED2024"/>
<path d="M39.2302 17.644C39.2302 18.5916 39.2302 19.4996 39.2302 20.7235C36.3146 20.7235 33.399 20.7235 30.3652 20.7235C30.3652 24.1188 30.3652 27.1983 30.3652 30.5935C32.7292 30.5935 35.1326 30.5935 37.6148 30.5935C37.6148 31.778 37.6148 32.686 37.6148 33.9099C35.2508 33.9099 32.8868 33.9099 30.3652 33.9099C30.3652 37.4631 30.3652 40.7005 30.3652 44.2537C33.2808 44.2537 36.2358 44.2537 39.2302 44.2537C39.2302 45.4776 39.2302 46.3856 39.2302 47.4516C35.0932 47.4516 30.9956 47.4516 26.6616 47.4516C26.6616 37.621 26.6616 27.7115 26.6616 17.644C30.7986 17.644 34.9356 17.644 39.2302 17.644Z" fill="#ED2024"/>
<path d="M91.3171 34.0283C88.8743 34.0283 86.6285 34.0283 84.2645 34.0283C84.2645 37.4631 84.2645 40.74 84.2645 44.2537C87.1801 44.2537 90.0563 44.2537 93.0113 44.2537C93.0113 45.4381 93.0113 46.3461 93.0113 47.4516C88.8743 47.4516 84.6979 47.4516 80.4033 47.4516C80.4033 37.5421 80.4033 27.7115 80.4033 17.644C84.5797 17.644 88.7167 17.644 93.0113 17.644C93.0113 18.5916 93.0113 19.4996 93.0113 20.684C90.2139 20.684 87.3377 20.684 84.3039 20.684C84.3039 24.0398 84.3039 27.1193 84.3039 30.5146C86.5103 30.5146 88.8349 30.5146 91.3171 30.5146C91.3171 31.778 91.3171 32.7255 91.3171 34.0283Z" fill="#ED2024"/>
<path d="M173.072 31.0672C175.357 31.0672 177.445 31.0672 179.731 31.0672C179.731 32.1727 179.731 33.1597 179.731 34.3441C177.564 34.3441 175.436 34.3441 172.993 34.3441C172.993 38.8448 172.993 43.0692 172.993 47.4515C171.614 47.4515 170.59 47.4515 169.329 47.4515C169.329 37.5815 169.329 27.6719 169.329 17.6045C173.269 17.6045 177.288 17.6045 181.425 17.6045C181.425 18.5915 181.425 19.5785 181.425 20.7629C178.628 20.7629 175.909 20.7629 173.072 20.7629C173.072 24.2766 173.072 27.514 173.072 31.0672Z" fill="#ED2024"/>
<path d="M188.202 20.7234C186.114 20.7234 184.498 20.7234 182.765 20.7234C182.765 19.618 182.765 18.7099 182.765 17.6045C187.65 17.6045 192.496 17.6045 197.5 17.6045C197.5 18.5915 197.5 19.4995 197.5 20.7234C195.767 20.7234 193.994 20.7234 192.063 20.7234C192.063 29.7644 192.063 38.4895 192.063 47.412C190.723 47.412 189.62 47.412 188.202 47.412C188.202 38.6869 188.202 29.8828 188.202 20.7234Z" fill="#ED2024"/>
<path d="M77.9604 47.491C73.8628 47.491 69.9228 47.491 65.8252 47.491C65.8252 37.5025 65.8252 27.6325 65.8252 17.6045C66.9678 17.6045 68.1104 17.6045 69.45 17.6045C69.45 26.3691 69.45 35.1337 69.45 44.1352C72.3656 44.1352 75.0448 44.1352 77.921 44.1352C77.9604 45.3591 77.9604 46.3461 77.9604 47.491Z" fill="#ED2024"/>
<path d="M59.0483 17.5254C60.3091 17.5254 61.2941 17.5254 62.4761 17.5254C62.4761 27.4744 62.4761 37.3839 62.4761 47.4514C61.4123 47.4514 60.3091 47.4514 59.0483 47.4514C59.0483 37.5024 59.0483 27.6323 59.0483 17.5254Z" fill="#ED2024"/>
<path d="M125.162 43.5034C125.162 43.5034 125.162 42.9901 125.162 42.319V36.1206C125.162 35.4494 124.61 34.9362 123.98 34.9362H119.685C119.055 34.9362 118.503 34.7782 118.503 34.5413C118.503 34.3045 119.055 34.1465 119.685 34.1465H123.98C124.61 34.1465 125.162 33.6333 125.162 32.9621V21.0786C125.162 20.4469 125.162 19.8942 125.162 19.8942C125.162 19.8942 125.162 19.3415 125.162 18.7098V18.4729C125.162 17.8017 124.61 17.2885 123.98 17.2885H118.621C117.991 17.2885 117.439 17.8017 117.439 18.4729V27.7113C117.439 28.3824 117.163 28.8957 116.848 28.8957C116.533 28.8957 116.257 28.3824 116.257 27.7113V18.4334C116.257 17.7623 115.745 17.249 115.075 17.249H109.874C109.244 17.249 108.692 17.7623 108.692 18.4334V27.5928C108.692 28.264 108.692 28.7772 108.692 28.7772C108.692 28.7772 108.692 29.2905 108.692 29.9616V32.5673C108.692 33.199 108.692 33.7517 108.692 33.7517C108.692 33.7517 108.692 34.3045 108.692 34.9362V46.9381C108.692 47.6093 109.244 48.1225 109.874 48.1225H123.94C124.571 48.1225 125.122 47.6093 125.122 46.9381V44.6088C125.201 44.0166 125.201 43.5034 125.162 43.5034Z" fill="#ED2024"/>
<path d="M103.452 46.8592C103.216 46.8592 103.058 46.7013 103.058 46.4644V17.6438C103.058 17.4069 102.861 17.249 102.664 17.249H102.152C101.955 17.249 101.758 17.4069 101.758 17.6438V46.4249C101.758 46.6618 101.758 46.9776 101.758 47.2145C101.758 47.2145 101.718 47.7277 101.955 47.9646C102.191 48.2015 102.664 48.162 102.664 48.162C102.861 48.162 103.216 48.162 103.452 48.162H112.553C112.79 48.162 112.947 48.0041 112.947 47.7672V47.254C112.947 47.0171 112.79 46.8592 112.553 46.8592H103.452Z" fill="#ED2024"/>
<path d="M108.811 28.6589C108.811 28.6589 109.874 34.6599 108.811 34.0677C105.934 32.4885 103.61 28.6589 103.61 28.6589H108.811Z" fill="#ED2024"/>
<path d="M124.846 28.6589C124.846 28.6589 121.891 34.1467 123.861 34.1862C124.058 34.1862 124.413 34.3046 125.004 33.9098C126.501 32.9623 130.047 28.6589 130.047 28.6589H124.846Z" fill="#ED2024"/>
<path d="M111.49 16.3806C111.253 16.6175 110.78 16.4991 110.386 16.1043C109.992 15.7095 109.874 15.2357 110.111 14.9988L112.79 12.3142C113.026 12.0773 113.499 12.1957 113.893 12.5905C114.287 12.9853 114.405 13.4591 114.169 13.696L111.49 16.3806Z" fill="#ED2024"/>
<path d="M121.97 16.499C122.206 16.7358 122.718 16.5779 123.152 16.1436C123.585 15.7094 123.703 15.1961 123.506 14.9592L120.827 12.2746C120.591 12.0377 120.079 12.1956 119.645 12.6299C119.212 13.0642 119.094 13.5774 119.291 13.8143L121.97 16.499Z" fill="#ED2024"/>
</svg>
